<mxfile host="app.diagrams.net" modified="2021-12-27T02:06:40.323Z" agent="5.0 (Windows NT 10.0; Win64; x64) AppleWebKit/537.36 (KHTML, like Gecko) Chrome/96.0.4664.55 Safari/537.36 Edg/96.0.1054.43" etag="OlK0K7bG1tX7S4bK0TME" version="16.1.0" type="github">
  <diagram name="Page-1" id="bfe91b75-5d2c-26a0-9c1d-138518896778">
    <mxGraphModel dx="1422" dy="794" grid="1" gridSize="10" guides="1" tooltips="1" connect="1" arrows="1" fold="1" page="1" pageScale="1" pageWidth="1100" pageHeight="850" background="none" math="0" shadow="0">
      <root>
        <mxCell id="0" />
        <mxCell id="1" parent="0" />
        <mxCell id="7c3789c024ecab99-79" value="Gitlab Server" style="rounded=1;whiteSpace=wrap;html=1;shadow=0;comic=0;strokeColor=#036897;strokeWidth=2;fillColor=none;fontFamily=Verdana;fontSize=28;fontColor=#6881B3;align=center;arcSize=11;verticalAlign=top;" parent="1" vertex="1">
          <mxGeometry x="430" y="462" width="390" height="328" as="geometry" />
        </mxCell>
        <mxCell id="7c3789c024ecab99-30" value="" style="fontColor=#0066CC;verticalAlign=top;verticalLabelPosition=bottom;labelPosition=center;align=center;html=1;fillColor=#CCCCCC;strokeColor=#6881B3;gradientColor=none;gradientDirection=north;strokeWidth=2;shape=mxgraph.networks.wireless_hub;rounded=0;shadow=0;comic=0;" parent="1" vertex="1">
          <mxGeometry x="180" y="330" width="100" height="80.07" as="geometry" />
        </mxCell>
        <mxCell id="473zDxLhcldlXg5GOI97-7" style="edgeStyle=orthogonalEdgeStyle;rounded=0;orthogonalLoop=1;jettySize=auto;html=1;exitX=1;exitY=0.5;exitDx=0;exitDy=0;entryX=0;entryY=0.25;entryDx=0;entryDy=0;fontSize=20;strokeWidth=2;" edge="1" parent="1" source="473zDxLhcldlXg5GOI97-3" target="7c3789c024ecab99-79">
          <mxGeometry relative="1" as="geometry" />
        </mxCell>
        <mxCell id="473zDxLhcldlXg5GOI97-3" value="&lt;b style=&quot;background-color: rgb(248 , 249 , 250)&quot;&gt;&lt;font style=&quot;font-size: 16px&quot;&gt;IP:173.20.15.201&lt;/font&gt;&lt;/b&gt;" style="image;html=1;image=img/lib/clip_art/computers/Monitor_Tower_128x128.png" vertex="1" parent="1">
          <mxGeometry x="170" y="489" width="130" height="110" as="geometry" />
        </mxCell>
        <mxCell id="473zDxLhcldlXg5GOI97-6" value="&lt;font size=&quot;1&quot;&gt;&lt;b style=&quot;font-size: 14px&quot;&gt;Ubuntu12.04&lt;/b&gt;&lt;/font&gt;" style="sketch=0;pointerEvents=1;shadow=0;dashed=0;html=1;strokeColor=none;fillColor=#DF8C42;labelPosition=center;verticalLabelPosition=bottom;verticalAlign=top;align=center;outlineConnect=0;shape=mxgraph.veeam2.linux;fontSize=20;" vertex="1" parent="1">
          <mxGeometry x="130" y="527" width="34" height="34" as="geometry" />
        </mxCell>
        <mxCell id="473zDxLhcldlXg5GOI97-9" value="&lt;font style=&quot;font-size: 14px&quot;&gt;&lt;span style=&quot;font-weight: bold&quot; lang=&quot;zh-CN&quot;&gt;Alfresco&lt;/span&gt;&lt;span style=&quot;font-weight: bold&quot; lang=&quot;en-US&quot;&gt; Server&amp;nbsp;&lt;/span&gt;&lt;b&gt;&lt;font style=&quot;font-size: 14px&quot;&gt;IP:173.20.15.205&lt;/font&gt;&lt;/b&gt;&lt;/font&gt;" style="sketch=0;pointerEvents=1;shadow=0;dashed=0;html=1;strokeColor=none;fillColor=#005F4B;labelPosition=center;verticalLabelPosition=bottom;verticalAlign=top;align=center;outlineConnect=0;shape=mxgraph.veeam2.linux_vm;fontSize=16;fontColor=#000000;" vertex="1" parent="1">
          <mxGeometry x="560" y="520" width="58" height="56" as="geometry" />
        </mxCell>
        <mxCell id="473zDxLhcldlXg5GOI97-12" value="CI Server" style="rounded=1;whiteSpace=wrap;html=1;shadow=0;comic=0;strokeColor=#036897;strokeWidth=2;fillColor=none;fontFamily=Verdana;fontSize=28;fontColor=#6881B3;align=center;arcSize=11;verticalAlign=top;" vertex="1" parent="1">
          <mxGeometry x="430" y="67" width="390" height="328" as="geometry" />
        </mxCell>
        <mxCell id="473zDxLhcldlXg5GOI97-13" style="edgeStyle=orthogonalEdgeStyle;rounded=0;orthogonalLoop=1;jettySize=auto;html=1;exitX=1;exitY=0.5;exitDx=0;exitDy=0;entryX=0;entryY=0.25;entryDx=0;entryDy=0;fontSize=20;strokeWidth=2;" edge="1" parent="1" source="473zDxLhcldlXg5GOI97-14" target="473zDxLhcldlXg5GOI97-12">
          <mxGeometry relative="1" as="geometry" />
        </mxCell>
        <mxCell id="473zDxLhcldlXg5GOI97-21" style="edgeStyle=orthogonalEdgeStyle;rounded=0;orthogonalLoop=1;jettySize=auto;html=1;exitX=0.5;exitY=1;exitDx=0;exitDy=0;entryX=0.55;entryY=0;entryDx=0;entryDy=0;entryPerimeter=0;fontSize=16;fontColor=#000000;strokeWidth=2;endArrow=none;endFill=0;" edge="1" parent="1" source="473zDxLhcldlXg5GOI97-14" target="7c3789c024ecab99-30">
          <mxGeometry relative="1" as="geometry" />
        </mxCell>
        <mxCell id="473zDxLhcldlXg5GOI97-14" value="&lt;b style=&quot;font-size: 16px&quot;&gt;CI Server IP:173.20.15.22&lt;/b&gt;" style="image;html=1;image=img/lib/clip_art/computers/Monitor_Tower_128x128.png" vertex="1" parent="1">
          <mxGeometry x="170" y="94" width="130" height="110" as="geometry" />
        </mxCell>
        <mxCell id="473zDxLhcldlXg5GOI97-16" value="&lt;font size=&quot;1&quot;&gt;&lt;b style=&quot;font-size: 14px&quot;&gt;Ubuntu12.04&lt;/b&gt;&lt;/font&gt;" style="sketch=0;pointerEvents=1;shadow=0;dashed=0;html=1;strokeColor=none;fillColor=#DF8C42;labelPosition=center;verticalLabelPosition=bottom;verticalAlign=top;align=center;outlineConnect=0;shape=mxgraph.veeam2.linux;fontSize=20;" vertex="1" parent="1">
          <mxGeometry x="130" y="132" width="34" height="34" as="geometry" />
        </mxCell>
        <mxCell id="473zDxLhcldlXg5GOI97-17" value="&lt;b&gt;&lt;font style=&quot;font-size: 14px&quot;&gt;&lt;span lang=&quot;en-US&quot;&gt;JenkinsServer&amp;nbsp;&lt;/span&gt;&lt;/font&gt;&lt;span lang=&quot;en-US&quot;&gt;&amp;nbsp;&lt;/span&gt;&lt;a href=&quot;http://173.20.15.106:8082&quot;&gt;http://173.20.15.106:8082&lt;/a&gt;&lt;/b&gt;" style="sketch=0;pointerEvents=1;shadow=0;dashed=0;html=1;strokeColor=none;fillColor=#005F4B;labelPosition=center;verticalLabelPosition=bottom;verticalAlign=top;align=center;outlineConnect=0;shape=mxgraph.veeam2.linux_vm;fontSize=16;fontColor=#000000;" vertex="1" parent="1">
          <mxGeometry x="560" y="125" width="58" height="56" as="geometry" />
        </mxCell>
        <mxCell id="473zDxLhcldlXg5GOI97-20" value="" style="endArrow=none;html=1;rounded=0;fontSize=16;fontColor=#000000;exitX=0.5;exitY=0;exitDx=0;exitDy=0;strokeWidth=2;" edge="1" parent="1" source="473zDxLhcldlXg5GOI97-3">
          <mxGeometry width="50" height="50" relative="1" as="geometry">
            <mxPoint x="180" y="460" as="sourcePoint" />
            <mxPoint x="230" y="410" as="targetPoint" />
          </mxGeometry>
        </mxCell>
        <mxCell id="473zDxLhcldlXg5GOI97-24" value="&lt;b&gt;&lt;font style=&quot;font-size: 14px&quot;&gt;&lt;span lang=&quot;en-US&quot;&gt;&amp;nbsp; &amp;nbsp; &amp;nbsp; &amp;nbsp; &amp;nbsp;SnoarQube Server&amp;nbsp;&lt;/span&gt;&lt;/font&gt;&lt;span lang=&quot;en-US&quot;&gt;&amp;nbsp;&lt;/span&gt;&lt;a href=&quot;http://173.20.15.106:8082&quot;&gt;http://173.20.15.106:8082&lt;/a&gt;&lt;/b&gt;" style="sketch=0;pointerEvents=1;shadow=0;dashed=0;html=1;strokeColor=none;fillColor=#005F4B;labelPosition=center;verticalLabelPosition=bottom;verticalAlign=top;align=center;outlineConnect=0;shape=mxgraph.veeam2.linux_vm;fontSize=16;fontColor=#000000;" vertex="1" parent="1">
          <mxGeometry x="560" y="251.5" width="58" height="56" as="geometry" />
        </mxCell>
        <mxCell id="473zDxLhcldlXg5GOI97-27" value="" style="shape=image;verticalLabelPosition=bottom;labelBackgroundColor=#ffffff;verticalAlign=top;aspect=fixed;imageAspect=0;image=data:image/jpeg,/9j/4AAQSkZJRgABAQEASABIAAD/4QAiRXhpZgAATU0AKgAAAAgAAQESAAMAAAABAAEAAAAAAAD/4gxYSUNDX1BST0ZJTEUAAQEAAAxITGlubwIQAABtbnRyUkdCIFhZWiAHzgACAAkABgAxAABhY3NwTVNGVAAAAABJRUMgc1JHQgAAAAAAAAAAAAAAAQAA9tYAAQAAAADTLUhQICAAAAAAAAAAAAAAAAAAAAAAAAAAAAAAAAAAAAAAAAAAAAAAAAAAAAAAAAAAAAAAABFjcHJ0AAABUAAAADNkZXNjAAABhAAAAGx3dHB0AAAB8AAAABRia3B0AAACBAAAABRyWFlaAAACGAAAABRnWFlaAAACLAAAABRiWFlaAAACQAAAABRkbW5kAAACVAAAAHBkbWRkAAACxAAAAIh2dWVkAAADTAAAAIZ2aWV3AAAD1AAAACRsdW1pAAAD+AAAABRtZWFzAAAEDAAAACR0ZWNoAAAEMAAAAAxyVFJDAAAEPAAACAxnVFJDAAAEPAAACAxiVFJDAAAEPAAACAx0ZXh0AAAAAENvcHlyaWdodCAoYykgMTk5OCBIZXdsZXR0LVBhY2thcmQgQ29tcGFueQAAZGVzYwAAAAAAAAASc1JHQiBJRUM2MTk2Ni0yLjEAAAAAAAAAAAAAABJzUkdCIElFQzYxOTY2LTIuMQAAAAAAAAAAAAAAAAAAAAAAAAAAAAAAAAAAAAAAAAAAAAAAAAAAAAAAAAAAAAAAAAAAWFlaIAAAAAAAAPNRAAEAAAABFsxYWVogAAAAAAAAAAAAAAAAAAAAAFhZWiAAAAAAAABvogAAOPUAAAOQWFlaIAAAAAAAAGKZAAC3hQAAGNpYWVogAAAAAAAAJKAAAA+EAAC2z2Rlc2MAAAAAAAAAFklFQyBodHRwOi8vd3d3LmllYy5jaAAAAAAAAAAAAAAAFklFQyBodHRwOi8vd3d3LmllYy5jaAAAAAAAAAAAAAAAAAAAAAAAAAAAAAAAAAAAAAAAAAAAAAAAAAAAAAAAAAAAAABkZXNjAAAAAAAAAC5JRUMgNjE5NjYtMi4xIERlZmF1bHQgUkdCIGNvbG91ciBzcGFjZSAtIHNSR0IAAAAAAAAAAAAAAC5JRUMgNjE5NjYtMi4xIERlZmF1bHQgUkdCIGNvbG91ciBzcGFjZSAtIHNSR0IAAAAAAAAAAAAAAAAAAAAAAAAAAAAAZGVzYwAAAAAAAAAsUmVmZXJlbmNlIFZpZXdpbmcgQ29uZGl0aW9uIGluIElFQzYxOTY2LTIuMQAAAAAAAAAAAAAALFJlZmVyZW5jZSBWaWV3aW5nIENvbmRpdGlvbiBpbiBJRUM2MTk2Ni0yLjEAAAAAAAAAAAAAAAAAAAAAAAAAAAAAAAAAAHZpZXcAAAAAABOk/gAUXy4AEM8UAAPtzAAEEwsAA1yeAAAAAVhZWiAAAAAAAEwJVgBQAAAAVx/nbWVhcwAAAAAAAAABAAAAAAAAAAAAAAAAAAAAAAAAAo8AAAACc2lnIAAAAABDUlQgY3VydgAAAAAAAAQAAAAABQAKAA8AFAAZAB4AIwAoAC0AMgA3ADsAQABFAEoATwBUAFkAXgBjAGgAbQByAHcAfACBAIYAiwCQAJUAmgCfAKQAqQCuALIAtwC8AMEAxgDLANAA1QDbAOAA5QDrAPAA9gD7AQEBBwENARMBGQEfASUBKwEyATgBPgFFAUwBUgFZAWABZwFuAXUBfAGDAYsBkgGaAaEBqQGxAbkBwQHJAdEB2QHhAekB8gH6AgMCDAIUAh0CJgIvAjgCQQJLAlQCXQJnAnECegKEAo4CmAKiAqwCtgLBAssC1QLgAusC9QMAAwsDFgMhAy0DOANDA08DWgNmA3IDfgOKA5YDogOuA7oDxwPTA+AD7AP5BAYEEwQgBC0EOwRIBFUEYwRxBH4EjASaBKgEtgTEBNME4QTwBP4FDQUcBSsFOgVJBVgFZwV3BYYFlgWmBbUFxQXVBeUF9gYGBhYGJwY3BkgGWQZqBnsGjAadBq8GwAbRBuMG9QcHBxkHKwc9B08HYQd0B4YHmQesB78H0gflB/gICwgfCDIIRghaCG4IggiWCKoIvgjSCOcI+wkQCSUJOglPCWQJeQmPCaQJugnPCeUJ+woRCicKPQpUCmoKgQqYCq4KxQrcCvMLCwsiCzkLUQtpC4ALmAuwC8gL4Qv5DBIMKgxDDFwMdQyODKcMwAzZDPMNDQ0mDUANWg10DY4NqQ3DDd4N+A4TDi4OSQ5kDn8Omw62DtIO7g8JDyUPQQ9eD3oPlg+zD88P7BAJECYQQxBhEH4QmxC5ENcQ9RETETERTxFtEYwRqhHJEegSBxImEkUSZBKEEqMSwxLjEwMTIxNDE2MTgxOkE8UT5RQGFCcUSRRqFIsUrRTOFPAVEhU0FVYVeBWbFb0V4BYDFiYWSRZsFo8WshbWFvoXHRdBF2UXiReuF9IX9xgbGEAYZRiKGK8Y1Rj6GSAZRRlrGZEZtxndGgQaKhpRGncanhrFGuwbFBs7G2MbihuyG9ocAhwqHFIcexyjHMwc9R0eHUcdcB2ZHcMd7B4WHkAeah6UHr4e6R8THz4faR+UH78f6iAVIEEgbCCYIMQg8CEcIUghdSGhIc4h+yInIlUigiKvIt0jCiM4I2YjlCPCI/AkHyRNJHwkqyTaJQklOCVoJZclxyX3JicmVyaHJrcm6CcYJ0kneierJ9woDSg/KHEooijUKQYpOClrKZ0p0CoCKjUqaCqbKs8rAis2K2krnSvRLAUsOSxuLKIs1y0MLUEtdi2rLeEuFi5MLoIuty7uLyQvWi+RL8cv/jA1MGwwpDDbMRIxSjGCMbox8jIqMmMymzLUMw0zRjN/M7gz8TQrNGU0njTYNRM1TTWHNcI1/TY3NnI2rjbpNyQ3YDecN9c4FDhQOIw4yDkFOUI5fzm8Ofk6Njp0OrI67zstO2s7qjvoPCc8ZTykPOM9Ij1hPaE94D4gPmA+oD7gPyE/YT+iP+JAI0BkQKZA50EpQWpBrEHuQjBCckK1QvdDOkN9Q8BEA0RHRIpEzkUSRVVFmkXeRiJGZ0arRvBHNUd7R8BIBUhLSJFI10kdSWNJqUnwSjdKfUrESwxLU0uaS+JMKkxyTLpNAk1KTZNN3E4lTm5Ot08AT0lPk0/dUCdQcVC7UQZRUFGbUeZSMVJ8UsdTE1NfU6pT9lRCVI9U21UoVXVVwlYPVlxWqVb3V0RXklfgWC9YfVjLWRpZaVm4WgdaVlqmWvVbRVuVW+VcNVyGXNZdJ114XcleGl5sXr1fD19hX7NgBWBXYKpg/GFPYaJh9WJJYpxi8GNDY5dj62RAZJRk6WU9ZZJl52Y9ZpJm6Gc9Z5Nn6Wg/aJZo7GlDaZpp8WpIap9q92tPa6dr/2xXbK9tCG1gbbluEm5rbsRvHm94b9FwK3CGcOBxOnGVcfByS3KmcwFzXXO4dBR0cHTMdSh1hXXhdj52m3b4d1Z3s3gReG54zHkqeYl553pGeqV7BHtje8J8IXyBfOF9QX2hfgF+Yn7CfyN/hH/lgEeAqIEKgWuBzYIwgpKC9INXg7qEHYSAhOOFR4Wrhg6GcobXhzuHn4gEiGmIzokziZmJ/opkisqLMIuWi/yMY4zKjTGNmI3/jmaOzo82j56QBpBukNaRP5GokhGSepLjk02TtpQglIqU9JVflcmWNJaflwqXdZfgmEyYuJkkmZCZ/JpomtWbQpuvnByciZz3nWSd0p5Anq6fHZ+Ln/qgaaDYoUehtqImopajBqN2o+akVqTHpTilqaYapoum/adup+CoUqjEqTepqaocqo+rAqt1q+msXKzQrUStuK4trqGvFq+LsACwdbDqsWCx1rJLssKzOLOutCW0nLUTtYq2AbZ5tvC3aLfguFm40blKucK6O7q1uy67p7whvJu9Fb2Pvgq+hL7/v3q/9cBwwOzBZ8Hjwl/C28NYw9TEUcTOxUvFyMZGxsPHQce/yD3IvMk6ybnKOMq3yzbLtsw1zLXNNc21zjbOts83z7jQOdC60TzRvtI/0sHTRNPG1EnUy9VO1dHWVdbY11zX4Nhk2OjZbNnx2nba+9uA3AXcit0Q3ZbeHN6i3ynfr+A24L3hROHM4lPi2+Nj4+vkc+T85YTmDeaW5x/nqegy6LzpRunQ6lvq5etw6/vshu0R7ZzuKO6070DvzPBY8OXxcvH/8ozzGfOn9DT0wvVQ9d72bfb794r4Gfio+Tj5x/pX+uf7d/wH/Jj9Kf26/kv+3P9t////2wBDAAIBAQIBAQICAgICAgICAwUDAwMDAwYEBAMFBwYHBwcGBwcICQsJCAgKCAcHCg0KCgsMDAwMBwkODw0MDgsMDAz/2wBDAQICAgMDAwYDAwYMCAcIDAwMDAwMDAwMDAwMDAwMDAwMDAwMDAwMDAwMDAwMDAwMDAwMDAwMDAwMDAwMDAwMDAz/wAARCAFcA40DASIAAhEBAxEB/8QAHwAAAQUBAQEBAQEAAAAAAAAAAAECAwQFBgcICQoL/8QAtRAAAgEDAwIEAwUFBAQAAAF9AQIDAAQRBRIhMUEGE1FhByJxFDKBkaEII0KxwRVS0fAkM2JyggkKFhcYGRolJicoKSo0NTY3ODk6Q0RFRkdISUpTVFVWV1hZWmNkZWZnaGlqc3R1dnd4eXqDhIWGh4iJipKTlJWWl5iZmqKjpKWmp6ipqrKztLW2t7i5usLDxMXGx8jJytLT1NXW19jZ2uHi4+Tl5ufo6erx8vP09fb3+Pn6/8QAHwEAAwEBAQEBAQEBAQAAAAAAAAECAwQFBgcICQoL/8QAtREAAgECBAQDBAcFBAQAAQJ3AAECAxEEBSExBhJBUQdhcRMiMoEIFEKRobHBCSMzUvAVYnLRChYkNOEl8RcYGRomJygpKjU2Nzg5OkNERUZHSElKU1RVVldYWVpjZGVmZ2hpanN0dXZ3eHl6goOEhYaHiImKkpOUlZaXmJmaoqOkpaanqKmqsrO0tba3uLm6wsPExcbHyMnK0tPU1dbX2Nna4uPk5ebn6Onq8vP09fb3+Pn6/9oADAMBAAIRAxEAPwD9/KKKKACiiigAooooAKKKKACiiigAooooAKKKKACiiigAooooAKKKKACiiigAooooAKKKKACiiigAooooAKKKKACiiigAooooAKKKKACiiigAooooAKKKKACiiigAooooAKKKKACiiigAooooAKKKKACiiigAooooAKKKKACiiigAooooAKKKKACiiigAooooAKKKKACiiigAooooAKKKKACiiigAooooAKKKKACiiigAooooAKKKKACiiigAooooAKKKKACiiigAooooAKKKKACiiigAooooAKKKKACiiigAooooAKKKKACiiigAooooAKKKKACiiigAooooAKKKKACiiigAooooAKKKKACiiigAooooAKKKKACiiigAooooAKKKKACiiigAooooAKKKKACiiigAooooAKKKKACiiigAooooAKKKKACiiigAooooAKKKKACiiigAooooAKKKKACiiigAooooAKKKKACiiigAooooAKKKKACiiigAooooAKKKKACiiigAooooAKKKKACiiigAooooAKKKKACiiigAooooAKKKKACiiigAooooAKKKKACiiigAooooAKKKKACiiigAooooAKKKKACiiigAooooAKKKKACiiigAooooAKKKKACiiigAooooAKKKKACiiigAooooAKKKKACiiigAooooAKKKKACiiigAooooAKKKKACiiigAooooAKKKKACiiigAooooAKKKKACiiigAooooAKKKKACiiigAooooAKKKKACiiigAooooAKKKKACiiigAooooAKKKKACiiigAooooAKKKKACiiigAooooAKKKKACiiigAooooAKKKKACiiigAooooAKKKKACiiigAooooAKKKKACiiigAooooAKKKKACiiigAooooAKKKKACiiigAooooAKKKKACiiigAooooAKKKKACiiigAooooAKKKKACiiigAooooAKKKKACiiigAooooAKKKKACiiigAooooAKKKKACiiigAooooAKKKKACiiigAooooAKKKKACiiigAooooAKKKKACiiigAooooAKKKKACiiigAooooAKKKKACiiigAooooAKKKKACiiigAooooAKKKKACiiigAooooAKKKKACiiigAooooAKKKKACignFIGov0AWim76N9AbjqKRW3UtABRTXl2Oq4Y7vTtTVulK55/KiweZJRUYuVOOvJxmnCVW/DinZg3bRjqKAc0UgCiiigAooooAKKKKACiiigAooooAKKKKACiiigAooooAKKKKACiiigAooooAKKKKACiiigAooooAKKKKACiiigAooooAKKKKACiiigAooooAKKKKACiiigAooooAKKKKACiiigAooooAKKKKACiiigAooooAKKKKACiiigAooooAKKKKACiiigAooooAKKKKACiiigAooooAKKKKACiiigAooooAKKKKACiiigAooooAKKKKACiiigAopC2KTzeaLgOopnnqTjqRwcdqDNg/dNAD6KZ5wx0b6Yo831Vh9cc0XvoA+imedz91qUyACgNh1FN84H1pQ+aLMlST2GTOA38We2O9ZcfjPSpNcfTVvrdr6MZMIcbsVX+I/idvBvhW+1JIZriS3hYpHGu5i3bivzl1vx9rWoeNLrWFury11C5mZxJkqyc/cwfz/Gu7B4RV7pux5uOzCnhmrxb7n6aI+4dCPrThzXxD8Mv28PEXhlIYNYWHUIY/laQt84A7Eev+NfSHwj/an8LfFS2Rbe8WzvGGWt58KwPp1rOrg6tN2a+YYbNaNd2i7HqEfC06q9tdb41bBYNyCMYqRLlXDfe+U4NcstNz1OWyG3U62qtI7bVVck+gr41/aK/bK1p/iI1r4ZvJLSy0eQrIQq/vXGcggnpjFfZEyfah1wvQgjrXiv7QH7HGj/ABUSS70+ODTdWVMiVIuJTknDfnXXg1QjO9Y8zNKdSdD9zuY/wC/besfHv2bTfEKx2GqMuPNyvlSehznr14xX0BbXSywqwber/dI/iHtX5q/Ez4M658K71odVs5F+b5XVdiHnhwfw/SvVP2fP21Lv4aW8WmeIJGvNL3CNJiS0kI4GO3A6/jXfisApx9rQ2Z5mFzSVOp7HEbn27C+4NwRtOOafWP4Q8W6f4s0O3vNOuEurWdQySI2d31961llDmvF5eX3WfSxkpLmjsOooBzRQMKKKKACiiigAooooAKKKKACiiigAooooAKKKKACiiigAooooAKKKKACiiigAooooAKKKKACiiigAooooAKKKKACiiigAooooAKKKKACiiigAooooAKKKKACiiigAooooAKKKKACiiigAooooAKKKKACiiigAooooAKKKKACiiigAooooAKKKKACiiigAooooAKKKKACiiigAooooAKKKKACiiigAooooAKKKKACiiigAooooAa/WoZn/AIV+91qZlyajeFmBwetT9q4pRumj4U/aS+NHiLSfjPrVvpus3kMMMm3y4ptuB9PWuO0v9prxtpcyvDr18dox87b8fWvtbxT+yb4L8Y6rdXl9pSTXF0dzvvIOa5ef9gbwhLna1xEvZV7V9BRzDDxgoyjdnytfKcZKo5RnofO+ifttePNLnEkl8t8qgtscBeld94T/AOCjeoWwkXXtJsdowyvFIWPQdRxXUeKf+CcGh6gd1hrF1ZHyyu0xBsk985rhfFP/AATu8Q2s3/Erv7O8hVASXXYxPTHT2FOVbAVNXGzJVHNKKtB3PWfCX7ePgvXWgS4mudMab7zyxfu89+QSf0r1Dwl8WfDvji3WTTNWs7reMhQ+1j+BxXwZ4q/Zm8aeEJGa40fUmSMn96hDqF9vauJW9vPD2oSRwtfRTQnOd7IU+uQKX9m0qq/dMcM4xNF2rw1P1KWVW6H06e9EUwdfusvXk4r8+fAP7X3jTwJHHH/aC30KsG2Tt8u0ds9a99+FH7fmh680NvryppcrNtMoO6I55znOe/p2riq5TVpXa1PUw+c0atk9GfQ8my6iKsquucMGGc1w/j79m7wj8RVb+0NHtzIylRJGPLZPcY7811Gg+L9N8UWvnabfW99E3KmNgf0rSV8r0/DvXnRqVKcux6Eo0qqtJXPjn4p/8E+NQ0P994bvFvIVBLwOD5oGSRtOMfma8H1rw1q3w/1Y/brW7sbqA7hvJXPOAc/h+lfp8H3qfyxXN+OvhNofxIsvs+q2FvcqRjcVwyj2Nexh8ya0qq54+JyeE1zUZWfQ+M/g1+2l4k8B3kcepP8A2tpTHDLJkmLoMLjv/jX138Lvjz4d+KGnxtY3qLcMObaUbJE9iK+bvj1+wjeeG2a+8Nq19Y8tLbLHumQdtvIH5mvAdO1G+8Fav5kNxdadqNqTvBJDZXsR9MdOK7J4ehi1zQ0Z51PF4vAvlrJyR+okcm6juSpzxjHvXzD+zf8AttLq9xFpPix7e1ZYyYrsnhsAYDe/NfS9hqUd9aJNHIJo5QGjdcbXBGQRXh1sPOlLlkj6PC42niYqUDG8efDXSviToc1hqtrDcRyKfmY/NGfUGvh/4+fsv658Ib+4u4d11o6kmJ1TcI1JPDZA9O2etff5ZmPovRs9aqavodv4h06azvIY7i1lUKY3GQfrWuFxU6T11RnjMvp14tbSR8B/s5/tG6p8E9aiVy93okx+eB2+VAerLznPHTpxX3V8NviVpfxL8OR6lpk/mwSfwsAHjOBwR+P618d/td/sxTfDHxCdY0m3M2i3PzMirn7OecgnsOn51w/wF+OGpfBTxPbXUE0zabO2J4ZH3IV9QPX/AAr1MRh6WLp+0pbniYfGVMHNUqx+j0b+YgYdKdXP+APiDp3j/wALQapp8vnW8wHQcqeMgj15reWbLEeleBKEoPlkfV05KceeOw6igHIoqSgooooAKKKKACiiigAooooAKKKKACiiigAooooAKKKKACiiigAooooAKKKKACiiigAooooAKKKKACiiigAooooAKKKKACiiigAooooAKKKKACiiigAooooAKKKKACiiigAooooAKKKKACiiigAooooAKKKKACiiigAooooAKKKKACiiigAooooAKKKKACiiigAooooAKKKKACiiigAooooAKKKKACiiigAooooAKKKKACiiigAooooAaUy26mvbh5dxCnjHIzUlFAFf7Lwyv5cityMjp7Yrl/F3wU8M+NYQuo6PY3DdGITyyR9R9a68rmk2Y7VUZOOqbM6lNS3SPmz4gf8ABPbR74vN4fujZM8qOYJEDIqgncAevPHGO1fP/wAS/wBl7xZ8Md8lxp8lxb7mVZoogy7NxI49cV+h8tuXk3ALyMEGo201ZomjlSOSMjADfNx9K7qOZVKdk9UeTicmoVru1mfmf4E+KPiH4cakz6XeXNrJC3zKX+nVSelfSvwd/b/tbuSGx8VQLayZ/wCPpBuDjjk49813vxl/Yt8NfEzzLm3jj0nUmXaJ4Y87+ScEenNfK/xU/Zb8T/CSZZJoGmst7YuLcEoBjHzjHHTtmvSVTDYpcrsmeT7PHYF+47xPvrw14r0/xdpkd5pt1HeWsw3JIh4I9a0kfI/ka/N34T/HjXvg7fw/2feTfZYmJNtO+5SO+e4+mK+vvgJ+15ofxjRLeW4jsdUPHkP8u/p93PvmvNr5bUp3nHVHr4HN6db3KllI9hkQXC85OO2ev1ryz4y/sp+HfipHJP8AZY7HVGjZUuYl79t34969St5llJCfNzzjsakI7cH1rlpVpwd0d9bDxqxtNH5t/GH4G6x8JddmivrZp7PchWZc7WAyCQSBzwK7P9nj9rrUvhffQ2Oq3X2nRc7THJkiEE4BB9gB7V9p+PPh1pnxH0SbT9Uto7m3lTaN3DJ7g18VftEfsrah8FZft2mtNqGjux3kR7jCuTw2ew9fevaoYqjXj7Oro/zPmsRl9bCz9rR+H8j7d8K+L7HxfokN9p8y3FrIARIhBA4z9e9akcm/+h9a/O74A/tDap8GvE6SJcNcaXM376B2Pl46Er+Xt0r7x+G3xF0n4keGYdS0u4SWGQbmQH5ojjlSP89a83F4GVB3WzPcy3MoYiFnujW1rRbfxBYTWd5Clxa3CbHjcZBr4q/au/ZWn+Fd5Jq2jrJNo87bnjEe7yM5yM9hX28reZhl+6f1qh4l8O23i7RbrT7xPMtrtDG4Pb6VnhcTKjPTYMbgoYmnZ6S6HwP+zT+0Xe/BbxTbrcXjyaHM4SZJCWCA8bl+n9K++9C1611/SILyymW4tbhQ8cqnKuDzn/PpXwF+0l+z7d/A3xVmNmOl3TN5UxTcqgk/Kf8APevQv2Kv2ml8J6hF4X1678vT5gxtZJR9wgD5T6Z7fWvUxlGNaCrU/meVluJnhan1eu/S59lwNuB+tPqva3CC3UrlkPIYfxAgEEfnUyShx3/GvC3eh9PzK9h1FFFIYUUUUAFFFFABRRRQAUUUUAFFFFABRRRQAUUUUAFFFFABRRRQAUUUUAFFFFABRRRQAUUUUAFFFFABRRRQAUUUUAFFFFABRRRQAUUUUAFFFFABRRRQAUUUUAFFFFABRRRQAUUUUAFFFFABRRRQAUUUUAFFFFABRRRQAUUUUAFFFFABRRRQAUUUUAFFFFABRRRQAUUUUAFFFFAEdxdLbKzMrbVxk8YGf8KyV+JPh5i3/E90f5SR/wAfsXb/AIFWb8dHZfg94n2O8brpk+1lOCD5bYr+H/4x/GvxlB8W/FEcfi7xQix6tdoANVmxxM/TDCgD+5a18eaLfXUcNvqun3E0pwiRXKSM59AAc1qLJuHRuuORiv5AP+CAXxY8V6z/AMFS/hvFeeJvEF9b/aH3Q3GoSyxsOBypbHev6zfA/wARU8U6vcW8LRMtrM8J2eqnnPJ5/wDrUAdoDkUUitu/+vS0AFFFFABRRRQAUUUUAFFFFABRRRQAUUUUAFFFFAEcq5P97jgH1qve6Wmp2himjikjfh0cblI/GrTKS1G0gUa9CZxi1qfNP7Q37Dtr4kmvNW8NeXa6hN+8a3K/IT3wcE8jtjtXyprfh3XPh54njhure6024t3JRz8pb0Kn6g8V+nrW25t38WMZrifjF8B9B+MOk/Z9UtoxIgPlypwynsc16mFzBwtCeqPDxmTqpedLRnz7+zR+24dPNronixxLvOxb08GPphW/nn3r6w0vVoNW0+O4t5EkgmGY3U5Vx2Ir87vjZ+z9rXwY1uZbiNpNPUkR3W0su3JwOnX3rrf2cP2u9S+GE1ppuoBLrQywVpWYkxZ47+gxXVisAqsfbUtmceDzGph5LD4jppc+62DOvoe+aqaxodvr2mzWd3DHNbXCFJVbuKj8N+KLHxPpMN5YzRz2twoaORG3KwNaCybmP+HWvClBrysfTRlGpF21R8M/tUfslXvwu1BtW0nzLjRJCWdVXcbfJPBGOnTv3rj/AIA/tA6h8EPEkclvObjTpGCzxMDtYHqVHqPfFfoZq+k2/iCwmtLqFJ7WZCjowzmvh39qj9nGb4O64mo2L79IunZvKVM+WWyCOnYAV7+DxcK1L2Nbfv3Pl8ywM6NRYjDbLdH2r4L8ZWPjfw/a6hp8yy29woPBHyHGcH8610OS3uMEelfCH7J/7Qtx8KfFEOk3lx5uj3jiNtx5jz3HbivunS9Rh1WzW4t5Fmik5V1OQ4x1FeRiqDpTa6dD28vzGOKjdI5n4v8AwztfiX4IvNMuFVnljPlSsuTGw5Ffnf4w8O33gDxZcWNwrW01vOG3qm5nAPUZxzxX6egeZ/XNfOv7bnwJ/t/w63iSxG3ULMZmSNN25ecmuvL8Z7N+znszhzfL3VXtYbo6X9jr43L8T/hxFbX0yNqmlr5cuD/rU42v+uPqtezIQAa/Nf4E/Fa4+Enj6x1WG4ZrW3YxzbgQsycZUj1GSR9a/Rrw3rUPiHRbe8t38y3uEWSN8/eVgD/XH4VnmVFU6nPBaM3ynGOrS5J/EjQjbctOpsfAp1eeevG9tQooooGFFFFABRRRQAUUUUAFFFFABRRQTxQAUU3zPZh+FKGyKAFooVt3SigAooooAKKKKACims+09Cab56jqGB9MUASUU1Zdw6MPqKcDmgAooooAKKKKACiiigAooooAKKC2DTTMqnv+VADqKajiQfLTqACiiigAooooAKKb5n+y35UeZ/st+VADqKFbcO/40A5oAKKKKACiiigAooooAKKKKACiiigAooooAKKKKACimtLtfb+OcikNxGrYLqD7mgB9FN85T0+YeoIxQkokXK8/Q5oAdRQDkdMUUAFFFFABRRRQAUUUUAFFFFABRRRQAUUUUAcl8c/+SQeJ/wDsGTf+gNX8LXxo/wCSxeLP+wzef+j3r+6X45/8kg8T/wDYMm/9Aav4WvjR/wAli8Wf9hm8/wDR70AfVf8Awb9tj/gqb8OfmZf3rjj3xX9Sn7I980vi3WFYnP8AaVyD7nfX8tX/AAb+/wDKUz4c/wDXdv6V/Ud+yKceMddb/nnqdyT/AN/DQB9Mg5z9aWmb9o6Fs84FILlCfvbcevFAElFRi5jP8S/XNOSRZR8rK3bg5oAdRRRQAUUUUAFFFNZ9rfdb6igB1FM89QeTt+vFILmNujqfoaAJKKakgkHy/TrTg2788UAFFFFABRRRQAUx42eQcjZjDKafRQBg+L/Bdl420SbTdSjjmhmQgZXds68j3r4V/aS/Zr1X4Na215CjXOkyj5JVXITJOVYY7DBzz1r9BXQu3bGKyvFnhC08aaJcadqEKXFtdIUYN/D7j3rswuLlRlrqjz8fgIYiG3vHwv8Asz/tO3PwW1T7NezGTQWIVgxLeWDjkV90eE/E9j4t0G21DT7iO6s7pA8UiHO4Gvg39pH9nDUPgb4ka4gD3GizCTy5FXdtHdWBwAfpnrXRfsgftQn4Y6lb6BqkzNpMjgRMBnyy2PXGFH+NerisLCvT9tS+Z4eX4yeGqfV6+h9xK3ynb61keNvB9l430KbTtQt45ra4Uqdw5Q+orQsr6G9gSS3kEsU3zK6/dYY7U/lnPcdCK+c9o4Suj6apyyhydD86Pj98G7j4MeOHtWhc2chkmtZOeR0/Pjiva/2HP2hpFjj8Japc/wCsGbR3PzKcD5WP+Gea9i/aZ+CEPxl8FyQ7VGoWY821kPGMclTx37V8FwG/8DeIhv3Wuo6fOC3YqwY4z3xgCvpKNSOKoWktUfJ16c8DiOaHws/UOGTcucbW71DqVut9BJDIqtDIpR1IzuB4rg/2cPjNa/GL4eW98HX7dGNl1GOqsoAz+PFegg7yDt+8Oc9a+flFwl72jR9VTqRrU7x1TPgv41/s4atYfHGTR9Dhkkj1CVfJ2x/LFGzNuJ7fzr7E+Avw8uPhb8NbHRrq9e+nts7pG/hzj5R7D+tdQ+jwXF8t0YIWmTgSEfMB9atJCyLjdmtsRjJTilY5cHl6o1HUT3HR9KdTY1KjmnVznpXuFFFFABRRRQAUUUUAFFFFABUclwI5FXBZm6AYp0k6xfe9v14FfnH/AMFo/wDg4H8Cf8EyrCXwvoJh8WfFS7ixHpSS/utLBLASTnnacqeBk8DigD9DtX8U2GgWDXV9dW9nBHkO80qRqmOuSxA/Wvnn4xf8Fg/2a/gVfSWniT4weD7G8i+9b/at7jkjsMdQe/av5RP2zf8Agsj8fv24dYnbxh4+1pdKeQ+XpljMbaCBMkhAVwWxk8kV8xalq9xqt15tzcTXTf3pm3P/AN9HJoA/ro8Sf8HNP7I+gXbRj4iW99t43wREqfpU3hX/AIOYf2RvEcvlt8SbOwJOP9IjKj881/IQ8q7s7e2MHH+FKsilPutnPqMfligD+2D4Tf8ABYX9mn413q2vhz4weD766cZ8r7VsYfXcAP1r37w/4+0XxZYLdaXqdlqVs2NstpMs6tnp90mv4KbbVJrB91vLJC396P8Adt+a4r2z9mv/AIKT/G/9lHW4bvwP8RfEmltG6kQtdtJA2OgKMSO3WgD+4BZAy56fUUnnZcDa2D/Fxgf1r4+/4JB/tsa9+1P+wN4D8beOprY+JNbRkmkiDH7UwIG7pwfUemK+qte8Xaf4W8O3WsapdQabp9jCZ7i5lwqxRrkkknoOtAGsbtQV4b5umBXG/E/9pDwJ8FdPe68WeKtE0CGPlzd3Sqy/UAk1+F//AAWJ/wCDre6tfEOo+A/2cZoVtbVmt73xWynMzAsCtuCclRxyQvJNfiX8Xf2o/iF8edfutU8WeMPEGtXl6xeVp7t9rEkn7oOMc0Af10/Ev/g4B/ZM+HFxJFc/F7w7dTR8FbYvIc/kK4BP+Dnb9kdrvym+ICtzjzBA6KK/kZZ/MBZvveyjn8aHdXVf9Zn3fj8sUAf2R+Av+DgT9knxvJHCnxj8N2M0zbUS7ldd3Tvivp34W/tGeBfjTYLceE/Feh+IIpFDqbK8SQsD7Zz+FfwfrJt29Mg9gP8ACu++EH7UvxB+AfiSDVvB/jDxFoN7bMGje2vGCrj/AGPu0Af3bLKGPRvqVxSq24V+An/BGH/g6muNc1/T/h7+0bfLGL1lt7PxaX4RyFVVnXjAJzyoY5PpX72eHvENj4j0a0vtPuob6zvolnguIGDRzoRwwPQ5FAF5plSQL3P6df8ACuX8XfHHwf4Bv1tdc8SaLpN0wDeTd3aRSYOMcE+9dBcTfaEHln5WUg5HfBx/I1/ML/wd3+J9S0L/AIKSWMdpqWoWkP8AYcZKQXDoudoK8AjuTQB/SN/w1N8OB/zO/hngkcahGehI7H2psn7Vfw3j/wCZ38M9M4/tCIZ6ep96/hff4ha87tv1rVXbJyTeS/8AxVTW3j7XPlLa5q0Q3gA/bJdvbOeSfSgD+8Twn480fx5pv2zRdSstWtN5TzrSZZkyM91J9Ksal4is9FsXur2eOzt40DtLO4jQA/7ROP1r8JP+CD3/AAU++Gf/AAT3/wCCROqeJvif4oY6lLrTmz0sTNLqGoYY7VjGeh75IGAa/OL/AIKd/wDBff40f8FC/FN9Z/23eeEvA/mt9l0TTZjCEQMwUuw5LFdufoKAP6W/jn/wWx/Zi/Z6vriz8RfFrwzHqNqcSWsEpmkXqOwx2PevINN/4Obf2SNY1U26/EUQqODLJblY/wA8mv5F7u9k1GZ5riWSaaQ5Z3O9mPqWJzUbPlVABHHPOc/pQB/bt+z1/wAFQ/gH+09Ktv4J+KHhfWrxmCm3S62SKT0yHA/TNe9JeLIwG1/mJAJHB+hr+CHw74x1HwjqEd1pd9eadcwsrpJaSGB8g5GSp7V++n/Btx/wcCar8RfFmm/Av4za5JcXd2v2fw3rd1JueSTACW7k9zg4POd3OKAP3tjm3pkqy+xxkflSPcpGwVuNxwOOtU9P1FJ2kXbh/MKthduT03H8RivLf27/ABbqHgr9jb4la1pN1Pp+pab4fu5ra4jO2SKQJ8pFAHoHiv4u+F/A0LSaxr+j6asZwxuLuOPb/wB9EV4b8Tf+Cvv7NfwiuGh174xeDLGdRkx/a/MbuP4QR2Nfxx/Fr9qb4j/FfxBfSeJvG/ijWJHmZmE+oyMuc+mentXn9xqMl8+64klm7nLc5+pzQB/X54r/AODkT9knwyz7fijpeobOMW6uSfpwB+tc/bf8HQP7JNzcLH/wnLJu/iaE7R+tfyOXMiyMNquOP4m3f0FHmbhwq9MdBz+lAH9i/hD/AIOIf2RfFD7ZPjF4d00k8fajIqn/AMdr3z4Qf8FBfgp8eFj/AOER+JnhLXDKcKIL5QT0P8WPUV/DarbF+Vfm9Tgj8sVqaD411XwrMsmmapqWnsuCGtrhoWU+oKmgD+9yC9juolkjZZI5BlXVgVYeoOelSJKsiblYMvYg9a/kN/4J9f8ABxl8e/2JvEum22oeJL7xt4Pt3Cy6Xqkm8qhwGKvgnOAMDpkV/Tx+wD/wUC8A/wDBQf4DWPjbwTqMM0TKiX9l5oabTZmUHy3Hb7wxjI560Ae9o+8Vi+M/iRoPw7ghl17WNO0iO4O2N7udYVc+gLEVrQ3KyxBlVtpJH5cV+K3/AAeaa1eaP+zl8PJrO8vLOQai3ME7R569cUAfrh/w1P8ADfJ/4rjwwcHHy6hGw/Q0f8NT/Df/AKHfw1/4HJ/jX8L7fEHXDHH/AMTnVGAXAzdSDHJ9Gpv/AAsDXP8AoL6p/wCBkv8A8VQB/d94M+Lfhn4jSzJoGuabrDW+PNFpcLJ5ec4zg+xrejufMTdtdRjdyO1fzyf8GbHiPVNY8YfFYTX19M3kwhDNcM6JhSSfmJAx3NfWX/BYP/g5e8F/sPWEngf4Vy6b48+JCRmK8uY5i1jpMgGDubu4xnAGORzQB+sGq+IrLQ7cTXt1BZwkZ8yeRY1/NiK5IftM/D9r5bVfGXhtrhnCGP8AtKHcuc8kbunBr+Nf9p7/AIK3/H/9rDWprnxZ8SfEU0NwxY2lpcm2gjByQoCntnqa8Jj+J/iCK6S4XXtc+0btxc3shbIOV5znrmgD+9S0ukvbWOaMho5VDowIIYHkEEcVIDmvAv2Y/iotj8FPhjpc0x+0zeEdJmbcSxcvaRkkn1JzXvMczbFyrHcByO9AA90qS7OrKAxGR8oOef0NZPjP4jaH8PNEm1LXNTstLsLcFpZ7mZY0UDknk8/hmvl3/gqj/wAFhvhb/wAEvPh59t8VXjat4nvYydM8P2bo1zcN8wV2BIwm5TnJz8p4r+W3/goN/wAFfPjL/wAFCPiFfX/irxXqkOg/aXk0/R7Scw29pGSdqfLjdj3FAH9Mnxt/4OMv2U/gxqzWTfEmx165UlGTTUaQIwzkElRXzj40/wCDxn9nPw5dSR2PhvxzrCqfv26ou45PTcelfzBsWkZpD85b+Jhjnvk0vzIF2ll2jGU5H4kGgD+nPwr/AMHkv7O3iLUY4bzwp4+0dGO0yTrGVX3wrV9EfBn/AIOSv2Ufizqsdm3xBh0BpgCH1SMxoCe2Rk/pj3r+QUnzlz5jZzjaAx3e9Drliv7vMfO4c5FAH95fwy+MHhf4v+HotW8L69pviDTbhfMSezuFlXaQMEgHIH1FdKknmLnafzHNfxG/sU/8FOPi/wDsF+N7TVvAfjHWLWzjmWW70trkm0vEGMxsrA7cgdRX9QH/AASG/wCC7Xw1/wCCoXhtdLgmj8N/EeziDX2iXMgH2tggLSW5zll4IIIXpQB96A5opkU3mA8HgkfXHFPoAx/HXj3SPhn4Wvtc16+t9L0jTYTPdXc7hY4UHUmvnJv+C2f7KCuyn47eAwynBH2p+D/3zW7/AMFW0z/wT5+Kx7HQZwRnrwfY1/EvflRfTDbgCRgOB6n2oA/t++A3/BSn4FftReOm8M/Dv4meGfF+vpayXpsdPuN0oiQqGbDAcDcK9uS4WQnHUHbjIr+Uv/g0ouRYf8FTdQu18xWtfAesyDbgDA8nOePpiv6dfg18Rj4+RpjIz+Wu3kjsB6UAego+8t/snFOpsJymf73NOoAK8w/aN/bQ+Ff7ItrZzfErxxofg2LUM/Zm1GUx+dj+7gH3r04tivwf/wCD1tlbwR8J2YsyxTSsE42kksM9KAP06b/gtx+yeilv+F6eBdqnBP2pvb/Z9691+CX7QPg39o/wBB4q8DeINP8AE3h65do47+yffCxU4PP5fnX8INtIARu+8pVThVwVJ57V/UN/wbkfEZ/AP/BIr4ewpLsTUtSvVYE/McTADH5igD9PPjg+/wCD/iY8j/iWTdf9xq/hb+NH/JYvFn/YZvP/AEe9f3LfE3UG1X4FeJJm+82mTZ/BGH9K/hp+NIx8YvFn/YZvP/R70AfVn/BvxF5v/BU74cgMuTOwxz7V/Ud+yHbO+v8AiW42skEd/cs8jgosf71hyTgds1/KP/wRo+O/hP8AZp/b/wDBfjPxvqC6b4b0lpZLqUkjOACACO5x3xX1N/wVE/4OT/iL+0b4m1rwr8H5pvh78NWuZUje1b/TNYUs37yRui5BHAY9M96AP6DP2o/+Cwf7O/7IE1xbeM/iRoNrqlqvz2MEnnXA6/3eOoPevjD4i/8AB4P+zd4LvZI9P0fxh4hReklmqKG5P94+361/MH4i8Q6h4o1GS81S+ur67lJaSe4naZpGzn7xz61XMTMqlVkVejP8zc+nQe1AH9PPgT/g8Z/Z18XagsV94c8caCucb7mONhj1+Vv84r7Q/ZV/4LN/s7ftfXMVl4T+I2jyaxMAV066fyLjnHZgB+tfxayK3l7ZPkH3gSfmP61a0PxBeeFb6G8026ubG8hJeO4tpTFIh9iDntQB/fHBeR3SK0bLJG4BV1IKsPUHuKck6yD5c4zjPrX86X/BvR/wcQ65o3xA0f4L/HLxAL3w7qWLTRddvXxJYScBI3bPQnv/ALVf0N6Vrkd6WXckkxAcGNsrMpxh19RtwePWgDVBzTZZDGvCNIfRcf1IpqzqAcfNg847D1r51/4KRf8ABSr4a/8ABNz4JXXinx3qcKXkykaXpKsDc6rKMkKi5HHqSRxQB9Aa14ksfDlhJdahdW9jaxLueWeRY41H+8xAr5G/aM/4Lx/su/s43U1lrPxR0K+1K34ksbCRpZkOSOSBt7etfzWf8FK/+C7Pxp/4KKeML9bnXL7wv4KllJs9C0+5aGOBATgMwOWOCM9a+L/Km168B+a5uLhiMjdJI5+mCxJ9cUAf06eNv+DxL9nHwjfSQWeg+NtaVfuyWqptb6Et7etZ/hr/AIPMP2e9b1GOK78G+PtLjY4MkyxMoHr8rV/Pr4O/4J//ABu8daVDdaL8M/F2oWs43I6WrAEfTIqDx1+wD8aPhtpMl9rnw28VabZxjdJJLaHC/gCTQB/VL+z9/wAHHX7Kfx41FbRfiFa+GbyThIdWQxb84xgjP059K+0vAvxP8P8AxJ0CLVPD+r2OtafcKHjmspRMpB/3c4/HHWv4L5rWbTJjFNG1vNG2GEi7XQ/TqDX0t+wT/wAFX/jJ/wAE/fiLZat4P8XapNpUdwgvdInnZ7W+j4yjA528L1HtQB/awHBNOr5h/wCCYH/BTDwV/wAFMf2a7Hxx4Xnjt9ShCwa1pG797pdxxlcE5Kngg+9fTUc4dFPJ3HHHagCSijNFABRRRQAUHkUUUAc78QfAtn8RPDtxpepQpJDMm3djOzOckV+fXxo+D998F/FzabNu8nLNBKV++u5tuD7V+kUpbzVxjbjmvNv2jvglbfGHwPNGyR/2lZRtJaynIweeDgZx/Wu7AYyVKfI9meRmmCVeHNFao8n/AGKP2lG1W3XwxrV4vnY/0J34Zug2/pX0+r5LYHOcfoK/LmF9Q8C+JY9u61vNLmCqzcMjbjye+K/Qf9m/4vW/xa+G9neeaGvI18u6B4YOOMn61vmeESfPTWjOTJcZJ/uau6O/dWfj5fevkz9vb4GTWlwvijTY44YJlK3pSPLBhkq2fTmvrQAs+c8VhfELwhb+N/CV/pd1taG8iKHPY9v1rkwdZ0Kl+h6mOwsa9Jqej6Hw9+yV8Xm+GnxNtVmumOm6mwguV3Z2nAwecDGa+/LW4W7iWRSGVhlSOhFfmL468MXHw/8AG13psybJrWUdiDjcdpH5c19yfsffF5fif8J7dppFe+sCYJlHVQoGCfzr0cypRnFVodTxsjxXLN4afQ9cjGF/GnU2JsinV4nofTLYKKKKBhRRRQAUUUUAFFFFABTWfaeh+vpTqink2Oo5+Y4I/P8AwoA+Qv8Agtn/AMFIrX/gmd+xhq/jK3aCbxTqLDTdCt5AcfaJAw83/gGM/lX8ePxa+L/iD43/ABD1bxX4p1O81fXtfna6vruaXLTMxz+AHTHtX7Tf8HpXxSvr74x/Czwp5ky2On2FzelEmIjeQt8p29CQM81+Gk4RZSsedo4yepoAYQB93/8AVU+naZcatdxwW0Ms80p2okaF2Y+gABJqCv1y/wCDXX4L+CfFjfFzxm2h6P4t+Lvg+wR/Cmjag6FXVh+8lCMfmYYOAAeRQB8b/Cz/AIIkftTfGXRYdQ0D4M+LrqzuFDwyPCsIlBAII3MD0IPNbHjL/ggb+1z4H057u9+Cfir7PGMs0Qjkx+TV+4nhz4a/tAftH3X2/wAReKtat5Ny7be3ie1jtg3SMBGHCjjp1zXfeEv2QPip8P2W60/xlr9rNk4NwJZipz/tSY/SgD+WP4k/BTxb8HdaOneKvDuraBeqdpivbcxt1x/MHn2Nc7HC0c0f3SxYfKp3EdfT/wDXX9YXxh+FWsfF7wjJ4f8AjL4F8O/E7QWXb5txZpb3UXbKNGu7I68sOtfm7+2T/wAGzmi/ELT77xF+zz4huG1SMG5bwbrBjWf5ckpAwOTkEAK3GQfm54APub/gilqF8f8Agnt8BbKxa4jkuxdINrFdzbkAGD/vda+Pv+DpP/gshfa144uP2d/hzrckOh6LEo8S6hZ3JD3dxj/j2DA5wjA7xxyTjNfW/wCz/fa5/wAEr/8AghrD4q+IWjy+GvGPg7S7zTrGyvQEe1up/LaNxyfmBj4wcZzX8y/xB8Zah8RfHOqeINZuJLzVNbuXv7uZjlnllO9j+bUAZF5I1w4Ys54H3vXv+uaREaTtnkDj36U38SfrXT/Bv4X6x8Z/ih4f8K+H4Gutc8RX0dhZRg8+a5AB/Dk0AaXwN/Zq8dftK+KI9F8B+GdV8Uao4yYLGEyMnYbuwyeBmvpWb/g3w/bCt9JN5J8EfEywhQ+C0W7B6cb6/XD4K/Cab/gnZ4J074E/BS3sbbxc1tHP4w8VNAk17PcMgLQp0wqsD3GMnivW/hn+x98WdWKapN4w8QNdSN5hPmyKA3XP+tI69sYoA/mY+NX7PvjT9nPxlN4f8ceG9U8M6xbnEltewmNh16Hoeh6E9K45l2nB69x6V/WJ+1B+wTD/AMFCfgFqvw2+LemWmqeJbW13eGPFXkpFfWk+QqiRgPmXJ9SeTxX8snxy+E2pfAj4teIPCOsRGHUPD9/NYyoTnJjdlz9DjI6cGgDmIpvKPv6+n09/ev29/wCDX7/gtLruhfE2z/Z/+JWufbvCurqV8PXd9MWl06cKoEQc8lTtGB6k1+H4Oa6D4Z/EC++FXjrRvEukzNDqmg3iX1uw4w6EMvPXsc0Af3faJrf9rRvvXbcRuFkUepBAP8jX8w//AAeCP5n/AAUlsGHRtChI/wC+Fr97v2DP2qoP2mv2dfh78QbWVJm8QacsV8yY2tcRqqP3/v5/D8q/BL/g8Fj8r/go9pPv4dt8j0PlqD+uaAPyYb/WN/vGpEdRHjLKxznAz6Y/kajb/WN/vGlx8uc46/jQBbOozz28cbXUywxOSqGU4HORhRnHJPOO9V3jMnzcnB5JByO+Sce9fd3/AATH/wCCME37Zfwy1D4meN/G2n+AfhjpN6bKe+WRGvLmUHlI0bGc+vTn1yB95fCn9jH9k3wDZLpuh/Aq++KEcQEcuqa/czQNckfxARFhjofxoA/B1oWRVZvl3evUfhSMuzGe4z16V/QtrP8AwSO/Zp/bAMfhOD4WyfBXW9Q/d2Gr6TJLNB55zsSTzCCFzjJweo4Nfhl+1z+zTrn7I/7QniTwDr8bLqGg3Lx7mXaZo8nY+P8AaXBoA81ra8B+KtU8C+J9P1rR7yXT9U0y5SazuopNr20oYFXHfjFYp4NPV9qDCrlTuzj5u1AH9l//AATE/bpi/bO/Yy+GvxC5jutW06TT9UG7cxubdVi3t6F2Bb6H14Hp3/BRe6Vv2Dfir5ki5k8MXbA8kHEQJ/Ovyd/4NbfibfXf/BPDxTps8hkh8PeKbYW43btkbkmTHpnK/ka/YH4ueBLX4/fsy+IfCd5eTWEPiTSG0+a6hUM8SOpUlQSBmgD+G7WoGfXbkdN8rY9eeeg5rtPg9+yj8SPj/qX2TwX4L8Q+Ip92zFpaMwzwepwO4/Ov3a8Pf8EX/wBnH9hS7Zbjwjqvxt8ULIZYl10eTYxPnv5bFjjGefXp3PuXhv4h/GzxLpMWk+B9J0T4a6HGuI7TRrGEeWnTGSoY8Ack54oA/DzQf+Dfj9sDxFYrcW/wP8VeW4yu8xIT+b1neL/+CD/7W3gize41D4I+Loo0AJ2rG5PXphzX716b+xz8VvHM32jVPGHiWaTiQrHPNHknv8r4/Cuz0n9jz4weDP8ASNJ8ZeIonGP3hd5vLPtuY+3agD+Uv4i/CDxP8I/E9xovibQ9R0LVLVtklvewmFge/J4P4GuddNh6g/Sv6y/jf+wdb/t+/D+7+Hfxu8P6fq2oXlsY9G8WparDqFhdc7M4VcjPJzn73fpX8tn7THwT1L9nL48+KvA+q7mvfDOpT6e8jABphHIyB8AnGQKAOHRtnPzKw6EV9vf8EFP+CjWt/sD/ALdfhdjfMfBvi68j0jXLSWTbAkUpC+eFzjenGDxXw/VnS786deRTJ/rYnV1OcYIZSD+lAH94PgLxlHrErRQyedDIPPgYHIeI/cYfUYP41+Of/B6Dz+zZ8Pf9rU2A/Kv0G/ZB+Kdxrnwy+EurSMom1zwzZNMqngbYIx+fT9a/Pb/g83l839mb4bt/1FHA/WgD+cU8Kq/3Rj9aSlf75+tJQB7J+zb+3L8Qv2UPAHizQvAviG48Or4yVYNQntuJniAIKqf4c56ivKbrUptUupJrma4uJrhg0zs+5pDzuy3OSeOteifsr/sY/En9tDxx/YPw48M3/iK+jwbgwAbLVf7zliABX3x4B/4Nptb8MxQ3Xxc+K3g/wPGfmNnbSia8XgdeMZzkY56daAPy4kXhcYzjkZHHJ9/TFKiqsZ3Mqljkc5xj/Gv1/i/4IKfs3ylhcfHfxhNMvBeO0tSh+m4E1FqH/BuN8MvFduF8C/HqJ7j/AFskerwxodq9eUX3H8J789qAP2i/Z/v7o3nw1gWYpEvg3QQqBMlt1jGcj6Y5+o61vf8ABXb/AIKaaD/wTQ/ZG1LxdcXVjceKLxFtdB065Yo13O2cPt67U6k1k/A+HS9N8a6Tb/25DeaX4N8MWVlfanCSIR9mtUSR1YDOMbeoHFfzb/8ABej/AIKP3n/BQb9vLxFqFneXX/CHeFZW0fRLZ5N8YWIsjTAZxlmz+GD1yAAfNf7TX7UvjT9r34y6p468a63c6vr2qzPI8juWSBSThVU8KoyeledrbNeTxxwqzMx2LGDubOegA5Oc+nekjHmo2dxXPIBwGPAHH1r9m/8Agll+wX4d/YO+COl/Gj4leGNP8WfFLxQEl8G+H78KYbOJsZuZEKnOQMrwc45xQB8u/sU/8G/XxM/aC8F2/jb4halpfwh8CyFWivdb4vL5CAQYYeeCD1bFfVfgr/glT+yL8Nk8pW+I3xGv4GKzMIFW1lYcErtYEDjOMd6+0fA/7NXxC/bT8TW3iD4halcasdrNbWwVY7W1TOY441GAFXJ7ZyTX1t8H/wDgm/onha1i32qwnaOMZzwM9PfNAH5Ma9/wSE/ZO+L9rF/oPxG+H8+cLJFbiSFM/wATbnH+RXy1+2T/AMG5/wARvhX4QvvF3wn1jTviz4MsGVnisHVdRsomLZaWPAGFGCdrE89K/pYf9iDw29pt+x25yMPuQsWHpycVwOs/sYX3wx1v+2vCF1NpdyqtGqRENE4PZ49u1h9aAP40dX0e60K7uLG+gmtrizdhJbyKRJGy8EHuMY6H610HwX+Mvij4AfEzTPFXhHVbzR/EGkyKbe4gkw43A/LkYyp7g1/QJ/wXC/4JC2/7Y/wZ1b4meE/C2m+H/i54PjWbUoNMi8qHxFbkN5jlVUYfA9PTmv509Rs30u9e1mSaCaJ2WWNhgxupIx65HQ+4NAH9fX/BD/8A4K4aZ/wUy/Zgt9SvprO3+IGgEW+u6bC37wgbQLgKT90jr9Olfd1tdrcR7hz347j1FfxU/wDBJz9v/Vv+Ccv7Zfhn4gafM0mm+eLXWbN5CkN5aPxIGA4LAHK579SK/sU+C3xa0/4g+HdL1LSphcaPrdnFfWEmd2YpUWQLn1Xfg9cYoA4H/gqs27/gnp8VTgj/AIkM/X/dNfxJ6h/x/wA3/XRv5mv7aP8Agqa27/gnh8Vj83/IDuB83bAI/pX8S+of8f8AN/10b+ZoA/S7/g1F+X/gpbrzZP8AyTrXdw9tsOK/o7/YZleXQCW9CP0Ffzif8Go//KSnxF/2TnXP/QYa/o6/YX/5F1vx/kKAPoeAkxDNPpsH+qWnUANfrX4O/wDB61/yIvwt/wCukn/oTV+8T9a/B3/g9a/5EX4W/wDXST/0JqAP574fvN/vLX9IX/BEZ2X/AIJJfCHB27dWvjkf9d0r+b2H7zf7y1/SF/wRH/5RIfCH/sLX3/o9KAP1k8Qsz/s6eImZixbTbg8/7jV/D58a/wDksPir/sMXn/o96/uD1/8A5Nx8Qf8AYMn/APQGr+Hz41/8lh8Vf9hi8/8AR70Ac7axG4lWOONnmc4UKu4t6ALX39+xB/wb+/E79pHwpa+OPiFeWPwc+HMw8xNX11hDNfR7VP8Ao8Z69f4sc5rzb/ghl4E0P4i/8FMvhrp/iLTbbWNMjvxcvZzrmOdk5XP0ODjvX7ia58DPG/7Y3x71i48T6peXOl6VqM1pYabblYbW1hRyEREIK7QD/doA+U/hf/wT6/ZO/Z1kgstJ8L+JfjNrFucSX2ofLZu/+z5eRt4z0717b4f+Gngq6h8u0/Zh+H72ucB7gSeYB6cqK+9/gX/wTo0XwXYxxvaCKTHzHseBydvH48fSvctL/Zi8P2NlHH9jtd0Y25MXWgD8ffih/wAExv2c/wBp3RX0vxB8KZvhbq10DFbazoTBo4H7Mys4GMnn2HSvx1/4Kg/8Ew/GX/BM744/8I7rh/tXw7qiG50PXYfmg1SHnLA4HzLjkY/Ov7CtZ/Zc0DVdPaE2trtJ5XyQQQfvceuMflXw5/wXE/4JtWP7Uf8AwTj8TacsJm8R/DWGTW/D1yiYl8mPmSDHP3gfpxQB/KJbTnT7pGEkkciOjo6D5lHXcp6g9MV/UN/wbS/8FT7z9tH9kd/B/iq++0fED4WmK2jkcEzX9gf4887sKMHOOR6YNfy86navYX0tvKpWaFijgjGCOo/Dp+FfoJ/wbM/tF3PwL/4KX6Hp/wBqaGx8ZWU2jyx79qSPJtCE/TmgD+p749/tK+Gf2dP2fdb+IXii9ht9D0G0e5leQ7N527kjGcZY/KMdPev46v8AgqL/AMFEvFv/AAUh/aj1rx1r99N/ZrTtDpFgHJhsbdGOwKvQMd3Jr9c/+Dur9tq88D/CPwT+z/pd4qtq2dW1wrITIsScxRnpwRjr3zX8/wDtLHcVSNW/hHAGCPw7fqKAPfP+Cd3/AAT18Z/8FEPjnF4V8NRix02xQ3Gs6vP/AMe+k24PzSMTxk4IA9RX7EfBD4EfBj9hi/8A+Ea+Cngiz+Ifi6zRYr7xlrMazq79GEKYZcKwzzjljUf7Dv7M91+xd/wTl8I+BNJhSz+InxtjXWPEl4gWZ4LH5XjiDA/LuVhwcck9sE/oL+xX+wRpfgrRLeWaDyGkj5TACrznp/8AXoA8M8N6N+0H45Mdx/wkc+jrIARHa2MKIo7AAY/lXZ6X8PPjlpC5m8TNqEZ/1iXOnQ3CH0+VgQfzr7/8PfC7SdCs44447d9vQsg4/WtWTwtpzx7fs9uv+78ooA/Ib9qj/glZ4G/4KJ+GJND8YeD9J8CfEaYFdM8TaPbrbpfXHJVZ0AAUHnlQx9uK/ng/am/Zt8UfskfHXxF4D8Y2c1lrWhXLxuGIHmKrYSUY7MORkA4Ir+3Lxt8GdK8T2gjjghjmUh4pSeYZAG2sPzOfwr8Ef+Dwb9jaHRtX8A/GyztYYbrWkOh65Ki7VlkRdsL4GcnCck47daAPzw/4I4/8FI/EH/BOD9srw34nh1C4/wCEV1S6FjrtjLITbzW8hCvIR03p1XPHPUV/YB8NfiPp3i+ws77SJvtWk6tbRXljMpys0ciggj8OvvnrX8JCyNIx3fK0ny9M8HHav6uf+CEP7UF58Z/+Ca3ws1W8vFuL7QVm0e4bP3QgVY8/kfzoA/TaN9w+hx9adVLQ74X2mQzLnZIisueuCoPP45q6DmgAooooAKKKKAGSD5qY0RZGHQHvUjLk0bflqY73FbSx8m/t3fAGGC0fxXp4eJnBW8jii3ZPVWz+PP0ryP8AZd+OU3wh8f2/mXEk2l6g+y5BOdoAXpnHevvjxZ4dj8UaFd6bcKGhuoij5GevpX5x/F3wRdfDX4g6lpckLTJaTDymK7d6ZPC+pr38ure3pOnPc+RzTDSw9eNSnsfpRpupR6pZx3EPzxygMrDowIBBH51JJD5jZ+mfwrxT9in4uN40+H66bcPuutLyp6YKcbcd+9e2xvu/HkV5FalKnNxZ9Lh6ka9JSTufK/8AwUH+E+3T7fxRbx8qRFcKi/xHO1ifT1rzL9jb4sN4G+LMNpcXAh0/VgsEu8bdh9vbPfrX2f8AGDwfH47+HmsaZMqslxaPtz2cDK1+bN0bjw7rLRD/AI+rdmAQjBDgqAc+ma9jAXr0nS7HzmZ0vqmMhXjs92fqbZyedDvHIY5H0qWuL+A3ju38ffDDTdSikVmaJY5QOzooVv1FdmrblzXhzjyycWfU0Zc0FJC0UUVJoFFFFABRRRQAUUUUAFRzJk7h2H9D/jUlNbg+3egD+fH/AIPSPgpfp4l+E/jaGzkbT5LefTrm6H3EkPKqff8AxFfgzInlnH+etf2rf8FWP2EtE/4KNfsm+IvhlqbW9pqOoILjRr2QgG2u0yYxn+EMRgkfrX8dX7UH7M/jL9k341a14I8caPdaRr2k3LwyRSpgShWKh0P8StjINAHnldh8D/jz4t/Zy+IFh4o8F69qfh3XtNlEtvd2UuxkOMcjow9jxXIOuw4PX09KV0aPG5WGRkZGM0AfsD+y7/weB/F/4X6TY6b4+8H+HfHMcMPlTahIxt7iUhQFJCLjrk/jX3j+z9/weDfAHxnDa2/i7w/4m8K6ndHbNJFF51nGcDJ3E9M56jPHSv5jEwHy27HscVKZ1Kj73B/iYtj9QP0oA/tF+AP/AAU9/Zp/bE8uHwn8RPCuoahMcG1luRHOhwD0YAd/Wu1+In7Jei+KjFeaYX8yV0dJrVljZep3Bx1zwMZ7V/EboviK88OTLPp95dWVyvSS3kMLrjphlOa/TH/gk5/wcr/FT9izxPY+H/iFe3PxA+HUjRxTw30he501Bgb4WJ+ZunDEDjrQB9x/8HTfiLUvgp/wT78I+BL2+ury58Wayt3cyTMWZUt2kIX5ic5BHt1/H+eG43ecdx3McEmv3Z/4O7fjnoP7QHwa+AvijwrqUGq+G9ft5ru3uYnDDDLu2tgnDDOCPUGvwkddp67uAf0oAbX6L/8ABsT8HbP4if8ABSS317UreGax8C6BqGvp5ke4C4hWMx59Byea/Oiv1q/4NONMaX49/GK8j2+dD4A1JRyMkFY+1AH6+fsNfBiP4ifEDXvFGoCG4GrX891G3k8lHffw3U43EfhX3zoPhGy0yzjjjhh8uNQqgxAYFfP3/BPDQI9P+Fdm32fYzW6tkd8gV9MR428UAYur+EbG8K/6Pb7oWEqAJjDAgg/+O1/KB/wdGfAJPg1/wVE8QXlvbw29r4ksbe9TyovLUyYxISO+WOc9/av61Lo4D4HzFME/ga/mi/4POLXyf22/AcjYHneH33Y6khkxn9aAPxsKbFXnO4ZPtT43KxbVxuZgR+AP+NF0AJsD+EBT9QAD+opucp3BHIIoA/pC/wCDXv42TeL/APglnrGgC4WRvh74mUBlP7yJLmVZR+HUf418M/8AB3bM13/wUJ0Wdjuabw/Cc/hj+le4/wDBp9e4/ZG/aGgXzI1/tTS5SV6HaOn414H/AMHZl217+3Z4bkbbubw5CeO3yigD8rpF2yN9TQGGz5i3XgY49/6UTf61vqaa3b8aAP3u/wCCLfw+X4i/8ET20t8NC3jhCQyKxI+0yE9RnpgdccV+q37Mn7FOk6Z4Ss7i6t4VklGcGHoO2MHpj9c1+an/AAb9rv8A+CQ5BVWX/hM174/5eHr9rfgkAPAdj5ahV2cgtnsKAOZ1P9lzRI4naMLHj96NkeOVKsPoflPOa/m4/wCDvH4VQ+Bv+Cm0WtQxxxr4i8P2sjKibQDEixt9c7gc/X8f6mboMeRjavJ+nOf51/Nr/wAHpVj9l/a8+GFzhM3WgzhsdSFmjFAH4rnAPHSlHCN9P6ikH8zmnL8w2924/Uf4UAfu5/wa66jJbfsOfFLb38Q2ec+ma/dn4NKuufDy3jZSwaIKT36V+EP/AAa/J5v7C/xPQSRqW8S2S/Memec/Tiv1u/aS/bz8E/8ABN/9i5vH/ja9S3VYSNPsGx52qT7RtRVJBIyRkj1oA9H+IvwY8JaJFNq2u3Wm6XDH8zTXMwjQnvy2AeMdDXyP+0T/AMF0v2Pf2NJ2s5PFVr4o1azGyaz0GPznzkjBPC5yP71fzzf8FH/+Cy3xo/4KF/Ea+uvEniTVNJ8NiQmw0OxuDDb28RJKg7T8x2tXyNLcb3Zh95upOc889c8n3oA/oS+MH/B594S0K+8n4e/Ce41KxXPz6tceST17KSfTtjnrXgXjr/g8/wDjNq5lj0P4b+CNNhYYRpJJJHT9MelfjQcvGGb5sfLy3P5daDExI+U8+gP50Afpp46/4OvP2pPFOn3UWn6noegSXIVRJa2SsYdrbgy7h16j8q/PX44fGzxH+0T8UNW8YeLNQbVPEGtztcXd0UCGV2JJJA471zTadMD/AKuQ8ZACnJFRSRtE21uvp6UANpRja2fako7N+FAH9dP7E2pSxfCD4Fxqx2t4Vtjz/wBcoq+TP+Dykk/st/DTP/QUk/ma+q/2LPl+E/wJP/Uq2/8A6JjP9K+VP+Dyobf2V/hk397Umb8+f60AfzlP98/WkoY5Y/WigD9hP+DYKS4b4P8A7QkVjNJa30mlKiTxDEsWVGCrdexr9CP2WP8AgnE3xE0W11TVvteoXEyCR5rlxKzZAOfn78/Svgv/AINUUz4E+Ox/hNigIx6IT/Sv3u/Y00yOH4aWwaKFisCDJXd0RRQB5ToH/BNjRLC2jD20eV4bdDH8w/AGtRv+CcegysJIbOJWRuCsCBiD1BbGfwr6whh2J8qoobnAXFDxbj90H/gRFAHwz/wUW8Of8Mcf8EwPjNrWk3H9n6p/YM1nb3DquVWUKu3jHZT781/Hvf3Ml5dyTSyNLJKxdnIwWJ5J/Wv60v8Ag6c8WT+EP+CSHivyGZf7Q1G0tHAOcqzNnP5V/JTtzjDdc4B7d6APrr/gid+xSf22P24tB0zULWOTwn4XSTXtfkkx5YtYF3MhJ7sAdoOAT1Ir94vgh8Irr9pX9onUvEtxZrBpenyjT9HhSNZYrS2hASLaCcDMYUkDuT1r4C/4NpfAyeFP2MP2gPGjW0E1xq09r4bWUj5kimhkLKD1BORx096/bf8AYC+EEXhr4c6bK1vGjNCnyr8oXCqv9KAPafhh8JNP8E6PbxRWdsjRqAcxAZ49q7OODyYyqLGvPG0Yot12hsLtG719hUlADBER/FzSPAsv3hu+tSUUAcT4+8B2Mm2+8lT5Q/ex87ZkJ5Vsdjx+tfys/wDBzP8A8E/7f9jD9v8A1DVtB02PT/BfxCjOr6YkWdkcrMxnXpgDeSRgng9q/rUvI2dvlKruAByM5HORX4z/APB4v8ArfW/2GPCHjaRV+2+FNcWzhYHOUuNwYH8AvHsaAP5q8eXHtVt27tjIPIH9K/q6/wCCDf7RepfEP/gmZ8F77WLpbq8tVvdMLqBlFRlWJT7AA/nX8ouVSTf1VdgOPpz/ACNf0Sf8G3Wvy3f/AATEti8zf8SfxSIIiTwgeU5/DigD9QP+Cn9wLv8A4JyfFKYFj5ugztz9Dmv4ndQ/4/5v+ujfzNf2n/8ABQ+8+3/8EwfiRLz82gXPXr/FX8WGof8AH/N/10b+ZoA/S7/g1H/5SU+Iv+yc65/6DDX9HX7C/wDyLrfj/IV/OL/wajf8pKfEX/ZOdc/9Bhr+jr9hY58Ot+P8hQB9EQf6padTYP8AVLTqAGv1r8Hf+D1r/kRfhb/10k/9Cav3ifrX4O/8HrX/ACIvwt/66Sf+hNQB/PfD95v95a/pC/4Ij/8AKJD4Q/8AYWvv/R6V/N7D95v95a/pC/4Ij/8AKJD4Q/8AYWvv/R6UAfrJr/8Aybj4g/7Bk/8A6A1fw+fGv/ksPir/ALDF5/6Pev7g9f8A+TcfEH/YMn/9Aav4fPjX/wAlh8Vf9hi8/wDR70AfVf8Awb9hT/wVK+He4c+c2D6dK/p+/ZK0G3k8ba3J5MLSnU7kZdM/8tCa/mA/4N+1z/wVM+Hf+zK7fltr+o39kj934w1xj0TUrlj+LmgD6Vjh8tGEaovPYYpY4mA+ZtxzTk6Z/vc06gBuGUcbfxrE8a+FbfxTpF7Z3EYZb6ymtHGMqyOuGBH5Vu01gC6/pQB/Ch+1/wCC1+Hf7VHxE0RWLR6b4iv4Y+MYUXD4H5V1f/BNLxj/AMIJ+3v8J9TZti2/iWzy3oDKoqb/AIKdRLB+358WFUAKPEt9gD/ru9cZ+yRF5n7TfgFlDsy6/Z4C9SfNU8fkaAPrX/g5L+Ns3xp/4Kp+NLxpA1tZ2dpYwBeQqrGCcfU5/Svif4bX2j6d470q51qGWTR476JrxFUszQB8uB/tbcYHTjqK9s/4KxX82oft1eNHuARIskcfPX5VA5r5/wDDnh688Vazbafp8El1f3soht4YwTJK56AD3oA/oUtf+DiT9ivUte0fXNVs/ir/AGlpuk2umrax6Zbm3iEMSRjbyTyEFexaL/wd/fsq6DYxwQ6d8QtqE/8AMIjXAzwPlYDpjtX4T2n/AARC/a0vrCC4h+Afj9obiNZUb7IBvVgGDcuOoIqRf+CHX7XRHy/APx//AOAy/wDxdAH7xR/8HjH7LK7s6f8AEbk5H/EqX/4unf8AEY1+yv8A9A74jf8AgqX/AOLr8Hf+HHP7Xn/RAviB/wCAy/8Axyj/AIcc/tef9EC+IH/gMv8A8coA/d6X/g8X/ZZb7th8RlO1h/yCl69v46+GP+C/P/Be74F/8FNP2LLfwL4C0/xTD4gt9btb6OfUrJYUSKMHeoIcnJ3ccYPqK+CP+HHP7Xn/AEQL4gf+Ay//AByj/hxx+108bK3wC+IRHYC2TGf++6APlMyqTzu3bg2fx/wxX9Cn/Bs9rpj/AOCbN8kkhjjtfFEYAz97c5yK/JWH/ghh+10T/wAkD+IHy7c/6Ep6nHZq/Yr/AIIn/swfEL9kb/gn/f8Ah/4l+EdX8G61c+Jobi2stRQRzToJCu5VznbkHn2NAH7OfDW9/tLwjay5+Z1GQOi4AGPyFdCnArkPgnvTwNZrIuGwenQ12AGKACiiigAooooAKKKKAI5d2/jGO+a+af2+/hIdU0K18TWUbfatPOJ9g+8nPJ/OvpaQnzKyvF+g2/inw9eafcLuhvojC4PbOcGtsPWdOomjhx+H9vRcT4M/ZT+Kv/CsPinZzCST7HqDfZ5wcbQCeD19/wBK/QKymWe2V423RsMqfY81+ZXj3wuvgTx3caYrOvkXBVQesYDHaT+IP4Yr7t/ZP+JJ+Inwd0+4mkjkurX/AEeQJ/DjgZz/AJ6V6mZU+aCro8fIazi3h3uj0yQb1ZSNwIAI+tfDf7RPwA1bV/j7dWeh6bPMt03mptXCJuPLE+ny19yRgyIWXKluOfYmo2sA7NIyR+cVC7sYP59a8/DYqVGd49j1sbgViaajLozgf2YPhHefCD4WWuk6hcC5uFkeQ46Rhjnb0HT+tejRKUXBptvGYlKnp257VJXPKTk7s7qdNQioLoFFFFSUFFFFABRRRQAUUUUAFNkfDKuCd3p2p1Ry5PTjpzQBieLtEXxBotxDhGWRNvYMjA/KwORjBr4W/wCCif7Bvwx/a9tptI+LfhqG6khjCWXiGytlGoWZwerg/MASSAT3pf29/wDgvt4B/wCCeX7aGh/Cvx9ot7DperW0d3PrUJBis43xt3jOcDcCSOfvcYAJ+t/h58SPAn7XHw2t/E3hPW9J8RaLqsQMN5ayiSPBAOCCByAw6880AfzjftE/8GsXi6S9vtQ+CPjzQ/Humx/vI9NvcW+pqCT8pXlSRx0avhj47f8ABKP9oT9nJ7yTxZ8KPFml2VmxU3f2NnhfHdSMk1/WN8YP2CNP126a40tJrZs791o3ksx65JVgcV5vffC/4wfDtmXS/FDzWiDCw3lotzGO2NspbPGOf0oA/kDvdFutMm8u5he3k+YFZRsKkdQc9/aqzLs6/j7V/Uz8cP2f9D+OHmRfFT4F+DfGm0eU99awJZ3IDE/MBGijg7j1zzX5P/8ABcL/AIJH+Cv2S/hv4d+LfwxbVbXwp4juPsl9o98gzYSBmHyMCeOB36c0AfmO6bG21Jazrbtv6up4BXcrjuDUcpy/Vmxxyc/lTS2KAPQvEn7R3iLxl8C9A+H+o3kt5o/hqaSbT0kYt9nD8so9F9MV58eQpz94c+1et/s1fsn67+0t4S8bajoa3EzeCdMfVrmOID/VICWPPsK8mnTy5OSu7+ID+E+lADK/Vn/g011mFP2xfiJpPl+bc6t4C1SONA+GfCK2APwNflNX1J/wRt/a/j/Yh/b98F+Nrto10tpX03UTIxVBbTDY5P0Byc0Af1vfsO2baR8OrezYDMMXldehGM17pF938a8d+BEljpXiGSTS7iGbRdcU6jprI+Vnim/eKEPQ4UivYEuo2J+ZfXqKAG3bbF3BS21STjvwa/mK/wCDxzxhb+If+CgXhnTop0km0jQSsyDqhfawH5Cv6ZvEviGx8N6Vc6pqE0drYafC1zPcSfdjjQMWJIycAcniv4yf+C0f7W1t+2l/wUL8feMrSZprH7T9gsnByrRxFl3D2PUY7Y6HigD5WuCDJkfxfN+fP8jTAuVJ/wAn/OaRjlvbt9KltyiAuy/MjqQfQc5/pQB+6H/BsVoM/gb/AIJ3fHDXrgbF1/xNpdrZMP8AloEB39cfpmvnb/g68Yt+3B4X3bQ3/CNwMQO2VDD8cEV9/f8ABNb4OP8As0f8E1Pg34GvojHrnjaebxFeRkYdYmIaIkf7rcZ75+tfBf8AwdrWB0z9vXw/Blm8vw7CAWHONoxQB+Vc3+tb6mmt2/GnTf61vqaa3b8aAP6G/wDg33/5RDN/2Oa/+lD1+1nwP/5EGx/3f6CvxT/4N9/+UQzf9jmv/pQ9ftZ8D/8AkQbH/d/oKAOsn/1b/Q1/N9/wer/8nUfCb/sA3f8A6Pjr+kGf/Vv9DX833/B6v/ydR8Jv+wDd/wDo+OgD8TV6U5Plbd2Ug/5/Omr0pwG6Jvp/UUAfvR/waoeGpvFv7HfxGsYvL23PiiwRsj5gORnPXA5r43/4OU/27bz9pr9va88I2eoSN4T+GSDR7G3Ul40lAIlfacAsSfyA75A+6v8Ag0Im8n9kj4ss2Wa31WGeFQg+ZlBzznOeRxX4mft26vca5+2H8SLi7keSdtfuwxbr/rWoA8olYM3yjoMcnrQEyPvD/OP8/hTakg+4x/u/MQR15AAH1zz9KAP0C/4Jn/8ABFSH9pH4Qf8AC4fi94m/4QL4SpcNDYzIFa+1x1I3CBDgsoyOcj+Yr7m+Hv7Kf7KPgEx2/hT4G3/jWVT8t9r7yRfaD03AAn5TgH8TX0Za/AG1+InwL/Zu8N6HEo8E2PhpZbCGDa0E87wqZ+D1IkLV9r/Az9hLQ/Deg2clxaK22NN7OwxnaOgyeOn45oA+PP2TPht4W1v4xeG9Hh/Z+8D6RoV1fRwzsLNZWCtkHlgewFfgT/wV+8L6b4M/4KLfFDTdIsYdN0211meOC2iUKsKh2AAAAA6V/ZF4U+BOg+DL5bqOyjWaBw8TxqQM446enPNfxz/8FmmD/wDBS/4slWVl/tuUgqwYHnnke+aAPl+js34UUdm/CgD+uD9i/wD5JJ8CP+xVg/8ARCV8rf8AB5b/AMmp/DD/AK//AP2UV9U/sX/8kk+BH/Yqwf8AohK+Vv8Ag8t/5NT+GH/X/wD+yigD+cjufrRR3P1ooA/Zr/g1R/5ED47f9eS/+imr99f2Pf8AknEP/XBf/QRX4Ff8GqP/ACIHx2/68l/9FNX76/se/wDJOIf+uC/+gigD2eP/AFa/SnU2P/Vr9KdQB+ff/BzT8PH+IX/BJ/xyscTTNpU1vqBUdVWPzCx/wr+Q108oKvylu/qp6Yr+3j/gpz8Erj9pD9h/4neCLDzm1HXPDl2LZUX78iodoz9Wr+Jnxj4buvCXiXUdNvozFeaZcyWk6MMMsiMUYEeuRQB+xv8AwadfEXS/F2mfGL4S6hMsl5rFqniGwtmJLu1pEwJA6cFx+vtn+gP9le1bTvh1YwFVWZYwZRzwxVW7j3Ffxm/8E6f2wtX/AGC/2vvB/wAStMluFj0O9UajBG+37dZsQJYD7Mp/Sv7HP2WPironxU8FaV4s8M30N94Z8TWg1O1lil8yOFXVWaMN/sZ2465BoA9oi+7TqbFKsoO3/PAP9adQAUUUyScI4XDMx7DtQASOqMu4H5u/5n+lfh1/wee/tKjQfgh8OfhrbzK3/CQXjavdQk4dFhBCEg+pP6Gv2l+J/wAQdH+FXgjVPEev3sOn6LpNu1xeXMzlI4YlBJbIz9K/jg/4LT/8FDLj/gpH+3D4i8bRNcR6BaE6do1u8hZY4I2KhgOgDY3ceo7kgAHyeLbMvlhgzMyrz6kH+pr+hL/ggXodx4T/AOCWvhr5GiXxL4gmuBk8yLHMQCPxNfz2xxGeX93u3u+EUDkkn/P51/T1/wAE/Pg+P2f/ANkj4B/D26tvM1a10241e5DsR5P2kJKgPGent1J+tAH2V+3hBJ/w64+JCyMpb+wJhkHjhNp/UGv4vdUTy9RnH/TRv5mv7Y/2zPC767/wTq+IWnRwtubw/cME78x7v61/FD4jt/sevXkJIZoZ5EJHTIY0AfpP/wAGoaeb/wAFONWhZh/pHw+1yNR3LbYa/o6/Yabdok3yldruoB6jGB/Q1/Mp/wAGzXxPs/hn/wAFVvCa3ky26+JdNvdDiZuhknEe0f8Ajtf06fsj6RN4avtW0+aORZLW9uEw4wSPMIzg0Ae/w/6padUduGSPa3VeKc77KAB+tfg7/wAHrX/Ii/C3/rpJ/wChNX7vSXKhl55bhRkDcfQV+Df/AAeq6jbzeDvhXCs0PmNJKQm8bsAtzjr3xyOoNAH8+sP3m/3lr+kL/giP/wAokPhD/wBha+/9HpX834haCQq3cofwPNf0gf8ABEf/AJRIfCH/ALC19/6PSgD9ZNf/AOTcfEH/AGDJ/wD0Bq/h8+Nf/JYfFX/YYvP/AEe9f3B6/wD8m4+IP+wZP/6A1fw+fGv/AJLD4q/7DF5/6PegD6r/AODfs7f+CpPw9P8A00dfz21/UV+yU+/xR4gP/UQuP/Rhr+XX/g36iab/AIKk/D0L/wA9XY+wGK/qK/ZKj8vxXr0f3t2o3AyOg/eE/wBaAPpqP/Vr9KdTY+EHtxTqACqPiHWIdB0q5vLhxHFawPMWJ6ADJq40mGxz+XSvjv8A4Li/tw6X+w7/AME+vGXiSS6hg17VrZtK0SJ2G+eeU4OBkcKvJI9RQB/JF+3J4wj8e/th/EzVoZPNivPEt+yP/eH2h+a7H/glB8O2+Kf/AAUU+EejCFp47jxFbGRF/ug5JPtxXg+ualN4h1S8v55Faa4lknk4PDM5Y9u5av0W/wCDab4Az+Kf2xNW+JF9bSNoPwx0e5v5J8/u4roriJSfU4OB7GgDyD/gvT8P2+Gn/BU34naOU8tYb1SvB27WGRXzH8HvGafDb4neH9cuImmh0m/iu2jDYztYdP8A9Yr9Pv8Ag6O+BdxqXxe8D/HG3t5DpHxJ0sJNcKn7sTxpwCR3JPFflBGVLf3Wkjxkc9h/gfxoA/qu+O3gPxr8Y/if4b8S6D4m1S10LxF4X02+tLe2uW2Ffs0ZfALHoW5wccGtpP2MviM6LjxVrnQci5OD79a8g/4N2v2y9P8A2xP2HdD8OaleWt54++FP+iGByGnuLKQooKjOSAqkdBgg1+tukaTZ31kpFvb/AC5GAgIA7d/TFAH55/8ADF/xI/6GrXv/AAJP+NH/AAxf8SP+hq17/wACT/jX6Lf8I3af8+9v/wB+6P8AhG7T/n3t/wDv3QB+dP8Awxf8SP8Aoate/wDAk/40f8MX/Ej/AKGrXv8AwJP+Nfot/wAI3af8+9v/AN+6bJoFnGP+PeE+mIxzQB+c8v7GHxIZtv8AwlOtfdOCbhs5yMfxDjg16J8Ff2O9csNdtZtc1C+1D7HK0sAmlZlDE55GSOCSevevtR9FtITj7LCSeR+6zn/PvUlh9nSKRoUhZFOcxAYb6UAVfBOgJ4c0GG1jHyxjqTySeT+ta6gjr60kS7QevXPNOoAKKKKACiiigAooooAYyZfNMkjzxgYx+vb+tTU1l3VMdwtpY+Kf+CgPw4Xw/wCPIdUiZVj1qNjIuONyDrn1JzV7/gn949lg8ZX2iySs0F7GJY0IAxtUZA565r1T9vXwVH4h+D/21lH2jT50ZWwThSTnoK+TfgB4qm8H/FfQdQjbCteJESDgFGYqc59hX0VD99gpU1uj4/E/7HmEZx2Z+kltIzht3VWx7Hv/AFqSq+myrPZrIvKtkg+1WK+fPr47BRRRQMKKKKACiiigAooooAKKKKACo5m8sM3tn8uakqG9fEMnBO1CeO/BoA/l/wD+Dww+V/wUb0bO4qdAgyN3ynaqfw45+6f0r4B/ZA/4KQ/GT9hXxCt/8N/G2saGuQHthMZLeReAV8tsqAQAOBX6Af8AB4fE0v8AwUW0d1V/L/4R6Ng+w7SOnXGOuR+Ffkc8O0Z3Lx155H4daAP3t/Y2/wCDzqTTrC10/wCM/wAPBIIQI21TQZC01wcD55EfC5JznafTj1+zvDP/AAdRfsneNtKWW+1zVNNeTrDcwYZDX8oZyihdqqx5BOQcUSyMMKzZ/HNAH9TXxT/4OjP2RPCOjNPbSa14onVTttrO3GXP+8SBX4t/8FoP+C2Wrf8ABTnWtL8P6HoL+Dfhv4cZn07TjJumu2JJ8yUYwDzjAJ6de1fBaPmP2z/exTfLZomkCtsU4J7ZoARjwoHQD/8AX+tOih8xlyyqrMF5z+J+g70/7ExJCtGx4wFcHdn0/wAOtfa3/BLD/gjP44/bt8Sx+IvEENx4M+D+l7p9c8SXpEEfkphjHCG5d24HQDBHNAH3T/wbQfAnRfgn+zh48+IfxHs4ofD3xUmj8IWEd1GMXVrPGyyTrn+EH+Y9ePzg/wCCuf8AwTx1r/gnl+15rXhiSBpvCurPJqnhq+QZivLJmLgK395AcMD0x3GCf3W+HXhbSf2gPF+g+F/B+l/2b8M/BMP2DR0SLP2oKqr57J0DEqD1r17/AIKLf8EsvDf/AAUM/Zfh8CeJGt9J8VaPHu8Na4E2MkoGfIc84RzwcZ47UAfyTyx+U+3IbgHI75GafDOEjw3zbXDqMcH1H48flXrP7Y37EPxG/Yb+LWoeE/iF4dvtEvLWYpDLIuYLpMkKyOOCDtPXB46V5K9s8ZYHGU+8M9KAP2M/4I0/8HPMn7Ivw50v4b/GbS9R8T+FNEBTSdYtm3X9mDjCMDgbFAwCGJx2r9OR/wAHUn7Jy+GWvF8T6wk20MIFtC0vH8POP8mv5OWXy2ZVKsTwSDx+eaUo0ZH04I5/rQB+yn/BYP8A4Op9V/az+H2rfDn4NaXqXhLwzq6GK/1u4l2390gJHkqgyBGw6nOee9fjXdyrPcMymQhufnOTk9efrmmsGxuKtjpntQE3Y6fNwKABImkPyjNfTf8AwSb/AGIL79uT9sDw/wCHFt5G8N6bKupeILsKfKtrCM5lLHt04BHY+1cB+x1+xL8Q/wBuL4rWvhH4eaFcaxqErqLidW229nEThpJZDwqqOe59q/dj4Lfsx+BP+CfXwdT4I/CfUI/EfxE8SKJPGniy1O/LKqhrWNx/yzIyCCB9OaAPo34G2y/Hz9pNbzToo28O+G7ePRtJ2A7DDCBGrjjgMqqePUV+T3/B3zb/AGP/AIKK6XHgg/2FE/Xsyhh+hFfvl+wp+z/b+ANB091WRPKiU7WQLtUKoA/lX4J/8Hg2W/4KO6WWI3Dw/ApGeRhFFAH5Mytukb6mmt2/GiT5ZW6fePelVPMZR8oyccn1oA/oa/4N+P8AlEP/AL3jQY/7/vX7WfA/n4f2J/vLmvxS/wCDfohf+CRMO5lAk8a4Bz0P2iQc/lX7WfA3P/CvNPypUhMEHtQB1s/+rf6Gv5vv+D1f/k6j4Tf9gG7/APR8df0gy/MGX/ZPNfzgf8HqsTP+1R8JsYP/ABILw9fSaPP86APxLXpT4vm+X14/UH+lNdPKbblW4ByD6gGnQNtLN/dwTz+H9aAP37/4NJdUj0j9lD4itcMY4brxLZWpfsokzn9AK/JH/grR8C9S/Z+/4KBfEzw/qFtNbyLq1xfRiX7zwyys6N+IYD8DX6j/APBsRD5/7B/xUVW8tl8T6aS6n5lxuxjt1HrXov8Awccf8Eu7/wDbU+Bul/tCfD/R2u/G3hezS18TadbLumvIBwswHU7Vzn6cZ5oA/nllj8qQrkNt4yKI5DG345qe+tWguXhYbWgJRt5IOQxyDnGCOmPaoCmO6/nQB+w3/BGT/g4z8M/su/BnR/hT8avDd5q+g+G2K+Htesm33WnB8bkdWwNvBIIJPJ49f1HtP+DpD9kuDR2aPxdqC+UgAQwEOcD7gzjn9OetfyaIPkJ3MvOOhx+YodGGwqvzdBzkn8KAP3S/4KXf8He998QPDWoeE/gJoN5oK3o8o+Jb6QG6gGSG8mMEqcrt6kYya/Dvxh4r1Dxx4mvdW1W8m1DUtQmee4uZW3PM7MSWJ9816p+xV+w98RP2+/jXpngn4e6PeaxqF0/7+cMVt7KP+J3cjCgD6mue/ax/Z+uv2V/j/wCI/AN9e2+oXfhq5NpLPAwMbsPvbTwTg5GSAeOlAHnVHZvwoz/nNAHyMcr24zyaAP64P2L/APkknwI/7FWD/wBEJXyt/wAHlv8Ayan8MP8Ar/8A/ZRX1T+xkfK+EnwG3KV3eF7defeBK+V/+DypS/7Kfwz+Xhb/AK+vGOKAP5x+5+tFOkTyz/Cd3IwwNNz/AJzQB+zf/BqYvm+BPjso6/YUP/kMj+tfvn+x0/mfDSzYdJoEK+3yqea/A3/g1GkUeCvjvlgNthHkfVGx/wCgmv3w/Y1G34Zaav8AFHCqt7EKooA9qj+4PbinU1OlOoAoa9J5Nv5h+7HyefvdRjGOQe/tX8u3/Bz3/wAEsr79mP8Aao1T4t+E9Fk/4Vz43dbie5hiP2fTrwg743wOC7AFTznPOK/qSmg3zrJwNgx9favA/wBs39mfw5+0Z8F9f8B+LreS48M+Jrd1uZBh/sJ5xKqtgB1JBBz60AfxHRTeQd2794uMcZB65B/Ov1f/AODen/gu/pf7CNpdfC74vXV7cfDbVLqO4sLwAyNokikHAGQRG3fHp0r5L/4Kqf8ABKTx3/wTR+OFxo+sW8uqeFdQkL6JrkS5t76Ilto3dA4UDdnHJ7jk/KkTMqlVYruzkBtu8emaAP7rf2dP2oPAf7TngSHxB4E8VaX4q026YsJrSYMwJAbaVOCMKyjp0xXoaTrJu287DtP1r+GP9mj9tz4ofsgeIYdS+H3jTXPDtxEwbyoZ2MB9jGflPQc+nHav0p+Cv/B438dvAltb2/ifwj4T8YxQIEaW43wyy4A5JXvQB/Tl9pGfut+I/p1rj/jL8fvB37Pvg268ReNvEWm+GtFs490txeyBABz2+8fwFfzl/GL/AIPLfjV4xtzD4Z8C+FfCwZMGVJXmkU89Nw6dK/N39rL/AIKH/Fz9tjxVdap8Q/Guua0t05YWRuCltCMkgKo4IGT1FAH6ff8ABxL/AMHC2h/taeBofhL8FtWupPDDOz63rUBMIv8ABIWCMZyyHALEhfvDGa/Fh4zL83zbjgBTkkk9hTGYEKfmZsck9vpXvv8AwTx/YB8af8FBvjda+FfC1tcJYRnztX1VhtttJt15aWR8HaoGexPtQB7z/wAEKf8AgnM37U37RFr4+8aWhtfhB8OZV1bWdQmZVt7x4iGW155O88HFfvN+yHpl38e/jVq3jCazktdPupmTTbcD93a2asREiewTaK+aPBfwe8Nw+DfDfwQ+EtuzfDvwbubUNSjRQ/iC9AA3ud3zIHBPPbBxnIH6d/si/AiP4a+ErMMvlyNEu8ccttXPA4A4xj2oA9O8S+C4fGHw3vtEuFLW+p2b28ijqyshXH5Yr+Jf/goN+zjq37LH7Yvj/wAF6tZSafJpmrztAknV4XdmRh7YP6V/cFe6eLuwlh3EblKBgcFe9fjn/wAHKn/BGa6/bN8HXXxl+G9isnxH8K2uzWNNiQFtWtACNydywGeOKAP5z/gr8UtW+A3xW8P+L9EkMGteGr+LUrZlfayPEdwH0bjp2r+s/wD4JZf8FVPhN/wUB8C6N4m03xNpuieOHto4/EGiXd2EmNyI08x0DHG1mPHI6V/IlrOk3GialNZX0M1rd2rGOWKVdkkLLxg5weMYqfwx401Twbqf27S9SvdNu/4pbWYwsfT5l5oA/vTtvEFjPEWjvLWVM4DJKrD884rkPil+018P/grpMmpeKvGHh/Q7OFSXe5vUG0DvgEn9K/igT9uv4xW1skMfxK8ZfZ+yDU5tqj06jNcj4z+NXjD4juza94k1zUt427Lm+dlYcnkM3Tk0Af0d/wDBSL/g7P8Ahn8EdHvtB+DVqvj7xSwZUv2Yx6dbEEjcGAYlh1HyjORnFfz5fte/ttfEf9uP4tT+L/iV4kvPEGpStiGOVsQ2cZywRFAAAG4/rVX9ln9j74ifti/EG18L/D3w3f8AiHULuQK/2cfurcdy7khQOnU19Vf8FU/+CMq/8Eu/2d/h3qmseKLPX/GXihnXVrezdGs7Nhk+WrBtzOvc4x9aAPgmM5P/AAJc/ma/pA/4Ij/8okPhD/2Fr7/0elfzfwjKZzuO5cKOuOT/AEr+j7/giM4/4dKfCBSdoOsXybj0B+0Af0oA/WbX/wDk3HxB/wBgyf8A9Aav4fPjX/yWHxV/2GLz/wBHvX9v+uXKy/s368VzhtNuB9Dhx/TP0Ir+IH40jd8YfFh/h/tm859f370Ae8f8Edfj94X/AGZf+CgfgTxd4yvV0/w7ZXDJd3DD5YVbb8xr+qz9ir4p/Df4l311rHg74jeGfFFlfXElxElpd/vFDkMF2sF5AI/Ov4vtIsJtSuVjtYnmmOQERPMZh/u9ePUCt7wV8WPFHwpvlm8P+Ida0S6jJw1neSQYweyj6d6AP7yoLqOZflYHPIx3FOM6g88Y9a/jD8Bf8F0/2qPhxpUNnpPxc8TLBbjCCSXzWH4sK0vEf/BfX9rXxlpz2t78YvEnlvlSI8KSPThf60Af1jftY/t2/Cv9jnwJe6/4/wDGGj6Ha29u7JFNcATXDjoqIOSTgjJwK/lZ/wCC4X/BYHWv+Cqv7Q63Fokmn/D3wuzwaDYOdvmjkNcSLkgMSSBgnhRXyF8UfjZ4u+NOuSah4s8Q6vrl5Id2+8uXnwck8KxIHU1meFfBmqfEDxFa6Toun3mqX17II4rW2TzJJHPCgBemT+FAC+CPCmp+PPFOn6Lotnd6pqepXC21raQR7pLp2wNgHc9+vpX9E37Iv7Itj/wT3/Y58L/BG1MDfEzx1cR6943khO6W1VV3xWrkDsj8j1OOgzXgH/BMn/gmvZ/8EvPBWnfF34pabFf/ABq1q33eFvDFyRJ/YayKV+0ToBw55AA3Ebe1foT+wh+zpq3jbxxN4w8QtcXGqaw4lnnZdxOQuQCedvYdOlAGp+2D/wAE3bX9un/gm3q3wjupFsdXsoU1Lw1KFLGOeNARHkjjdgDAB5r+Un4y/CPXvgh8RtY8L+KLG40rXtFuntr23nTa6OpI6e/XPvX90V74Ob+wlhRvKaPDoy/K0bL90g/lmvy5/wCCzv8AwRF8M/8ABSEXHinwq9p4W+NmmwllZlWO08QAFsI7n+M5IBx1oA/nt/YE/b08ef8ABO/9oLS/HvgW+aG7t3K3VmHxDqEJxujfg8EZ+lf1F/8ABOH/AIOAP2fv24/DdnaW/iG18E+LDErT6Fq04QhyBu8pzwyly2M4NfylftEfspfEL9kz4g3fhf4heF9U8MatprMGiuotu4BiNyuMqc4OOelcFbapcaXfRzW9zJDNb/NE6ttcE+4xQB/e9pWv2Ws2qzWl5a3cMg3LJDKsisPYg1bEykfxflX8Sfwf/wCCq/7QvwAsYbXwv8VfFFhDGmEj+2eeqD0AOcdOma9Nj/4OE/2vltPKHxk8QBemCi5Pv92gD+xe71i1sYvMmmihjHV3cKq/Ukivnv8Aah/4KsfAT9krR7y68ZfEnw7Yz28fy2kVwJbiUgnIULxk4wMkciv5Kfi7/wAFav2jPjrp32bxH8VfFV5FjG2O7MIP124Hevn/AFnxFqnirUftOpahcalctlme6uPOP5saAP2Y/wCCpP8Awdn+KPjDpmoeDfgLY3PhDQ5sxN4hlk/4mE8ZLKyhASFBBBBDdzX6uf8ABCb4t3mo/wDBLv4T6lr2qX2patrSXDz3d3MZZbhhJgkk/UcV/IZ4Z8Kah4w1O2sdMsLq8urh1iSOFDIZHY8YAHfGPSv6mf8Aglh4f1v4XfsE/s8+HtcsbrRdYgtdRa60+6AWW2yylDIATjODQB+oem3P2uzWTn5ievscf0qeszwg2/QoW+b94A3PuoPFadABRRRQAUUUUAFFFFABRRRQBg/Enw+/ifwZqdijIjXNrIgZl3ANjivzN1CJtG8TMu3zJLG4dM5K4dCOfpnNfqRdrgs3zFdvI7EDOf51+c/7RWiw+G/jLqlrCojjkvld/YOW/wDrV7WT1LTcO6PleJIpRjU8z70+CniAeIvhlpF1hf3lun3TnPyjOffOa6yvEf2DtabU/gHYxzSbprWeVCM8qu7ivbFl3Z4bgkV5NWPLNxPoMHU9pRjLyHUUA5orM6gooooAKKKKACiiigAooooAKiliZpt2du3H9c/zqWkYbloA+Tf+Chv7I/ww/aZ8NyR/ED4e2PjLyYBHHMQY7mJcjOGAPocDPU1+RXx7/wCDeP8AZ0+Jmt3Eng/4j+IvhxfzO2yx1iFGtVYsSFDZLYwQOmOK/oU1rw3DrNt5Mw3RsfmAOM/jXjHxQ/Yt0PxrdNI0ccm/tLEshUc9CRnNAH85Hj//AINXPjLYM03hHxh8PvF1mwzF9n1Hyp2+qFT2xyD36cV5D4n/AODb79r7QJmFv8JdV1iMH5ZLGWNlceo3FeK/ou8Yf8Ez4UupJtPmv7ZiuFaCUx55PYD+RrjLz9gbxdaf8e/ijxJDtGFH22b5fYfvOlAH4E+EP+Dbf9rzxJPi6+FepaHHnHmX80SL+jGvYPBf/Brd8UNHhjv/AIlfED4f+B9HU/vi975t2o9Au3H+etfr7cf8E/fGmpnbdeKPEcy7vunUJQuPpv607Qv+CUf2zUhNfSahfMSc+dNvU59QxPNAH57/AAQ/4Jkfss/sga9DNu1n49eMFybaKaMLpUEoA2vuQ5PIOQVz0r6w0z4X/EL9ribTdP1izg8P+C7F1+yeH9LhFraxAAY3Yxv59R6V9hfCz/gmX4f8IxQlrOJfLOAjRDn3yv5fhX0R4H+BGi+DbSGO3tbdRD28nH9TQB5j+yz+yjZfCrQrdmjVZtoyFUKM4HYcDgD8q9i8ceBbXxXo8kMlvGylcDcOVI6EehFdBBaLa/LGkcajoFGKcRJk/dxQB8Qftj/s3aJ8Y/Bcnhz4l+FdJ+IXh7aQFnthHeWo5AdJepYehIFflF8fP+Dar4R/EHVrm8+GfxXuPCtxK3GjeIYhGisSflV13kgZA6Y4r+inxB4ZttcgaO4hhkUjgFO/1rxb4n/sVaD4vBuPs8f2jk7wgOM9un+c0AfzV/EP/g10/aY8NTy/2DZ+HPGVqD+5l0i+VxIO33lXn615qP8Ag3X/AGxDqrWx+C/iLav/AC1WWExn8Q5r+ijxF/wTrvbIzNpmraxacEAw3Ei45PYECuRm/YK8bNH5cfirxIFVu97KM/8AkQUAfib4G/4Nc/2lNe8p9etfC/g2GTl21bUNrRj1KhT+noa9y+HP/BAv4Dfs8sl38YPi7ceLNStSGOi+FVGyc/3HZgDjIIyO2OK/S5/+CZGseIbny9U1jXLpS2/D3MkgJ/Fjxx0r0D4ff8ErdF0W6WSWFDcHB83ycNn9fzoA+SfhWLv/AIQtvA/wS8Ew/DHwS37qaW0jUahqq4APmzMoYDG37ue9fYH7EH7BNr4HWG8vo5JLl2VpWcAtIOpLEdSenPpX0P8ADD9krQvAlvDmFZJE6mQbyfp0wPavV9H0eDSY9tvHHEgGAFXFAFbQ9C/smySErF5YBBRV245G3p7Cvya/4Lef8EJbL/goZ+0dZ/ES++J1n4Pht9NWwktrhQwJVQN4JGeuR+A98fr0qEHJPNeffGD4J2HxK0+S3uo94kGRmJXx+JoA/nO1b/g2j+GWmXzQ3P7THhy3lUfMHVR3PtVdv+DbX4WmMqv7TnhtsBiPkBXdgY5C1+2et/8ABMTw7ql4zmziKtySLfv+BFUJv+CV/huQY+w2/tutgT+uaAPmD9g/9mrwl+xB+ylpfwk8M+OLT4hXmpa4+qy3Vqv7q3BcsFzxz0PTqT7E/qT8Fo2i8CWIf7/ljcCOVIAHP5V4r8I/2D9D+H1yskduke3j93CEwR34r6J8P6Y2l6fHCf8Almu3pigC3KjPGwXHIIr8t/8AgvD/AMEVbP8A4Kb/ABR8K+Lrr4j6f4Jj8K6fLZeVclQZA8isXGeecMPTge+P1KAbd221xXxT+FFv8QNMkt7hFdZFxyit6+qk0Afzhap/wbQfDPR7nybr9prw1DIg6MF55PtVdv8Ag21+FccWf+GnvDB3cYwueo9q/bbxJ/wTI8P65ftI9nCR94EQDr+G3+VUG/4Ja+HQ2fscI45zAev50AfIH/BMz9jzwb/wTz+BXiTwT4e+I9n8SLrxhrEF4fsKDbbBAR8x4HcHjJ5Ptn9GvDXga6Pw7jkt9slytqIpEMfyTKEX5Gz1XO7865f4SfsB6L8PtUFzHbxqVbI2R7c9OtfR2h+H107SltW+aNeAhGMfjQB+I/8AwUV/4N+vg7+1l4+1DxB4R1RfhR45vn8yS0mRTpl3J3cL1G5sjgdAK/OH4s/8Gx37U3gK6m/sPwnp/jy1U5S50C9WVZRk4wGC4OMce9f1M/Fj9nnTfiAG8yOPzFjxGfKUlck55xmvmTxt/wAE/tSsLiZtF1fWbMckGKeRTn/gLAfpQB/O/wCBP+DcL9rfxbdGO9+F2o+H0U4MupyRxxxj1J3Hj86+jfhZ/wAG4XhH4JQLq3x++Lmh2v2chm0Tw3OJ7m6HHyE8YJORwe1fqjqn/BP7xnry7LrxP4okt8lXT+0Jfm/N61vAX/BJ6xjmim1A3VxPv3F7giY9vb+tAHiP7FPj+w+CnjLwr4d+EPgaHwH8OdJv45L64WALqOtwY2t5zsMjIA6MQeeleB/t6f8ABud4R/aB/aN8W/Eq6+OGneH7XxVfSXy2s0Kr9mDMSEHHOBjn1zX7HfCP9j7QvAunbFtLdOADmHcXPHJyeB7Cm/Fv9kDRfiDD5UlnayRY+UG3XC/zoA/n5k/4NsfhbC21/wBpzw2jejKoI/Shf+Dbj4XLE3l/tN+F2PAGduSfbC5r9qLj/glt4akndhZ267jkj7Pjn8CKZF/wS38Pw3Uci2ML7P8Ap3X+bBjQBzX7Onh/QtCvPAPhnw5rkfibT/B2kx2L38R3LO8cSqdpH4HnHWq3/Bbb/glna/8ABTr4MeF9Em8c2/g+XwzKLkSSLlXBHOcj0/lX0z8E/wBlzT/hRDAtnH5AhYdUXcR/F0AHpXf/ABB+H8fjHR2trhfO3KV2kDbjJx2JzigD+b7X/wDg2N+HPhq+aC9/aW8N28i8lWRVx+nsazf+Ibn4U5/5Og8L/iyD+Yr9xPFv/BN3Q/E19JNNawuX/u2wAHXjgjP1rHH/AAS28PbMfYY15/hhoA+G/wDgmH+wh4A/4Jk+CfiBHonxV0/4kah44ijtEt7EBlhCqw+YjAHLA9zj8M/qr+yVZS2PgOxjm3GTywW44XgcV5h8Pv8AgnVofgzWIbqKz2tG2S4j59q+lfAvhaPwzpKwqoVl46UAbijApaagKjmnUADDIrN1vQU1mzeGYRtEylWVl3CQHqCPyrSprLuoA+Uf2p/2eND+I3w/uvDnjDwzpfjDwjcZEmn3UH+o3cb4nwSrAAY6Cvwt/wCCgP8AwbK+KtKudb8Vfs9Xi+PNDjzcnw04Eeq2KEklETkMqjGCG55r+nTVtFh1S2aGRV8tuvy5zXg/xb/ZPju9Qj1LS7u4stShcyQSwZUIx/vbSCfoTigD+LP4j/BvxV8JfEk2j+JNB1bRdSt22va3duySKRkEYx2INc5JbOg7jHUFTkfpX9ffxX8MeNvsjW+ueGfCvjxrf5IJtS0i3VvdWbYWx3zk8k18z/ET9kD4Y+NL15PFH7L/AMP9Un37naJ5bcEdeNgx1z+dAH8zKIzDozfQVseE/AGueOtTFlo+k3+pXjKWEMELO5A5Jx6Cv6LtL/ZS+E/ga68/wr+yx4C066jfcjyyyy4P/A8/yr13wH4t+J3h2a0k8K/DjwH4PmgkEYubXTbeR3Vsfu8tHnBAIJ9+9AH8sVzp01ncyQyoUljbY6nqhyQcjtyO9fY//BGT/go3dfsF/tAyabrLed8NfH6nR/FdrwhNu+FMivkEFeCfavr7/g4u/wCCXVvZacn7SXgHRZtNsNdYReL9JRVWPTbrlTMqqAFRiAfyPcgfj4W+y3HzLuZdvB6HA5B9jQB/ZX+yJ+yr4b8BJbXmi/Z7zQ9VhS80u5EW6J7d1VowGGc8evOc19c6dYpYWwjjiSJVwBtGAeBzX4I/8GuH/BZOPxRpdv8As8fEfWGTVbYh/CGoXFwR54GM2rZ744XGc98V+9WlaiLqJ9y7ZFJJAOc8/wBOn4UAXFi9Omea4n4n+C7m5VL7T5jDe25LQ4TcoPfcP4gemDxXcqMCmyxeblT93FAH5C/8FDf+CSHwD/a68RXuoeNvD+pfDzxVc/NJr3h60UQ3D5Y7nQ4UEknPtjivz6+IP/Brdca7cSf8K5+NvgvWFHKR6xKIZMc8EhcA4xx+tf0meOvglpXjW3dbmGKRmGCzruP5dK+f/iJ/wTs0fVfMa2S4jEjbiIf3Y/8AHSv8vxoA/A3T/wDg1T+Kli6ya98UPhPp9pu+Zo9W8xgvt8vXrxXpPw8/4IQ/s1/AzV1uviP8XtR8eXVmw36N4cgzHMwwdjyHGOfTtiv1h1f/AIJaQXVwm+61Bosf6sSyAD0P3jzW74E/4Jg6Hpc6yS2qNMuB5kkHmMfxJoA+Pvhhqmsf8Iuvg74NeBrX4XeDXeMPPZwouoX0S5BDuRkEjHINd7+0/wD8Eo/h/wDthfsq+BfCnxN1jxXoM3gtp57e50yNLiSfzHZ/nZiCT8xGTzwK/Qb4bfso+HfAyqUs4flPQxdeB712uv8Awv03XNK+z/Z0RF+6F+UflQB/Pv4l/wCCEP7Ifha/kguPG/xldyCmYbG2bblSMncTjnPfpX3D+yH8Mvh/8FPgt4D+FHwxm8S6poPh26ubmW61uFI5maWQMoGwYwMZOe5PJ7fZnib9hzw/4gvXma3QvIfm3Ln8q6H4f/sqaP4HljNvGoRT9zy8fjnrQB1Mfh+PxF8J7rSr5ttvfWssEjRj7m9cZHuM1+JH7QX/AAbh/sxeAPF+p6lrnxA+JrSandSXXl2lnbFId7ElRuJJ+bdznv0r95E0zZYLbhysajAG3oK8z+I/7L2k/EKVjeKZupBCgYoA/F/9kn9g79mL9h74xR/EHwbefELx14k0qznhsNH1zToDpskrrgNJsB/HvwK0/i3/AME4P2d/20NOutU8XfD3UvhP4jv3Mk+p6Bbbrd3PO7axUA5J/ACv1b0v9gbw/ZvH5kMLiN92wgqD+IFdhdfsl+HrjTxGbO1BUYHyE4HpgnH40Afzu+Mf+DX3TvE14/8Awrz45eFL0SDMNvq8iwTDrw2Mgdu9cmn/AAaifGiK5H2j4kfB+G1zzJ/bXzY/3dv9a/fXx/8A8E4dF1l5ntLfCyfM2zMZ3e23HtXm19/wS7jupdoN95QPK+ZICvuDvoA/H3wz/wAG5Pw3+GlxHN8UP2gPD8McbbZbTQSs1xLj+EK2Ac885r6l/Z08CfDH9lRhpv7Pvwxtm13GyXxZrtsst6x4AaNCSoxgEc9Sa+49K/4JWaOt+rXEE00n8LTKHwPX5gxz+Ne4fDX9hbw/4MhhzbQsYzkq0Od3vnr+HtQB8m/s1/sX+Ifid8QT4s8aXl5qmtXB82W6nG8uxxn5eijGAADX6FfDD4XWXgXRreK1Xy1jTaOME+5rY8M+DrXwxbLHbpGqrwAqbcCtaMMAd23rxj0oAQxZTBrhvit8ILPxxYsHRVb7ysEyVYdDnggiu8prqWDe4xQB8H/tWfs/6d8Q/C8+g/EfwTofxI0fy2AlvINt5CDwNsgBbjGce9fm78af+CBn7MfxTvLm60TxF42+GN4wAMckCPYxn2JJPfHToBX7/wCr+FLfWbYxypD8wwWMYZvzryn4jfsdeH/GabpLS1eZRwzxb9wOcg9v0NAH87/iT/g1yutbkb/hDvjf8P8AVFb/AFBvLkQlx74WuZf/AINSvjYk/wDyUL4P+V3k/tonA+gTH61+8fif/gmZo1wHW1WaBeq+SPLC+2FIrjbr/glqrPthutSjjPJ2Sycn/vugD8bdF/4Nf7nwoVm8e/HX4d6PZryz2EvnOD6Zx/SvRPBf/BIL9kf4OXMcms+MPHXxU1KHDLZWkcUdhK3Q5YYPb64xxX6mWX/BKKxkuN1zHPc+jSp5h/8AHia9D8Bf8E0fD+gIm+1aNlfcRsVAenYCgD4Q+EX2f4aWqaX8G/gz4T8FWcaqIb+eyjurwMOjkuDhunQ4r6//AGUvg/4z8QeMbbXvGmoXWrX8owzzKFwpwTtVRtHJPFfSvhD9lLw54cRCtjbKynum4mvRtE8J2eiRhbeGONV4G1cUAWNBtWs9Ljjbqgxx6dv0q5TUTZn3OadQAUUUUAFFFFABRRRQAUUUUAV7kZf7x6Yx618K/t3abb2Pxju5I9kfmRxFxuC5PJXGT7193TQmR1YY+U5/Qj+teX/FP9lDQ/i94hbUtUkuI52VFxERg7RjuK7suxEaFXnl2PLzbB1cTQ5IWueb/wDBO/UTdeHNcjWRdiyxsF3A7SQM9K+l1PX6/nXA/B/9nTSfgtPdSaVNcP8AbGUyCUjHHpivQBGR6dTXPiKntKjmup0ZfRnSoqFTdCp0p1IowKWsTrjsFFFFAwooooAKKKKACiiigAooooAay5NNeFm/ixUlFAEJtjj5sSe7HFNOnRt/yxg/FN1WKKAKv9lQj/ljb/8AfoU4afGvSO3/AO/dWKKAI442jGBsUf7IxUijFFFABRRRQAFc0YoooAjkt1c/cQj3qM6bC/3oYSfdc1YooArrp8Uf3YYR9BipY4gg+6v4U+igAK5oAxRRQAU1g2flxTqKAGgMepx9KXb7mlooAaQ2acoxRRQAUUUUAIQT3o2+5paKAGkNmnKMUUUANcZHGPrULWKt95Vk9ycVYooAq/2Rbt963g/Fd1SRWaw/dWNB6KuKmooATBFIyMx+9inUUANUMBzg0pBI64paKAGqpUdd3uacM0UUAIQT3pNp/vfpTqKAGlGz978MUq5xzS0UAFFFFABRRRQA1lyaRo9yY+U+mafRQBl3/hKz1Y5uLe3kPumaxbn4N6RdKwa3hXcc/KmK66igDz1/2eNE8zd9nt2/3o81oWfwb0Ox2qun2eM7siL5gw6EGuwZcmgJQB4r8f8A9m/w38S/hx4g8Ma5pdvdeG/FNnJaalCYw+VIPzgEgbgSCP51/Iz/AMFX/wDgmV4r/wCCaX7TmoeFdWtZ5fDeoSNc+H9UK/ub+1LMRhh/EgADDt7jmv7RtW0xdRgZWVWUoVORuyDw3H5V8R/8FZ/+Cd+i/wDBQD9krW/AOq2kX/CQWET3PhLUFiCyQzx5byS3JAfODjPGKAP5B/BHi3VPAXinT9Y0XUZtM1TTJRc2l3A5SW2kUghgfXj9a/rl/wCCIH/BUew/4KM/sl6JrV00dp4w8NrDpOvW65YNIqhVmz/tYyc4696/lu0H/gn38YPFv7QU3wx03wH4ivvF0V89i9tHaMqIykDIkYBdo65J6Yr96v8AglV+yXpH/BJ3wVP4Dk1qPxJ8VvGEi3HidbO6LWmj7VDLACAMuuck46sRngEgH7NaXeC+s1k/vZ4NWAc1x/wc1CbUfB9rJIcsFUHk9di12A4oADUbxeb95VP41JRQBELYAfL8vsKese1cbvxp1FADI4yB8x3c0/GBxRRQAxlcnqBSoGC88mnUUAN2seuKVRgUtFABSDdjnFLRQA0pvHzfoajazjJ+7+tTUUARxwLEPlG39acNw96dRQAUUUUAFFFFABRRRQBFLbrK+5lDHGOuKT7Gp/gH4MamooAjS1VP4f1pyjbTqKAGsuTSqMClooAKKKKACiiigAooooAKKKKACiiigAooooAKKKKACiiigAooooAKKKKACiiigAooooAKKKKACiiigAooooAKKKKACiiigAooooAKKKKACiiigAooooAKKKKACiiigAooooAKKKKACiiigAooooAKKKKACiiigAooooAKKKKACiiigAooooAKKKKACiiigAooooAKKKKACiiigAooooAKKKKAEOe1YHjrwnH4j05lIZJAAUkQ4aM+o966CmuGPTb+NAHxn+0F8KfHl9dSJod5Z2ImHly3Vvp6LdSIchgZQN27GOawf2Sf2BE+HOofatQWS8uJJvMeWVczSgnJLMeWPIGfavuK50i3uz+8hjan29hHar+7jSP6UAUPCGjf2LpKwkbSrHjHAHYD8MVqqCOvrQucc0tABRRRQAUUUUAFFFFABRRRQAUUUUAFFFFABRRRQAUUUUAFFFFABRRRQAUUUUAFFFFABRRRQAUUUUAFFFFABRRRQAUUUUAFFFFABRRRQAUUUUAFFFFABRRRQAUUUUAFFFFABRRRQAUUUUAFFFFABRRRQAUUUUAFFFFABRRRQAUUUUAFFFFABRRRQAUUUUAFFFFABRRRQAUUUUAFFFFABRRRQAUUUUAFFFFABRRRQAUUUUAFFFFABRRRQAUUUUAFFFFABRRRQAUUUUAFFFFABRRRQAUUUUAFFFFABRRRQAUUUUAFFFFABRRRQAUUUUAFFFFABRRRQAUUUUAFFFFABRRRQAUUUUAFFFFABRRRQAUUUUAFFFFABRRRQAUUUUAFFFFABRRRQAUUUUAFFFFABRRRQAUUUUAFFFFABRRRQAUUUUAFFFFABRRRQAUUUUAFFFFABRRRQAUUUUAFFFFABRRRQAUUUUAFFFFABRRRQAUUUUAFFFFABRRRQAUUUUAFFFFABRRRQAUUUUAFFFFABRRRQAUUUUAFFFFABRRRQAUUUUAFFFFABRRRQAUUUUAFFFFABRRRQAUUUUAFFFFABRRRQAUUUUAFFFFABRRRQAUUUUAFFFFABRRRQAUUUUAFFFFABRRRQAUUUUAFFFFABRRRQAUUUUAFFFFABRRRQAUUUUAFFFFABRRRQAUUUUAFFFFABRRRQAUUUUAFFFFABRRRQAUUUUAFFFFABRRRQAUUUUAFFFFABRRRQAUUUUAFFFFABRRRQAUUUUAFFFFABRRRQAUUUUAFFFFABRRRQAUUUUAFFFFABRRRQAUUUUAFFFFABRRRQAUUUUAFFFFABRRRQAUUUUAFFFFABRRRQAUUUUAFFFFABRRRQAUUUUAFFFFABRRRQAUUUUAFFFFABRRRQAUUUUAFFFFABRRRQAUUUUAFFFFABRRRQAUUUUAFFFFABRRRQAUUUUAFFFFABRRRQAUUUUAFFFFABRRRQAUUUUAFFFFABRRRQAUUUUAFFFFABRRRQAUUUUAFFFFABRRRQAUUUUAFFFFABRRRQAUUUUAFFFFABRRRQAUUUUAFFFFABRRRQAUUUUAFFFFABRRRQAUUUUAFFFFABRRRQAUUUUAFFFFABRRRQAUUUUAFFFFABRRRQAUUUUAFFFFABRRRQAUUUUAFFFFABRRRQAUUUUAFFFFABRRRQAUUUUAFFFFABRRRQAUUUUAFFFFABRRRQAUUUUAFFFFABRRRQAUUUUAFFFFABRRRQAUUUUAFFFFABRRRQAUUUUAFFFFABRRRQAUUUUAFFFFABRRRQAUUUUAFFFFABRRRQAUUUUAFFFFABRRRQAUUUUAFFFFABRRRQAUUUUAFFFFABRRRQAUUUUAFFFFABRRRQAUUUUAFFFFABRRRQAUUUUAFFFFABRRRQAUUUUAFFFFABRRRQAUUUUAFFFFABRRRQAUUUUAFFFFABRRRQAUUUUAFFFFABRRRQAUUUUAFFFFABRRRQAUUUUAFFFFABRRRQAUUUUAFFFFABRRRQAUUUUAFFFFABRRRQAUUUUAFFFFABRRRQAUUUUAFFFFABRRRQAUUUUAFFFFABRRRQAUUUUAFFFFABRRRQAUUUUAFFFFABRRRQAUUUUAFFFFABRRRQB//2Q==;" vertex="1" parent="1">
          <mxGeometry x="630" y="258.63" width="109" height="41.73" as="geometry" />
        </mxCell>
        <mxCell id="473zDxLhcldlXg5GOI97-28" value="http://173.20.15.201:8081" style="shape=image;imageAspect=0;aspect=fixed;verticalLabelPosition=bottom;verticalAlign=top;fontSize=16;fontColor=#000000;image=data:image/jpeg,/9j/4AAQSkZJRgABAQEASABIAAD/4QCORXhpZgAATU0AKgAAAAgABQESAAMAAAABAAEAAAEaAAUAAAABAAAASgEbAAUAAAABAAAAUgEoAAMAAAABAAIAAIdpAAQAAAABAAAAWgAAAAAAAABIAAAAAQAAAEgAAAABAAOgAQADAAAAAQABAACgAgAEAAAAAQAACbCgAwAEAAAAAQAABnUAAAAAAAD/7QAsUGhvdG9zaG9wIDMuMAA4QklNBCUAAAAAABDUHYzZjwCyBOmACZjs+EJ+/9sAQwACAQECAQECAgICAgICAgMFAwMDAwMGBAQDBQcGBwcHBgcHCAkLCQgICggHBwoNCgoLDAwMDAcJDg8NDA4LDAwM/9sAQwECAgIDAwMGAwMGDAgHCAwMDAwMDAwMDAwMDAwMDAwMDAwMDAwMDAwMDAwMDAwMDAwMDAwMDAwMDAwMDAwMDAwM/8AAEQgBngJsAwEiAAIRAQMRAf/EAB8AAAEFAQEBAQEBAAAAAAAAAAABAgMEBQYHCAkKC//EALUQAAIBAwMCBAMFBQQEAAABfQECAwAEEQUSITFBBhNRYQcicRQygZGhCCNCscEVUtHwJDNicoIJChYXGBkaJSYnKCkqNDU2Nzg5OkNERUZHSElKU1RVVldYWVpjZGVmZ2hpanN0dXZ3eHl6g4SFhoeIiYqSk5SVlpeYmZqio6Slpqeoqaqys7S1tre4ubrCw8TFxsfIycrS09TV1tfY2drh4uPk5ebn6Onq8fLz9PX29/j5+v/EAB8BAAMBAQEBAQEBAQEAAAAAAAABAgMEBQYHCAkKC//EALURAAIBAgQEAwQHBQQEAAECdwABAgMRBAUhMQYSQVEHYXETIjKBCBRCkaGxwQkjM1LwFWJy0QoWJDThJfEXGBkaJicoKSo1Njc4OTpDREVGR0hJSlNUVVZXWFlaY2RlZmdoaWpzdHV2d3h5eoKDhIWGh4iJipKTlJWWl5iZmqKjpKWmp6ipqrKztLW2t7i5usLDxMXGx8jJytLT1NXW19jZ2uLj5OXm5+jp6vLz9PX29/j5+v/aAAwDAQACEQMRAD8A9AGkABht/Wo30XjlePXHT/P9a3RDmQZz+dJs+b/PWvpj50wW0AfxDP8AWmt4fUp8v410D22Om3A/nTXi+T6dqkZgnQ06Ee9RjQ1PG1etbzJj5sdPShbbB+nQ46VTQupg/wBgrt4AP4dfShdEVx93v6dK3Ehyf880ht8DPGe+fSpsGpkf2EqP9386Z/Y6x/n0P+f8/lW20KkdAD7UjW3y/wAXy/p0oH5mR/ZI4+XC9yR9ab/YyqnThvUfh/n61sJDuT8KaINi/L0z1oGZB0kDtn1pP7J2kAr789v84/SthLfJ7dckUGJSvsMHp0oAyDpAJ6Yz09v8aWPScfw+/SthIN46e/pS/ZwB+OBmpAx20sHt9OKjfTcDpnb1wK23tgvaozb8dB6+lAGDJpanjb7VHJpikcL3x7VvS2gOfl7flULQZb9R2zUgYEmmLwdvHTkdaUafxhh7Z/GtwWikCozZ7zxz70FWMlLD/Zz+HT/P+fZfsh/h/Qe1a4tgD6LjP40f2fhvx7UCMqKx5+78vfPYUv2Fgentg1rpaZO3vnt2pRZ7z0PrwKBmP9hyPuryB26VJHp2T0+vFai2WT93Pr71Mtl+vNAWe5lw6dgfyq9b2PXgev0q5FZ7m+7/APX/AM5qxDa/MSB2zzQNIqx2PT5atJbDbwvbrVmO3AGP5VNHahT055xkVNxlJbPYTwAPcdKkW2yPf61oLAGHX2xQIMP06/rRzAUlsvvbR/8AWpY4BV/7P8v49xSiHK9Pxo5gsURa4Tv+JxmhYPn4BPFXhFg549fxpFtz/hx1o5u4FZbYcZ//AF0422BnrzVpoPn6dfb/ADxThbgK1TcqxTa3+b155pxtQBz6VcSA+57dac1tkY9ianmHYom1JyfenJb4/Lpiraw7T0pfK3EexpXGVlhxjHp6Uhh2npVtIOn+1/WlMAqblaso+Vzn09KPL+YcY44q8trhcmjySr/jjrRcFcpvHnrj+VMePHSrrR7Dnn1HFRNCCO+KlFFR4Rt4x7U1ovl9vpVopt+Uj6EDpTTCzE+/GBTF5lNosnpULLg8/WtB4N3GOgyaha32+nHPSkMqSH933qsYvn+YdvTr7VoPDt5ww/pVWS37+2QKAKskfXb8zDpzVO4tctz+Hbv/APrrUdOnH/1/8/1qrcR4P15FIDNu13Z/velUZosA7vXr6f5xWpcR4dvQ9OM1Tlj3qPl+oI6UXAyrmHae/P41Rurfdn6VrzJkdPzqlcxfIfTp9P8ACmBjTxYX+ZzVaS357jv16cVp3EPz+vOaqyJ83rgZ6UEmbNahT/P9ariEA5bnuBWlNFjufXnrVdoF3/wgfyp3CxRkgDHI6/z71CIDx/jwa0Gh/nzUZTb69eucZouFivJFtB+YYPX1Apgi+bOM+tWTF5jf54prDjnP5fnTCxXaHj12+vb/AD/nrUUsJK+3qc+1WS20+2Oec59ajO1O43c9aRW5Rmi3H8PTBqFo8p8w6eo5qxLKof5mA6Y5qvJOrKdp7/5NCJK7RDbyc7T2A59KhZSOg/LtU0t7EyD5j07D/P8Ak1DPeqnGDx+X+ev5VWpJDOuSG47UA+WMeYR+VNe78uTgM3sB1qtNcuXysfB9aAR9blPlPFNZeP73PappEAOcUhX5fbntXYc5ACdtNaMEfl0qfCgH5eT6mk2bV9fSgXqQ7ct02896Ej3N3/yaeEwR29PelI+X8fWgCLbkd+f1pDHjngfXtUwj3f8AAeOe1NDg8Ddn0IxQMj8vDYxRs6fp3qYR5PPpjB/z/n8qGX95098VNwIUTee3+NDDIz689amCHd/jQye1HMBB5e5f50ghzu9D6dqnkXav4+lCw5Td2/lRzAV/LzxwAP8AP+NSJFhPqKl2DPfPQcUqxbeaQEEke4e57+tNaLJ7e/NWjDyaa0BZvpzSK2Kvk4Xj8OKhe2D9gQeM1oGBtvv9elIIMk/KPSgZnva54x+J5oFtkn5TuBrQNvhmY/SkS1y/rtqd0GxRNtk9/wCtPFuEOfvH24q6YMnHHIoW2z6HvkDrTApG2x/XPSni2zn5e/GOM1c8jIP97r1oW32uemOnSkMpLa49alS13Dp0q35OflH5elOEG0Hdjp/n3ouBWSDaenJ/GrCQgH7uOe9SrDhent9alSHJ6fd6UgIYoemBge3apPs+X6dfWrEcOxvf1z6VJ5Py/Tt2pXKsQpCxX5fp1/z6U5Igc54qdYcp2/wpViwP5UBYjEOF/wDr0ixbm9z7dKsiLA/nigx4+maAsQiHK4/rTlh4z+VTeX8ufr0pzR/KPl/LvU3ZRAYPmxjJ+nNHkDn8/rU6x557+w6U5oePxyMVIEIi2/L/AJFHlAH8PzqfYoPXr70u9Ez8y/4mgCFYN1H2bd0x179qkNxG2PmXj9aVriMcbvyGaWpWhF5Gzj5vf2oEOY/8aeLuNR7dKT7dGV/iOfWlqMaYeO/vTfLz19Mk+tOF/H/d/M1HJerGPu/TmgY42+V56VHJbZH3fela8YpkAH6A0w3UjqQF6H07e1SMJLZQv496jMfl8d+9PDzHnax47LUbiaQ/dbr6de1FxiulQtCCP84FSLHMW+62Pc9qjktbjHTt64pXCxEYNo7sDmoZotoPTPepjYTOOdq/U1FPpkgHVcYxyaVxWK0u3Hb86rXHl/3lGOoq02kSH+JTjr2H+faqsuhyc5deOvFDGrmfNLGxPzc47c1RuJ0A4/lWncaIytzJ+lVZ9FBP3m/IUIHsZNxcIAep9yPfiqFzcA9Fbj1ram0ddudzHnpnpVJ9Hj2/xt75601IkxZpdg+7271UuJ8Dpj8a2pNLj7j071Xk0uPH+rzz0JphuYbXBC4wvTAz6f5NV5LonPTPJ69K3JNNiC/6tcA/5FVZ7JUAOxR6DFGrEYkty67iSvr2/wA+tQPIzndux2+tbktuqjGF/KofL2jHHoPcUxGKJJGb5mbjk4zzSSQvKv3ZPyrVERBVvXseeKGQ7+c8dfemx26GL9mbp5bc+o/Ko3tmC8I2Pc9a2Cm3J+bvxioWj3se+fbFJgjGmsZCScevemNp0gX+Hrkc9K1ZovXt1PcfhUEiErlfve3XH+TSEY8umO5/hIPJwfwobSt6AFlz0wO1aToQvT6d89ajn5Q+npjiqJMltNYtkye+cVGNKUD5pB+X/wBcVpNHtXb378dqhaPnofyzUlLU+q1T5j7D8+lDpuP+ean8rYKY8W4Yx7V3X1OUreXgcDp+n+f6U1l3nkfnVorzk/SoygcevGcdRRzAQgfdNHkg1ajhC/z+tNKrH7evtRcCAxfL9fUd6TysjuO3FSzzwxD5pYl75LgCoJNc0+H/AFl7ZqPeZf8AGjUB0cO0H8AePrTtnHTFVj4u0lP+YlZtz/DMG/lSr4p08rlbgOf9iJ3/AJCh3CNiwYctml8skdwO/NVl8R2zt8keoSHp8ljOf/ZKDroLArY6tJ3/AOPVl/8AQsUiiz5XPbmlSHI6d6gGrTuMR6Tqbn1IiX+cgp8eo3z9NGu1Hq1xCv8A7MaQImNvt/Hr9acYOD/OofO1Rj8umW8eT/Hejj8kNKF1g/8ALnpa/W7kb/2mKkomEBYdO+aR4ckqfyIqP7Nqwb/mFIB1/wBY5P8AKnHSdWJ/4/NOX/dtHb/2pRoA5IP84pfs+Bxx6ewpn9jakR82pQ/N02WgX+bGnjw9eOp3atdf8AhhGPzU1IWYgg+Tp+Ap32TCf0Apg8Lyhvm1PVG56ZjX/wBBSn/8IjGx/wCPzUm/7eWH8sUaDswW32n6+lKbf/OaRfB9oX3Mbxj6Ndyn6fxUDwdp5Jzbbie7SO3/ALNRoFmDCOL7zRqfc4pr3Fug+aaEfVx0/wA/yqZfCeno/wDx5W/pymakj8O2acrZWoz/ANMl/wAKVx2M/wDtazBUtdQn/gQpTrunof8Aj6iOOoU81qx6VDAcrDCv0QCpvs4UfKqgZ9MYp8yDlMWDXLST7rlseinmpItXhcfLHcN7iI8itjyt5XP407yvr19aAsZaallv+PS6bjr5RGeKcb+Y8rY3B57jGa1hHxn379qcsfzc/wAqm4zLS7usf8eb/i4/xp2+/bpbKoPq45/WtWOHcccdacsXyYo5gsZe3UG4CQrxzlqPIvmX71uufc/4VriPcPxxQIcLnHTmlcZkpY3v8U8P4ZOKlbSrjZzcLjpkKf8AGtIQ7mGe3pSlM+31o5mBl/2PIfvXDHvwv/16d/YbK/NxIR64HP8AnNaaoG4o2fnSGihDoUbScyTNz+f6VINEhxy0vv8ANV9E46GhRuz9eaQykmh2/wB5lf2+YjFPfR4U4WPP4k/1q7sGf6U4R7un4e1QUUU0uDYf3SZ9etA02ND/AKtOT6VbZMcdvSnom0t/PFDGiqbGP+4i+mBQ9spbG1R/wHrVwR7l6frTfJw/FSUVZLYKeOPXimNDuxxzVzyCwB+7/WkaPHalzMdiqEIXPcjn2qGSLJ2/3vyq1tP09OaaYwz/AHc8dSKQFMQ5601oQR64q46bwf0qPycIOaAKcsJA4GOOp7f5/pULQcdOauPFg8emOB/n1qMp8u09elAFJ4dqgD8B61UmjUH+73/z+lahhyTVea13nnP54oAybi23n/Gqt1a5/pWxLDsP+eKqzwZPy/r/ACoAwrm3VV7e59KpT22V3Fvfp61vXNqu7365qjLZ/e9uvSgDDkixuHC89u/+f85qnPB97/P+f8+lbT2zbvl/KqNxAc/hVLVkmTJFzz97NVJo8nPrWvc2+R+gNVZ4tgzj8j1qiTIuIfbtgfSoDBlFPp09BWrNHk88bv8AP+frVSW2CtVC8zPlQ4X65qORfl6noOnarbph8dPwplxbZPTB7e9AynP+8O3+97f5/wA5quybB/d5+maveRk9Pz5qtNFtbjt+go8g13KkgZ/zquF4OePYjpV50B6/T3/GoXh+UE+mQT/n/P4VIFGX5Y/4sdcCoZF3A5+XvirksHydunOPb/GoWhyG56A8g5/L86ZmVBHlf94HpxTBC38Jb86sygM2M85/z+uagI2/wsfp/wDqoKPqE6Fdn72pSFcdBEox+lMHh6Qt8+oXmOoA2DH/AI7W8Y88DcO9NeHnB3de1dPMYcqMFfC8ZHzXmoN7GbGPyApreELVvvSXzf8Ab3Jz/wCPe9bckJ3fjS+UuznPT/JquZisYa+C9PU/6gvnrulds/maVPBelj/mHWp/3o93881tKpU4NIIe/wClHMw5UZ8fhvTYy23T7FcdCIE/wqePSbeH/V29vH/uxgH/AD7VdEGfzpyx8H9Md6lsorxQMuDx+AxR5bE/ebjmrSxgL/h2pRBtqQsVvJbG7k5pwi+THPsKsCLnBHv9KlWD19aB2KIjYj+I9evrUqQKP89KsC25+77U4WuDnr2+tAWKy252rx/9el8rcOn1q0kHy05YNi/Xvj/PvQMq/ZsDt049qd5Ks44q35H0p/k4PA7VNyrFE2u0f7tCwe3/ANerxgIGR+tILfdg9/8ACpAqeR/nNO8jHb9asGDnjn1pwjyKAKhtxkflSG227R+hq55IC89+OBTWTHc8/pQBXNv8o4z+FJ5Hzdv8Ks7Mrn+KneTvHTj+dAFVovlH9OlHk5OMZx3q0Ysf0pyR89OKAKiwcd6UQ8dBVvyPb6Uhg2r9f0oArxwZP6ZpyR7j05x271MsHynGDTliwR/hQBH5G3/63WneSAf/AK1SGEt/nvTlj3f/AF6AIdnzetO8vKn0qQRZ7r19acEyB2/nQBGi+34USx4H8qsJDkdqR493H40FdCsyYPTt0pyrn/H61KIgBz6UqRcD+YFAIjZflGP/ANVLEnP+eKlMW5v1xTok9uelT0H1I1jJxjucU/Zj8fWpTDx+PpQykCpGRNHuYHnjrmkeNgv8X+FXI03Ad8DPBprpgfd47VN9SrFfy8RfdzmkaIgfr0qzGhOR+lOePf64B6GpKKhTH5UjQbjnj86tGHH4cdKDF9frQBUeHC9MetRNBsPpx2q9JB8v61GYMnj6VKKsUjBmoxFx365wKv8AlfKW/p/ntUckRP0p31EZ8kGD/iKgeP5huH19q0Xj57+31qFrfnoPypiKU0OF46CoJIcr+dXpId3GfyqEw5GPSgDPni+b6d6gkg2ru/ya0ZoMn37D/P1qOaH5SOfT6VLAx5oSRzVO5g/i/wDrVsS22TVee23A/wCc0aAc/PBlt2DVWW1w3TG3it6e1wOtU5rPjpx+VUBhTWuW6KfbHX/JzVSe0wv45GO9bk9oWLEjrVOeHP8Au+vpVIlmDcwYc54x6d6pyw7j/nn2rdubP5uvXj+dU57bC8cdP0rTmJMV7TaD3qApz9cGteS231Vnt1WTHfPHPahMT7mbLFhTjtycHFQNENpb+LpkVpPBu+h4HpVeW0KKTn/63FFwM50BO3+LnjpUEi4HTjHFXLiDBzy31H+fWonh+TbznnFAGfLh27/ietRMmfumrktqS/OenSoZYtq9/Xr/ADqRK5TePyzu6c5HPv8A/XqPy1A5fafrjNWmXltueOpFQSKXbPzfgxFHqI+u1t/1POKjaIBf93pVp05/wprJ8vuc10GRVMOefyOKQJh6s+Xtbn8qRosD+VAFSWPa3alVenH+FSyJtVhjknrUMh8lC2du3k0+gB/+upEX5fQdPpXwDff8Fh9etPihMY/Cui3Hg+K6aMRBpV1CWAMRvEm7YHK/NtKEDpk9a+8PB/inTvHPhPTdc0m6W80vWLZLu0nH/LSNxkZHZhyCOzAjtXBh8woV5uFN6o+kzrhPMsqp06uMhaM9mnez3s+z/wCDbZmkIuPu+wAqRYufr0oiXPG07v5Vaji2jPyn0ruPnVqQCPcefxwaVodr/XjIq1Gny+444pywZbPTntU3KKzQYX/6/SljgyOn51a8nYf880+O374znkGgCsLfK9/anfZuPunjn6VZ8jGO34Uv2fJ5qR2KqQYP4/iadHBk1YWLn0qRolUccHv6UDSKslvj9fxpPJyF+vHHSraxgoev40hhyf0oHYreVz75qJztXirhTHXtVadM7vyoA+Yv+Cjv7XXiL9lzwt4Zh8Lrp66p4jnuM3F3D54t4oFjLbUyAWLSpycgAHjJBFj9gH9tiT9qnw/qGm69HY2fi7RFEsqWwKRX9sSFEyKSSpVsBwDgFlIwDgeD/wDBaTU/M+IvgHT+9ppd3dD6SzIn/tCvlj4H/FzVPgN8VdH8WaOf9M0mcO0RJCXURG2SFsfwuhKn654Ir4/GZvVoY96+4mlbysr/ADvr+Gx++5DwDg8z4UpyUEsRNSkp9b8zsm+zSSa2W9rn7WRJkdOalVcfN1z6VgfC74haX8W/AGkeJ9EmM+la1brcwMfvpnhkbHR0YMrDsymuljHOD2619dGcZJSi7p7H4LWoTpVJUqqcZRbTT3TWjTGmMOo4+tKYtoz9eKmCgD9cgU5YugqiCq0fzfjTkTAxmrBiz/npSLHigVmQLHlf/r0qxD9an8ql8vb2I+tAcpAIsnB/HNSJCOtSrHsGT605VwP65oGlYhWL+XFBjyv+NT+VuOKDH2oGVwmP+BVIY/apFjx1pyoGPTIFJgV5oQCfzpu0Hd/jVhk2j2qMru/z0pboBoi2nOM08fKOaeox/dzjrTlXGf0FADYk3ineX36+ntTlXCf1p0QycfU5qRjVjwO1K0fH+eDUqJu9+O9OMW7+n+f89KiW5ZCIsr+NAXbU0cWGz6UFMn6UhkQT0pnlnP41a8o54/L1pvl7loGV3h5NN8vB79OtWlT5aa0XPpWZRTaD1+bI70wxYbmrbQ4K92qOWMED+HPtQBQkQZ/XFROmRnjjmr5iwf51Fswf5+1VzE2KMkOP/r1HJDgcdemavyQ59/5GoGgyNvWkFjOeDcf64qCVec/yrRkh2hlP5461BJErHpTFYz5oMjNV5o/k4/M1pPH1P41XkjCikO1jLmt+33fSq72u0f71ajxb+vHb6/5/rVeS3/l+dMkx7iD5vu9881RurTJ+78uK3J4Mk471VmtTvzjpVAYdzbcHj2qjPb/nW7cW+TgfNiq0lkNh6dOvrTA5+e12bqq3MO/P5dK3rqzyOAOp/H/PNZ1zbYDcfePT9apMhqxkS27Lk+/NV5Ycnp3rWa3xt6e4qtNbbm4qkIxpIM/L1+g61XkhKA8duOa1JLXLf3vT8qr3EPA+macgM2aJlbHqR0/z71VeDK/xDd0IrQcbiQfqKhmi2AjPU+lSBnyRYbuc+nbrTQrfwsfyBq1KnHb3xUDw7T/9egR9bsNp6UNFx/nirBXH5fnTfL5NdBlbUrbN2c+uaaykD6irKx/L+n0phXA6fr0oCxUK+359q5D40+Jv+EH+EPirWPuHS9Iu7sEHoY4XYfqK7Uw55HXrXhv/AAUa8RDwr+xt41k3bWvoIrBf9rzp4oyP++Wb8BWNepyU5T7JnpZLhPrOYUMP/POK+9pH5KwQ+VAqkk4G0/hxX3V/wSN/aXVLi8+Fus3GPNMl/wCH3c/dfBae1H+8MyKP7wkHVhXw2FyPX1/z+FXvC3iW/wDBfiTT9Y0u4ez1LSp47q1njPzRSowZWH4ivzTDYqdCqq0N1+PdH9gZ9w9RzbAVMDW05lo+0ls/k9+6uup+5EEew8//AFxVqNNy561wP7MvxzsP2lPgzo/i6xWOGW6XyNRtoz/x53iAebH/ALvIdf8AYdfevRIhx6+tfpNGvGtTVWnqnqfxzjsDWweInhMQuWcG015r+tH1WoRwlwPxqRIcU4Jk5qZEOO4H1rVnOiFoMEd6lWL6VMIc4/Xnp/n+tOMQA7fNznFIZW8n5W69OoHSn7ML7+1T/Z8LSmDcPpQMrCLaD/OgR8/zqyYiWz2+tAh+bpxnJFAEPk4Of0pPJLD/AAqw8eBxmlxx2pAUpE+b+9iqc6bSBj2rSZcrVWaHcfp60gPzC/4LDaz9v/ar021z8um+GLWEgdma4upCfyda+VtmX/H0619Bf8FSdW/tT9uPxjHncljDp1qvfGLC3cj/AL6kb8a+fUUN0zxx9f8AP+NfmeYVObFVH/ef5n9rcG4P2WQ4OP8A07g/vSf6n2J/wSZ/alPgbx23w31q426T4lm83SHc8W1+QAYh6LMAAP8AbVQB8xNfo2i7v94dK/CS1uJLSeOeGWSGWFhJHIrFWjYHIIPqOCD61+vX7DH7TsX7UnwRtdRupI/+Em0UrY65EMAmcL8s4H92VRu7DcJABha+h4ezC6+qze2sf1X6r59j8f8AGDhB0ZrPMNH3ZWVTye0ZfPZ+durPaIQrqCKmVMrUcKbA31JqynTb2/Ovqj8JINnORmgpk/zqcR4/2R9KUx5XrTuBXEeGPXOeacI9y/pUgXjjtQFzjk1QDTDxTtnHr2qRYgR/hTvK3fN784HSp3Ai2YXjOc/lSNFx6HnkVYEWB+uaa8e0dMU/ICIR84PX3o25bnp6evWnsuB/KnY28/kaQFfZu9+c0iR7f6HFTsn+TSMv6HtQwIhDkfjTiuzb/jTx0pcgipAb5e0dM05UC/j6VJt2nr+VAG2gqwgGQRzU8aAp/jTVi8ynKMNUSNIjZI/l4/8A10Km40uSPfmnx9f1pB1G7eMfjjNNMWfWptq7qJEz7VKKIRDtTjPtTSoJBz+IqQgqMZP0rM8R+J7Hwnp7XN9MtvCFLFmbAAH1o5RXSLZXaeRimGLGfzFchoP7QnhPxJrK6fZ6taXV0wyI45lZsfQGu0ZQ4XuMdR3olCUdxRkpaoqPFzj9fSmPHz+HSrjpv/n1qN0+XdUlFKRfm6+9MaPj05x1q08WSaiaMq3t7UAUpYuMtUMkOF9eM1emh31DJHgbaAM+WL5T+VQyw5J49zV50/Gq88OG/r/WgDM1C5SxtZJZPlWMZJrzy6/aN8OQa7/Z8l1Gt1v2BC4z7V6Jr+kLrOj3Vu2798hX86/Jn9r7w9qnwr+Pr3nnXC/v/MHzngg9Py/lW9CMZStI5MVWlThzRR+qlhdw6tZx3EDK8cgyCKJoc/w/mK8w/Y3+JUfxC+FVnIsgkYRK47ketesvDwzY+X6VNSPLLlZrCSlFSRlXdrgM1UprbGcDn0rXuY+tVpov0NIoxbi1Yrnv2qpPaADoPbnvWzNH7d/TrVO5i+c7c/h+NAGNPDnpntzVKWDYd3Rvatqa3yW2/Sqctvwc/wAXNaEsxZoCW4/l/n3qnNCCvdeccVrzRdd3JqpJBv3fn9aCTImTczcY6Z/z+tVZ4Mj/AGcYzWpcWxX+XPeqjxbT0oEZ8seB1J3elVy/l9sVfmjyO3PIqs8Sk/N/L/61Az668rJ/HrTTHgfhnNWjHgENmgw559a3Mym0XzFf596ZJCQO30FXJIeuOtNliyDTAoOMHpzmvkn/AILD+JG0j9nLRtLX72sa7CHHqkUM0n/oQQ19etFz/wDX7V8Bf8Fp/EZfX/AOiq3EMN7fSKT1LNDGh/8AHZB+deXnFTkwc35W+/Q+68NcG8TxHhodm5f+Axb/ADSPhsfMPu0oTnP9aUAdvQZp33sfer815j+yIUdT6Y/4Jg/tRr8B/jWdA1i88nwp4yKWtwznEdlddILj0UZOxj/dcn+EV+pz2xglZGXayttYHqDX4M7CAfmxg9PSv1q/4Jv/ALTw/aQ+BEVnqFwJPFfg9EsNR3t891CBiC598qNjH+8gJ5avpuHMx9nU+qzektvXt8/z9T8J8ZeD3KlHPsNHVWjUt22jL5fC/Ll7M+gkXI4H3hz6Gp0AZf6mmQx7G/qe9WIk2jb+tfaH87IBExQfn9KEhy/3eh71MY8jA+vrT0i2nigZF5YPpQIcj0qcR7TThDu/xpAVlhw1BTb8vpzzVnZt9fpijZlvxoH0K3k459+uetN8vAx6dPerTRfr+lRyREN/nmkFim8Wz+vNV548/h71flh3A/7NQpa+bPGp/iYKPxp+oj8Y/wBurWf7c/bI+Jk2f9Tr9zZ/+A5Fv/7TryhU+b1GfzFdZ8d9e/4S345eN9VDKw1TxDqN6GByCJbqV/y5rk8fN29vp9a/JqlTnm593c/0CyvA+wwVGh/LCK+5JAo2c+nXt6d69e/Yn/acn/ZY+N9jq8jzN4f1Aix1y3X5jJbMw/eKO7xH516Zwy9GNeREbV447g46U5V45z+PU/8A66KdWVOanDdO6NMdldDG4aeFxMeaE0015P8AXqn0ep+8OmXcGpWMF1azQ3NrdRJPBPE26OeNlDK6kcFSCCD3Bq4h3duc9BXxT/wSM/apHizwlL8MNaut2qaDE1zockjfNc2fWSAepiJLAf3GPQR19rRv0+lfpmX4yOKoqtH5rs+q/rpY/hvirh2vkeZVMvr/AGXeL/mi/hl81v2aa6EhTB/Hp0pNvP8ADmnpwvSnIuRXZY+dI9maSKPn8alEWD1pQAvbHejoAwRtnp2qQJ/wKhRz/KpFXd/+v/P+cUhkZTAwaPLz/WpyuaaE28fh060DICm0fl+NMYAdvfFSSyrbRO8jCONBlmPRR618Lfti/wDBUqTR9XvPDfw48maSAtFcay43xg8giEfxY/vHj0z1rWnRlN6GFbEQpRvI+0vEHizS/CtqZtQ1CzsYVBy80qoo/E15tr/7b/wq8Ozslz410Tep5Ec4kx/3zmvyb8cfEbxB8SdSa88QazqGrzsS2+4nLhSfQdB+AqhpHhfUNf8AlsdPvLxv+mELSfyFdiwcF8TPOlmUm/difrZov7d/wp12ZY4fGmkLI3AEkvl/+hYr0rw14+0XxdbrNpmp2V9GwBDQyhl/McV+Lk/wf8VQR728N60qgZz9jcKP07Co/DfizxN8J9XS40691fQbyM5zGzQkn0I6H6EGk8HB/CxxzGa+OJ+4KDeV6/407PHrx+dfHP8AwTg/bK8ZfHPxHdeHfEMMF8tjbiX7egEbHthl6EnrkY+lfZSpkc1w1Kbg+VnqUaqqR54nyj+0D/wU1sfgR8RLzw5N4c1C4urTB35VUdT3GT/SvWv2Tv2l7T9p/wCHf9t29q1i0cjQyW7sGZGB56exB/GvA/8AgoR+wv4l+O3xK0/XfC1vayO0XlXIc7cD1/z6113/AATy/Za8a/s0zavb+IGtWsb4h40ik3eWwGG/Pj8q3nGk6V1uctOVdVmpX5T6gc8MM9iK+Af24/2xPiV8CvjBcaNYXNnb6fLGHt3aEsxHfvj06V+gTJj/AIF718O/8Fg/hP8AbPDOk+KIY/ntX8qZgOin1P6/hWOGkuezNcZGXsnKPQ9a/wCCeH7SV98fvhfJNq06S6pauYp9vAJHQ47ZBr6KAyAeor8wP+CUXxb/AOEL+NN1oc0pW21iISRqTgGROv8A47n8q/T8PkevFLF0+WehWBq89JX6AvLc/rXmX7Wvw8X4jfBXWLPDblgYqQcHpj/P1r07GAO3rmoNQsV1Gzlt5F3LMpRh9eK5k7O6OqUVJWZ+Jnwg8XXXwe+OOm3sjyK2n3wguNx6qW2n9Oa/Zj4fa2viXwdY3isJEkiHOfYH+WK/JP8Abl+F8nwu/aE1a38vy4rxzcRkDjOSDX33/wAE1fi0vxL+AthFJJvurNfs8oJydycHv3HNehilz01NHl4F+zqypM+iXj+UcD8aY8f1/wAKsBOKY0e4dv8AGvNPWKnlgCozHnJ9/wBauGP2FV5E2rk42jvQBXkjBGO3biqd1cR243PIqe5OK8T/AGqP24dB+Adi8Syi6vzkLEhBY/X3r4X+Jv8AwUm8deNLyT7DKmmwMxKqMkgdvxrop4eUtWctbGQpvl6n6ktqNq7EC4h3em8UGNZULKyt7ivyAt/2zfiRZTib+15mC8/vI+BXtf7Pf/BUXVtK1aCz8VKn2eRgpuUJ2jP94dhWjwj+yzGOYQbtJWP0PePmvhf/AIKt/Bn7Tpy65bx8qRIxA54zn8+a+zvAXxB0/wCJHh+G+sZkkWZAflbOa4/9qz4cx/ED4RahbmNZJIULrkdu9c6vCWp11IqpBxXU+Nf+CXfxii0mS40e8n2LavkZbqh/yfyr6I+OX7cHh34TSNC1zG0gz9c9q/NBNW1L4MeONSt7eRoZIHaFhnHy9R+lXdG8EeKf2hfEnnxxTXTMRGrYJCj2/wAa7qlOMnzM8mniZwh7OK1Psa3/AOCqmiz3o3NtjJwdycV7F8Jf2w/DPxNiQR3UO7jlW6HtkV8U23/BNDxdNpn2hkl3YyVC9K8z8XfCbxl+znrAulN1biFsl1BUceq+lTalL3TX22Jh70lofrlC8d7bJNEyyRsPlZeQ1QXMHy9vrXyV+xB+2svjOJNK1aQJcKAroT1/2h/nvX15vS5hWRGDpIAytnqD3rCpTcGdlGtGpHmiZc8DZGfyPeqs8Ochvpz+la80J57HFUpowoPH44qDUxbyDGflI5qq9rhf8a2p4QF/Ws+5jZAfb26VQrW3Me7j3Z/SqE4+Vs9TyP8AP4Vs3EfX8hgVn3C5DAfe6dP0oJM2ePYD/sg1Vkjy3A/z+VaTxcY9Bz7VVePDfw/lQB9fGHHbjpSMmDnHvVlo8ihYty1tsSVfLyv4VE8R3dKvtDg/QVG0W49uvShC8jPeLcfp71+XP/BXPxL/AG5+1gtkG3Lomi2tqwzkK7tLMf8Ax2Ra/U64g2hsL71+OH7ePiYeK/2wfiBdL92LVPsK+/2eNYD+sZNfO8TVeXC8vdr/ADP2nwNy/wBtndWs1pCm/vlKKX4XPINuR3+nvQi5Ix93GRTwmAAfTkmlA4/DAPpxxXwPMf1jHDdxqLg/X8a9U/Y8/aNu/wBl7476T4mi8yTTWP2TV7UNxd2jkCQf7y8Op7Mory5F3f57dP5U/wAvKZx1yevX2qeZp3Tsy62WUcTQlhsRHmhNNNPqmrNH70aRe2mvaXa6jp9xHeafqEKXNpcRHKzxOAyOPqCDj/CrqJ+FfE//AAR2/aiXxZ4RuvhXrNx/xMdFR73Q2duZ7YndLAM90OXUf3Wavt9Iuf8A61fpmUZgsZh1UfxLSS81+j3Xkz+D+NOF63D+bVcuq3aWsX/NB/C/0fmmhBFhfwqUQ5Hpkdacq89v8amUf5xXqHyyK6w4APvxx0p4SpRHlulLt3N9O2aBorlfpxR5WfpUxXL0o4/+tSYWITGQAMc4qMx7RntVgp/nFMKfJ6+ppIorMuB7fSoRdJpLreTf6m0/fP7KnzH9BVqRdpPWuR+P2sN4b/Z/8f6mvyvpvhfVbtD6NHZTOP1ArLES5Kcp9k3+B0YHD+3xNOgvtSS+92Pwpjle7hWR9zPModm7ljyT+pp0ic+vrToY9kaj5v3Y4/D+lOK7Tn3r8k5rH+j0sPqRlFPT8804DGOOfTP9KAM/K3y89fSnLHzxndwT7UXJ+rmx8OfiFq3wp8d6T4j0O4+y6totyl3bSYyNwPRh/ErDKsp4ZWIPWv2i/Z++NOk/tFfCHRfF2j4jt9Wh/e2+/c9lcKdssDe6NkAnG5SrdGFfiKyhT16Hpj6/0zX1R/wSy/asHwN+L/8AwietXPl+FfGkqQh3bEdhffdhmJP3VfiNz7xseExXtZHmX1WvyzfuS38n0f8An5eh+TeLfArzjK/rmGjevQTatvKO8o+b6x81ZfEz9SlXeP8AJqRRt6Y9uOlEaEFlxgqSCCORUwT15r9GP4ysQYO3FKY+f8Km8sD/AD0puz5u/PNAWI1jwak2H6U4xc04r81A0Mxj8P0pGXAP9O1SlOh9aYUyvv8AWkM+P/8Agq3+0ldfDLwBa+DdHuGt9U8URs11JG2HitAcMAf9s/L9A1fm/DayXFxHFFG0kjsFRUGWc9gBXv3/AAUu8WSeMP2wfEaMzNDo6QafCM9FVA7Y/wCBSNVz/gmR8HIfip+0xaT30KzWPhuA6k6MPlLghYs+uGIP4V7MbU6Vz52pzVq/L52PcP2Pv+CXGmWeiWfiL4iQteX1wqzRaRnEcCnBHm9yx/u9q+w/C/w60PwXYpb6To+m6dDGoVVgt1Xp+Ga3THt4xTkXI715NSpKbu2e5Roxpq0UVXtI3b5o42XuCucVyvjz4AeDviZZSQa14d0u8EmQXMAV+ep3Dmu22fn/ACppQbvyqE2tjVxT0Z5L+zx+x74Y/Zq8R6tfeHVnVNV2/u5G3GIDPAPp1r1ry+acq5Gf5CpFh49xSlJt3YqdNRXLHYzPEniO18KaPNqF9IIbW1QtI56KB1JrxSX/AIKR/Chb6C3j8QxzSXEixr5cbkZJwOcfrXtnirw/F4q8OXunTANFewtCQe+4EV+K/wAZPBM3wy+K2vaLIjRNp17IijGMLuyv6H9K6sPShO/MceMr1KVnE/aywvo9UsobmE5jmXev0rzn9rn4YR/FX4D69prRq0n2ZpI8jJBAPSqH7C/xPHxY/Zx8P6g0m+4t4Ftp/Z0+U5/Fc/jXrl7apf2ksMg3JMpRgfQjFcsvcnZdDsjapC/Ro/DjwV4s1L4TePrPVrFvL1DR7gkBhxkcEH2PSvonUf8AgrN8QrmCOOCz0yFVUDOXYn9R7V5j+2v8MW+FX7RfiDT1jKQXE5uYuP4WPb/PevoP/gn3+xv8Pv2g/hk2rawlxc6lDM0c0XmDbGR2x6EEGvSqShy88keLRp1Od0oOzPNdA/4Kb/Eafxpps2oXln/Z63KfaIY4fvISM8nnp3r9QvA+vp4t8K2d8rbvPjVsjvxn+orynQv+Ce/wv0MfJ4egkZepfmvYPD3h228M6XHZ2cflwx4Cp6cYrz69WE17qPVw1GpBvnlc+Gf+Cw3wg3adpfii3i5hYJKQP4Twf8+1ee/8Elfi3/wjPxOv/D00m2O/X7RCpPGRw/6Yr7h/bL+GEfxU+BGtWLLukSEyLx6CvyZ+CXjG4+EXxs0fUCzRNp16Ip+3y7trZ/z2rfDy56bgzkxa9nXVRH7ZttBz2600pz0rN8Ea1H4l8LWN5GwZZowcg5+n6YrWxtFee1Z2PWInGBVa+tPtVrJHu271Kg+hq8VytQsuF/lSGfnD+1z+wB4t8c/Hl76zma4stQYbmY/6pemR/WvW/gr/AMEu/C/hHTYZtbU3l3gFt3PPf8K+u7m3WRlZlVivQkVFNwDn071r7abjynNHC01NyseKaj+w/wDD++05rf8AsmJQw25Va+Nv24v+Ce3/AArCzk1zw4m6x5d41/Wv0a1rxZp2ijdc3kMeOu5hXnHxe+KngzxJ4J1LTbrU7NzJC20M4+8B25p05TTuh1qVOceV2R8P/wDBM/8AaXvPC3jH/hF9QnaS3kG623twMdU/lX6NTW0Ws6cy8PDcJj2YEV+MniHVI/hz8bWv9LmzBa3gnUjj5SfmH86/XH9nvxzH8Q/hfp9/FJ5itEvPsRn+tdGJjeKmcmAqNXpvofmH/wAFCfhLJ8OPjPcTLHthumKnb0z1H9a+rP8AgmZoeg3/AMN4bqCGFrrywQSPmBHUfhR/wVX+C/8AwkXgZdat4t00YySBzlef/rV4l/wS2+Ln/COeMp9CnmKxzMJYlP8AEDwf8adN89KxMo+yxV+5+jBTavAHT8q88+O3wK0v4veGbi3ntY/texhHIF5OR0NelbVdVZdrKRkfzqGSPJ+tcR6Xkfjb8UvB2pfszfGNZbXzIVjlDxjpgZ5U/wBK/Rj9kf4yQ/FT4d2reYrSeUHU98Y5H+fU143/AMFTvgZHfaKNdtYcSbd/A4DDk/nzXk3/AATO+ML+HvFp0eaT92JPMiBPUHqMf56130/3lOz3PJt7DEWWzP0VnjCr36VTuUFaHE8KsOVbBH86qzW59D61yHqGbPb/AF6/nVG5iJb6HrWxcx7T7/SqVxFhT6j/ACaCehjXMG09gF9qo3Nvs3N14xitiaLcvO7pxzxVGaH5ex9c1RJkTJgEeh/nVV4Ax+b+Y4rTli2r09O1VXjAP3f1oA+vjFuHH60oh3/SrIhwcf8A66cIuemOuK0AqG39ufSo/K/Kr/k89vyqMxbT0wKAMu/TyLaRjtwASa/CX4i+JD41+IWuayxBbWNRub3dnr5krP8A1r9t/wBpDxL/AMIH8BPGOsK+xtO0a7nQjsyxOR+OcV+GlumyNV3dBjI/CvjeLK3wQ9Wf1H9HbLeajjcW1u4RXyTb/NDdnmf3duMYpAvO7+7zUpjx0+WgLg89MZ4PSvjeY/peODI1Xj046H+X+fWn7c7tvzD+XFOVATjoVHWnpyn8XvgdD/k1PMdEcKbnws+I+qfB34iaN4o0W4a31LQ7pLqF1P3iCCVPqCMgg9QTX7cfA74uaX+0B8JtD8ZaOVFnrUO+SEdbSdeJYT7q2R7gqe9fhaIWcZZW3Z7c19mf8EiP2oz8KviRceA9euGh8N+LG3WkspIjsb0DCnPRVcHae3Q9q9LKM0WBxKqTfuS0l5dn8nv5Nn5L4y8AvOsn+uYWN6+HTkrbyh9qPn/MvNWW5+mXlZXjsKfGQg/nVDW/Gmg+Fo2/tLXtD09VPJudQiiH/jzCuL139sL4S+GHZb34leC4yo5VNVjmb8kJNfpc8ZQiveml80fxdhcjzHEP/Z8POf8AhhJ/kj0Pvj17Cl4x29sV4Lr3/BTv4FaAWVvHUV4wHSz0y7mB/Hy8frXG67/wWO+DekMwtl8Zat1x9n0pI1P4yyr/ACrkqZ1gYfFUX5/kfQ4Xw44or/w8BV+cHH/0qx9V7qazfL3+bmvibXf+C43g+y3/ANmfD7xRfHHym71CC1yPfashri9a/wCC5+rTMw0v4Z6Xb8cG81mWcfkkcf8AOuOfEmBjtJv0T/Wx9BhvBXjGtr9U5V/enTX4c1/wP0MdMjjmjaWb9fwzX5ga5/wWs+K2oMfsOg+A9NU85SyuJmH4vOR+lcXrv/BWH47a2W8vxZYabG3RbPQrJMfRmiZv1rllxVhfsxk/u/zPoMP9Hviep/ElSh6zk/8A0mD/ADP1ulj4wuc9hXk37fOpSeGv2JfihelXVG0N7QsBx/pEsdsB+PnY/Gvy5139vX42eIx/pHxQ8Ywq3UWl+bMf+QdgqH4SfE3xZ8RfH7Lr3ijxLrUMNtLMU1DVJrmNyNqjh2IOCwI9wK8fOOMoU8DVnGm9Ivr5ejPseG/o84/D5jh8Ti8VC1OcZNRjJ3UZJtXfLva2x5fa6HeX7L9ntLuZif8AlnCz5/IVftvhxr14+Y9H1HDd2hK4/PFfS7JjjJ4GKQxEj+9j0r8QqcfVX8FJL1bf+R/WSyeHWR88QfBTxNct8ulsnb97PGp/LNaEP7PHiCdNrvp0I775y38lNe7eRg/T36UohG7+6cVxVOOMe/hUV8n+rLWT0V3PGLb9mi/kH77VLOL1CRNIf121p2n7McDELNq1w+e0VuFJP4sa9V8r5gv45rtvgb4N/wCEj8VreSRg2ulgStu6NIfuL+BBb/gPvXl47jbMadGVWVSyS6KP3bdScRg8Lh6TqzWiXdn2j+zFr99rHwn0mw1m+kv/ABBo9rFbX08oHmXJC4WRsdWIGGPdlJ43V6OsQDfqa+c/h94rm8EeJLe+jDMmdk0YP+tiONw+vcehANfSNpPDqNnDdW7iaC4QSRuP4lbofxr9s8HeP3xBljwuLl/tNHSX96P2Zf8AtsvNJv4kf5++LHB7ynNHjMPG1Cu3JW2jLeUfJdY+TsvhI9m0fLTVQhulWQlAXB+79ccV+xH5SQPHjmk2+/vzU5h/z6Uix4X/ADzQBGV9qjkXB9gatCPA5x+FRtDnNAH46/txWclr+1v4+jf739qs31BVSP5179/wRjij/wCE98bNhfNWwt9vPOPMbP4dK84/4Km+CW8J/tf6xceXti12ytdQQ44b5PKb8d0Z/Ot//gkX4wXw7+0xd6VMyquvaVLEmf4pI2WQD/vnfXsVPeo3XY+foe7irPu1+h+lgGR0+lGwD5cc04Ag/jnFGzB59Pyrxz6ATZ+JHNRf6scnn3r86f2y/wBsr4vfB348eI/DNv4iSxsbWYSWnl2cW8QOoZcsVJJ5x+FeD63+2N8UvERZbnx14gweqxT+SD2/hArsjg3JXuefUzCMXy2dz9iptSt4FzJNCvrucUyx1e11GRo4LiGd0+8I3DFfrX4l6r8WPFOuH/TfEmvXnb97fytx/wB9V9F/8Eofi5N4Z/aFm0S7upXt/EVoyKJXLfvYwWHU9Su4fhRPB8sXK4qeYc81G25+mTDHPTrX5lf8FZfhV/wh3x6tdcjjC2+v2wLFe8iZ/of0r9OQPl/oP8+1fLP/AAVc+Fn/AAm37Pf9sQx77rw/MJwRyQhzu/DGaxw07VDfGU+ak/LU8t/4I6fFbZNr3hGeTCgi9tlJ6hsBh+BA/OvvVvkXp16ivx8/Yg+J3/Crf2kvDl8ZDHa3lwLKc5/hkwB+TbT+FfsHBMt3bRyKflkQMPfjNVjI2ncnL6l6fL2PgL/gsR8I2iu9F8WW8OVYm3nZR64xn8QK5b/gkR8Vf+Ea+LGpeG7iTbb6tD9ohDNgb14b81P6V9j/ALc/wp/4Wz+zfr1nGoa4t4TcQ565Xnj8q/Kv4B+PpPhX8ZfD+tbmhWxvEE3shO1x+AJrSj79JxZz4j91iFUXr/mftttDDuPejGP51U8NawmveHrO7jZXW4iWTPrkVfB3k15bVnZnsLXYq6lZLqFnLbyKCkyFGB7g1+Nf7bXwwb4U/tE67YhGjguJTcRHkZB9P5/jX7Osh2/r9a/P/wD4LH/CHa+k+LbeHAUiGdsdQeB/KurCTtOxyZjT5qV10Pb/APgmr8Wv+Fnfs9aas03mXenqbaXJyd0fy/qMGvoxl61+aP8AwSP+Lv8AwivxQ1Lw5PJtg1JBdRKe7DCv+YI/Kv0u2/NipxUbTv3KwdTnpLutBpWopVDHGPlqXbzTGTt+tc51+ZWcYJ9OvWvkf9uz9vSP4ISnRdHX7Rq0gOBn7nbP+fSvrTWCV0y4ZeWETEe/Ffi7+19qtxq/7QniJrh5GaGby13fwr1/mTW+HipS1OPG1nTh7u7DV/jT8RvjvrLRxX2pXEkpx5NsWCj8v510WifsP/FTxREszW97HuOfnkbIz+P0r7Q/4Jt/ATQ/D/westae3hmvLxBIZGUE8+9fUHkxwptWNUGOAFxW9XEOMuWJz0cGpx56jep+LPxv/Zj8UfBBvM1y2dUcDMmD396+yv8AglF8YBrXgmTQribdNp7GL5j/AA8Ff6fjXsn/AAUF+Ea/E/4G3wjVftFqhYEDkenPsea/Pv8AYQ+Jknwp+P1rb3DNHDfObaUZ4Dqfy7EfjVU5e1g09zOpTWHrJrZn6dfHzwLH8QPhdqmnyRrI/lFkGM4OK/JPw3eT/AT9pCLloY7O+8thjrG54/z7V+zFpcpqmmxyLho5kB/PrX5df8FOPhB/wgXxZ/tKGPbDeNt3AevzD+orDDT5Z2Z0Y+neCmuh+jfwt8UReM/Aen30bK3mQrkg1szJhua+af8AgmZ8YR4++FEdlPLuurX9y657qP8ADNfTc42HtxUVY8s7HRRqc9NSPI/2v/CSeKvgtqSsu5oV3/hivy0+BurN4A/aCs1X5V+1PbEe27j+Qr9Yv2k9et9F+EWrvcOqrLEVGePevyGsbv8AtH40wzQfefU8rjv83NdGDvzM4cytaLP2I8Faiur+ErO4HV4hnmrxiyP/AK2K574J7/8AhWmn7vvbev5V0sy/L/WueorSaO6LukzPuo/mxn8M1TkXeG/KtKdAcf4dKpXERKsV4o3AzLmLYP5frVGWMFm5G01qXK4i56devSqMkIYdaoky7gbSxxt/D61TdAD8yt+eK0LqPcTt/CqrRc9h+NAH2MYsDjrTvKyeKsmDn+tLHBg+uOc1oaFcQ4P+eKbJBz6VcWHzD0pTB8vqaVwtc8O/b58L6j4q/ZR8VaTpaj7dqcMdsgzj5WmTf/44G4r8r4/2Wr63k2XF5HE6naVKHKn0r9gP2ibjyfCVrB/z2myfoAf64r5c+Jvwah8TI1zZqsN8vJOOJPY/41/LHix4iV8v4i/sym0oRhG7tf3nd6+VrH9sfR99hheH/wDaF/FqSlf0tH9D4wtf2YbcFfO1CT/gCYrSs/2bdFj+/JdSHP8Ae27q9V1HRJNLu2guI2iliO1gRz/n3qM24U/d9/SviZcWZlUV/bP5WX5I/pSODpWukcBZfAPw/CQxtJJNvPzvmtS1+Enh+2IK6XbfVgTiuq8jj6e/SpBBk8f/AKq4amd42fxVZf8AgTNo4eC2Rh2fg7TLRh5en2cYB4xCKvLpscS7VijXI6KoFXUh2ntyaf5fG4j9M9eK4KmKqSd5Sb+ZtGCWx83fHL4c/wDCI+KWuoYybTUWaVCRnY/VlyfzHsfauM2eUw4wPSvqb4j+CI/HPhO4sWXEmN8Lf3HHQ/0r5iv9Pk0q9mtbhTHPC5jdW6ggkV+xcKZ59ewvs6j9+Gj810f+fn6nmVcLyy0KmBnG3b649f8AP86QLlv97j60/ZtXnqTz7UEfMc+uOfwr6vmMJUXcjC559ccD0/zijGOPu09Sc59ev6UmwqeM9T+FVzGfsbjeqdeO5oK7h+Pf/P0p6JwuPU9ulJt+YfpRcn2RF5e4YPYcfrXpf7Mdn5ninVJv+edjsz/vSqf/AGU15uFwOByvT0Nevfst2RaLXJj2aBMn6SH/AArwOKq3JldV+SX3ySNcNS/eI9U8jA/zx/n+tAttw9P8P8/zq0sTY7UeUVLdx/n/AD+VfiHtD2fZlXytoPrxTRBx7e9XBDu/GgQgccZ6fWj2gezK3k7nwNxJ7dzX0J8NvBf/AAhvhO3s2XbcyDz7nH/PRgMr/wABAC/8BzXnHwT8G/8ACReK1u5l3Wul4mbI4eXnyx+BBb/gOO9e3CLoffpXx/E2YXaw0emr/T/P7j4zifFpyWFh01f6L9fuI1TC8deler/s8+Ofv6Dcvw26SyYnv1eP+bD33dyK8uEe09KmsbiTT76GeCRoprdxIjjhlZTkH88VjwbxXiOHs3pZph9eV2lH+aD+KPzW3ZpPofmXFPDlDO8tqZfW05tYv+WS2fye/dNrqfTypgZoaLIqh4E8VQ+OfDNvfJtWY/u7iMf8s5APmH0OQR7Ed81riL2DV/o5leZ4bMMJTx2ElzU6kVKL8n+T6NdHoz+GcwwNfBYmeExMeWcG015r9Oz6rUq+X8n/ANanBMCpnTPOOn6CmiPLLXoHFYhEeDyKaU9vpVgLkdKGi+T3oFY+G/8Agst8KGv/AAh4V8Z28WW024fS7tx/zzlG+In2Dq4+slfFfwI+Jcnwb+M/hnxNH5m3R7+OaZU6tFnEij3KFhX7A/tDfBy3+O/wZ8QeFLnav9rWpSCQj/UzLhon/wCAuqn6A1+MGu6BeeFtZvNN1GBrXUNNne2uYX4aORDtZfzBr1MJNSp8r6Hg46m4VeddfzP3CtL+HVrGC7tpFlt7qNZYnU5DqwyCD7gipYo+B19a+Xv+CWX7R0fxS+C48I31xnXvB6CJFZvnuLI/6px67PuH0wnrX1Ju53V51SDhLlZ7FKoqkFNdT57/AGov+Ce3h39qL4kWfiLUtX1LS5obRbSVLREPnqrEgkt0IyR9K5jRP+CRfwv0zH2ubxBqDDr5l2EU/go9q+q9oA/qKjdOV9+DVe2nayZLw1Jy5nHU+Mf2vP8Agnd4D8Ifs5a9qfhHQ5rTWtHiF2koneRpEUgspBOPu5r4L+Enjyb4Y/EvQfEFuzB9KvIrjI6sgYbh+K5H41+2XiHRIfEGjXdhcJvt76FoXU/xKwwf61+KPxb8BTfDD4n6/wCH5lZX0m+lgUEclA3yH8VIrrws+ZOMjzcfSUJRlDQ/a7w1rUPiPw5Y30MiyQ3cCTI4OQQQDmsv4r+CIfiD8PNY0W4XzI9QtXiII7kHFeQ/8E0/il/wsz9lzSYZpA91oBOmS5POE+4T/wAAK19AFdy7SOlcM4uE7I9WnJVKafdH4Y+I9EufAnjS+sW3Q3Wk3jxZ6FGR8A/pmv2K/ZX+JafF34FeG9dVlaS7tE83BztccMP++gwr85/+CmXwqPw1/af1K4ij8u18QRrfRt2Zzw4/l+dfQ/8AwR2+Kbat4G1zwlLJuk0mcXNuCeRHIM/oyt/31XdiFz0lJHl4P93XdN+h9n6rpkeraXPayLujuEKMD3yK/F/9qP4cP8Kvjz4k0crsjju2li4x8jnPHtkmv2rxj86/O3/gsP8ABmTSvGmj+MbaH/R76P7NdOBwH/hJ/LH41y4Sdp2OvMKd6fMuh9K/8E5Pix/wtb9mrRpZpN95pymznyedyfLz9QFP4174PlGa/NL/AIJOftC2/wAPPiJeeE9UuBDa683m2pdsKJgMMv4qAR7r71+lkR8xVYHcG5BHQ/5/rWOKp8s/U3wdTnpLutBTgD14rx/9t34VR/Fn9nzWrEx7poIWmj45BAPT3r2AL+tV9U0+PUrGa3kUFJkZCOxBFYRlZ3OqUeaNmfiJ8DPHk3wi+NWhay26M6bfKs49EJ2P+hP5V+1Hg/XI/EfhuyvUO9biINn14/w5/Gvx2/bF+F7/AAo/aE8QaX5flwvctcQDHG1ien48190fsJ/tmeGD8ANNh8R63Z2OoabGIJEnkCsSny559QFNehiI88FKJ5GBn7Ocqcv6sfWm7A+X73SoeoPp9OteF+Iv+CjXwu0EEf2/bTsB0iO7+QNef+I/+CuXgDS3k+yreXWw4XZEefzrjVCb6HoyxFNdUfV08YeNlb7rAg89jX5N/wDBTT4QXHw5+P1xqCxMtlqwyr443jJ/l/I19FW//BYfR9S8UWNnFo17Ha3U6xPK4X5ATjP5mvXv2wP2cbX9q74MLNaqi6gsfnQSDrnHY/561cYypSUpbGFblxFNxg7tanjv/BK79o3T9V8ADwpf3SQ32n/u0Vzjen8J/Lj8K+zAQyqy4ZSM5B4r8SNb0TxP+z/49aOb7Zo+q2LkJKuV3gdwe4PpXqOhf8FJfiXoumLbm+huNg2h3X5j/wDXretRU3zJnNh8YoR5JrY/Sj4+ePNH8I/DXVm1S4gWN4GQKzDJyPSvxv8AE3iZYPiZcaxpp2rHe/aICP4iDnP4muq8efHDxx+0RrEVle3lzeSXEgRLeHO1ifUen+Ne/eJv+CcN6n7Oltq1vAza4sC7osciXOc/Qjg0qcVS1Yq05YjSK0R9l/sm/EyD4o/BvS75JPMd4VY85PIzj8K8r/4Kb/Bn/hYPwjkv4I1a4tBjOM4IyQa5z/glhB4l8L+G77Rda026sobWXbF5gxw3P6Gvqv4g+DYfHvhG+0u4X93dRlc+hrCt7tS8Tuo/vKNpeh+R37IH7T0n7N/iyaadZJLKd1cgdUYdfzHFfWlz/wAFZfC5syY42MmOFKmuB+KH/BJbVpfEF5caPdMsE8jSKhwcZ7Afia4eP/glT4yWQLJMOv8Ac/z710OpTmrs4acMTTXLFaGF+1V+37qnxrs307T1e3s2GD249R71w37H/wAGL/4l/FKxuFgZrW0lDsSPvn29a+jPAX/BJS5N7G+r3TNGpzjjFfWXwZ/Zz0P4KaXHFYW8XnKuC4XoR3+tHtYQ+EI4arUnzVTpfC2hf8I74ftbNf8Al3jA/HvU0yNu/HFX3UgH169Kq3KDBPfpn0rlvd3PS20KNymFUcZ7/wA6pykY5z/QVoXP7yM9+/0FU5kwPf601sIz54t5PftVCePIPv7Vo3IKNjtVO5ORz6/n/hVEGbMu7jt9KqvGpbk/+O5q9MuT+P61RuFxJwM/WgD7UEHQU5IM/pn3q15HOacsXH92g6Cr5GP8fShLTc2786vCH5OnT9KUQ4H0/nRcrlPGP2kbjzNQ0+1U/dRn/E4/wNeXyQcDj3r0D443X2vx3Kv/ADxjVAPTOT/WuKeLI6DpX+cHi3mX1ri/G1E9FPl/8Bio/mmf3B4f4P6tw7hKdvsJ/wDgT5v1OK+IXwvtfGlszbfJu1HySqP514hr3hW68Nag9rdwssi52nHDD1FfUPkf4cVj+MPA9n4w04w3EY3fwOB8yn2NfM5Tn08O1Tqaw/I/VMnzyWGapVtYfiv67HzSbcsw79qPI2YrpPGfgO88GagY7iPdET+7lUcNWQ0W737fSvuqeJjOKnB3TP0KjOFSCnTd0ykISv8An/PpT0tvurz+f+f8irJi/wC+eg5p2zPXjv0q/aM25Sl5HT6YH+NeKftK/DrybhdetYyqyYju1A79A/8AQ/h6V7o9uQfxqrr2gw6/pNxZ3CeZDcRmN1Poa9bJM3lgMXGvHbZruuv/AAPMyqU+ZHx0F+bp7UkiEjbxxzwa3PG/g+fwV4nutPnB/ct+7YjHmIfun/PfNY/lYUjPAGfp/nNfvlHEQqwVWDumrr0ZzSpEJjyG6de3pSFM/h7d/T+Zqdl+X/61NdOW/u59a25zN0bkTR7lz+tIBg/7vBqYL834+tBRgP8A61HMQ6LICmV9K9x/ZdsNvg7UZu8l9s59FRf/AIqvExGSPX29K+iP2cdM+zfC6Ftv/HxdTSE4+i/+y18jxtX5csce8kv1/Q1o0bSudkqbe+PbFPEA5OOamWLnncOxFO8rbntX465HZylfyv8A9QpPIyfus3PQVaaHJrsvgh4MHiLxSt1LHutdMxK2Rw0n8C/n83/Acd658Rio0KUqstl/X4nPiq0MPRlWnsl/S+bPRvhp4N/4Q7wlbWrLi4k/fXJ7mRuo/wCAgBf+Amt5oflx0Cmrfk469+cmgQZIPQ96/L62IlVqOpPd6n5PWqTqzdWe7dysIeOOPpSiMA/1FWPJwvr26UqwZbFZe0MfQ6v4H+LJPD3jOG1z/ourOtvIp7OeI2+oY4+hPtXuvlYP6V5H8C/hnNrGsW+t3KNHY2Um+HPW5lXkY/2VPJPqMeuPZXiywPJ5r+4/o+4fM6XDkvrqapSm3ST35Wldr+65aru7taO7/kvxnrYCrni+qNOpGKVS23Mnon/eUbJ9lZbqxUMPqvfPHejyyP6VZMfHPb86aUxmv3jmZ+Q8pXMeelIEGzpVgRfJ+hppjz+fpQSVWTv7547Gvz5/4KzfsnSaLrR+KGiWu6xvykGvRxr/AKibhY7g/wCy4AVvRgp/iNfocYscd8c1Q1/QrLxLo93pupWsF7p99E1vcW8yh4542GGVh3BBrWjWcJcyOfEYdVocr+R+Jfwb+L2tfAn4k6b4n0Gbyb7TnyUf/V3MZ4aNwOqsOD6cHqBX60/s1/tM+G/2n/AkWr6HcLHeRKq6hp0jf6Rp8p/hYd1PO1hwR7ggfAX7cn7AGrfs36tca94fhuNU8C3EhaOUZkm0onnypuPujOFk79Dg9fBvAHxF1z4W+J4Na8O6reaPqlv9ye3fbkcHaw6MpwMqQQfSvTqU41oqUTxqNaeGm4TWnb9Uft5Iu04/EUxhx/hXwP8ACX/gsnqFjbRW/jjwvHqLquGvtKlELv7mJ/lz64YfQV6vZ/8ABXT4Vz2/mTQ+KIH/AOeZsAx/MPivPlh6i6HqRxlGWzPp4DP4dK/Mr/grV8K/+EN/aHtdehj223iiyEjEDjz4ztf8SNle2+OP+CyvhKwtpF8PeFdd1K5P3GvGjto8+pwWP6V8iftP/tf+KP2qtUs5NcWws7HTWdrS0tY/liLYBJY5LHge3tXRh6M4yuzkxmIpTp8sXdnt/wDwR2+Kf9h/EvXvCc8hWHWLYXlupP8Ay1jOCPqVYH/gNfor5WeQfpxX4wfsx/EeX4TfHvwvr0W/ba36JMq87onOxxjv8rHj2r9orcrNbq6/dkUEfTrWeMjaXN3NstqXg4dv1PjP/gsP8Kv7e+F+ieLIY902h3JgnYDny5MDn/gWK+X/APgnJ8Vf+FX/ALUmi+ZN5drrQbT5sn5ctymf+BAD8a/TP9pf4Yx/Fz4FeJtDkj8xr2xk8rjnzFG5f1Ar8cNB0nWtH8Qw3FjZX32/TbgOvlwsxjkjbPYdiK0w8uam4s58bF06yqL1+4/chPnHH3W5BHeuD/aS+Bdn+0D8I9U8OXiKsl1GTbuTzHIPunP1re+EPipvHPw10TVpIZIJL60jlkjddrISoJBHt0romXn6+1ea7xlp0PY5VOOuzPw++Kfwu174E/EO40jVobixvrGXdDKPk8wA/K6H9eOnAr3/AODP/BWHxt8O9IhsNas7fxFBbqEEzuUmYD+8eQT74Fffnx//AGWfCP7SGhfZfEGnq9wn+pu4/lmhPsa+QfHP/BGDUFvpG0DxRC1uxysd1F8yj6j8K7o4inNWqHlywlalK9J6DbT/AILJ6jqniXTbf/hGYrOzmuUS4ke43MkZIBIwOwOfwr720PUU1vRrW8j2stzErgjocj/9f6V+fvh3/gjD4gmnX+0vE1lDDnkwxZb9a+8fhP4Fm+Hfw/0vRZ71r6TTbdIPPbgybVAyfrjP41zYj2VvcOzB+3u/a7Hwt/wWS+DckWraL4utYWkWX/Rbgov3c9D+YH518R6f4H1nVWVbXS9Qm3dNlu5B/Sv3U8R+DtN8WWYt9UsoL2FTnZKm5ex/pVXT/h3oekIq2+k2UQXgBYhTp4pxjy2IrZfz1HO9rn4u6F+yz4/8Suv2XwvqnzHq8ZUA/jXaeHf+CcXxS19v+QKtsP8Apq+M1+wEOmW8A2xQQoM9kAqQxBF4H0oeMl0Qo5dBbtn5c+Hf+CQXjnU0VrvULOz7/KC2K/Qf4KeC9S+H3w403SdTuPtV1ZwrG0v98gYJ/QV3oj4xVaaMsCDWE68p6SOijhoU3zQPLvjT+yx4R+Ntqy6xptu7tnMgQbvz/wA9K8Evv+CQXgiW9aSO7vI488Lv6V9itHn/AD1qCVeM/lzUxqSWiZpKhTlrJHhvwY/YN8D/AAYu/tNlYiW6XpJINzD8fzr2M2MQtxF5a+WABtx8oFXGA78881Gxwf8AIpObluVGnGKtHQz49It7IZihijbuVXFEi5H97/Iq1IOPaoZjQBTmTLdP/r1X2Matyjjp71Uk5JoArOnU/wAPSq8owPXirMz4H4c8daqyyKMnI/CqJK8pyD69aq3K5X61NLKoPb2qrcXW1fYVRJXlyv49/SqN2u1v1qxPeYBzx3qjJd72Ktx7elVEmRFOSzLx2z1qjcJnH55q+Xwefr6VTvF+Uf07f59KokzZRsHT86q3BVZOme+c9avTKXh7ev1qjMrh/ljDfXtT3YH3NFBz+f6U8Q5P+7U6Rbfz/KpBDk9PpUcx28pX2AD+VNnUxRlu6jPWrnkc+naodRjZbGXb97acA1E5e6XGN5JHzT4/uvt3jXUpPvL5xUH2HH9KxmhI7Vpayjrrd15o2yea24HrnJ/xquYq/wAruJMXOvm+KrVPilUm3fu5M/0AyujGjg6VGG0YxS+SSKbQY/nmkMWBxg1caLC/Smm33AflXje0O7ToY+veGrXxFYSWt1GskbcYI5U+v/168U+IHwtufBtz5i7pbFvuSAfd+tfQX2b2/wDr1FeaXFqNq0M0ayRuMFWHBFerlub1MLLTWPVf5HsZTnFXBztvB7r/AC8z5c+z7SP0pEi+fnjr+NehfEr4QTeHHku7FWms2O5kHLRf/Wrh1h746199hcdTr0/aU3dfkfpOExdLEU1VpO6/rcqNF8vFMeL5v4hu7VdMWfxpGgzn5v1rp5zpPKf2iPhofE+gf2lax7r3TwWIHWWPuP6ivnoDAJx+tfac9ss0bK3zK/UEdjXzL8cfhyfAniuUxKRY3/7yEgfKjE5K/wCHtX6lwLnnNF5fVeq1j6dV+v3gopnClN+fwyaHhyPp+lSEKD654oK5X3PPSv0nmB0yN4Ny9fu5zTQnJ/ve3+fapmQgf7OcfSm7fm6enFNSM/ZoiEfzemfSvpz4I2DWnwq0ZccyRNJxz96Rj/hXzQPu+3XP8q+sPhzYfY/AGiR7TlbKIke5UH+Zr4LxArWwlOHeV/uT/wAxxhbU0RF8vr6cUqpx0/8ArVZ8vn+tL5fy59+K/J+csriAk7cH2wM5r6A+Gvg0eDvClvbSL/pEv765P/TRh0/AAL+Brzj4KeDv+Ei8VrdSx7rXTcTNno0n8A/Pn/gNe2bMGvj+JMfdrDR6av8ARfr9x8PxVjryWFh01f6L9fuIhHgmhYtp71Mic/54pwix/wDXr5TmPjyv5WFrtvhB8IpPHN19tvFeLSYHwxB2tcsDyi+3TLdug56SfCX4RzePr37RdeZDpFu2JZBwZm6+Wv8AU9gfXFe+QafDYWsdvbxLDBbgJHGgwqAdAK/ofwc8I5ZzOOdZxC2Gi7xi/wDl613/ALi6/wAz0Wlz8X8TPEhZZF5Xlkv37XvSX/Ltf/Jvp/LvvYoxWqW0CQxokUMShERFwqKOgA7Y6UpGG9geT0q2Yee2M1G8WGB44H41/bFOMYRUIKyWyWyS6I/lefNKTlJ3bKbJtH+NN2/Ng81beH+H8s0xolV60IsVyN3btUezHP8AKrGzjd17UNHt/wDrUCKrKQT/AIVG8Yzz3qwy5P1oMaj370ElC+sY72CSCaOOaCZDHJG6hlkU8EEHgg9MGvkn9or/AIJLeE/iNd3Gp+DbxvB+qTEu1r5Zm0+Vjk8JndFn/ZyB2WvsGRMP/KodoX5jjpxWlOpKGsTGtRhU0mj8kfiF/wAE0/i/4BnYL4b/ALehU8T6VOtwrf8AAOH/APHa83u/2b/iBZzeXN4H8VJJ/dOmTc/+O1+2Dxc+w9KPLYL8uVHoPSupY6XVHDLLIN+62fjL4Z/Yq+Kni2VVs/AviAhv457fyF/N8V7R8L/+CQHjvxPcJJ4m1LSvDlq2C6o/2q4x7Bflz9TX6WeWZV/qaEiw2O9TLGTexUMtpp63Z4b+z3/wT6+Hv7P0kN5b6e2ta1GP+P8A1DEjofVF+6v4DPvXuSRiNdoVR0wAOBUwh2fNRIPLC57/AKVyynKTvJndCnGCtFWRDtGzDYx/Os+y8HaXp0jSWum2MDMckpAq579hWr5Xyf40pTbUlEKxqgAVVX6DFKV5qUx4NIwyRheAc/SsyrEaqoGeNtII9qn2FSKjY/Kgrt6c/jQURqvyfNS9qefkH+eaG+ZQenFADQvHSmFe/wCXvUr4A69OlQ7/AJetSAMmwetMZdtPd1Ve9QvL82R64oEOI2ofrVW5XKmpJrrA4qnLcM+aLCuNfGKryt8vPvTZpWz35PPtVWaVn/z1oC5K0wAxx6VC06xjJ9Kimzn8fSoXX5vT8aZJNJeZx+eKqzXfH9aV1x+FQSHB5xn+VIBstyQp/Sqcs5596sTfz9aqy9fXntVAV5nYHBbvzVG6bP8AE31q46j1yarTpuY8flQhFOcnb82fX/P6VVuF6j+VXJxu6/8A66pzqR171aIKF25Ue/XrVOc7Wzjv/n+VXJuG9fpVWZ1UdPqD/n8aYiuLjPrx+lD/AL76DkYFVp5fKl/ripYpeMfkfbFaIgqyjY23Gf1qGThv4fxqzdrvk3f3ep96ruPMP39v44oA+740yemeemKkEWefSiNcdvc+1TKnP92sz0CMwkN+NOMGRz/F71YCfL9ackW4fp/n9KCuU80+IvwLj8RXMl5Zt5dwRuIA4Y+9eUeIfAupeF5WF1bsFycOBlTX1EylTn8fpUV7o9vqsLJcQrIrcYI6Zr8S478Dck4gnPGUL0K8tXKO0n/ejs/Nqz8z9W4V8VsyyqEcNiV7alHRJ6SS8n+jufJoj3//AKqQx4H9a9y8Z/s82uphptPb7PJ/dH3T+FeW+Jfh/qfhWVlurd9oP+sA+XFfyJxl4S8RcOt1MRS9pRX24Xat5rePzVvM/oThzjzKM5SjhqnLP+SWkvl0fyOfMWD7D2pvlYPrVpkz/WkePNfmPMfYXKj2yyhlZdytxgivLfib8G9m++0tDt+9JAo/Uf4V60yChowxruwOYVcLPnpv1XQ9DL8yrYOr7Sk/VdGfLb27K7KQVKkgqeoIqMrx9ea9r+Jfwgj1xZL2wVY7teWQfdl/+vXkN5YyWVy0MsbRyxnaykcg1+gYDMqWKhzQ36rsfqGW5rRxtPmhv1XYzjD7/wCJrl/i18PY/H3hKa02j7RH+8gbH3WA/rXYPF/9emFNw6c+lexhcZPD1Y1qTtKLuj0nHqfE13ZSWN1NBNGY54WKOD1Vhwaj8vHPboa9g/ac+G/9l6kuuWq/ubpgtwAOFboG/Hp+IryMjcPb+Vf0LlOaU8dhY4mn13XZ9UbRjzRuRbP+Aj3pAnOW/L1qZxjp+Ge1N25POO3P+NelzB7NDIYt0qrx8zAHPA619h6PZfZdJtYwB+6gjXGOmFA/pXyX4ctTeeILGLk77lFx7kivsTyvLYj365r808Q62tCH+J/kZTi1ZEKp8vt/OhYtzLgZ+nU/SphDlq7P4MeDB4h8UrczJutdPxK2RkM/8K/zP4V+W4nFRo0pVZbJHJjK0MPRlWntH+rHo/w38Hjwd4Rt7d0H2qQebcHH8Z7fgMD8DW95NWDHk+vr705Y8Z6+1fmFbESqzdSe7dz8hr1pVqkqs927lcQY/wDr11/wq+E1x8QtSMkvmQaXbt+/mxhnP9xP9r37Dn0Bf8LfhbdfETU/4rfTbcj7RcAdP9lfVj+nU+h+gtM0i30PTobO0hW3trddkaL/AA/4k8kk9TX7z4O+EdTP6sc2zWLjhIvRbOq10X9xP4n1+FdWvxvxK8Ro5RTeXZe74iS1e6pp9f8AE+i6bvonDY6bBpFjFa2sKwW9uoSONRwg/wA568nOec1IYwD/AIVYeLr+f0poj2t0/L1r+5KVKFKCp00oxikkkrJJaJJdEuiP5TqTlUk5zd23dt6tt7tsqSJ/n/P4Ux4fm9jVqVQR+NNcYStDEq4G38ahZMjt05q00JxwOKjMWS360AV5EA/z2prIB33d6mkAPHHr6GmmH/OKsm3Yr+UGHHaoyMdPrwKueXgc/rUMqYHT5qZLiVWX88VG8X55/OrJi2hvbjNRSbSe+PWgllUrkjvxSEZ/z04qVmCSfXH5VGbhF5OPw+lAhNuWPHXtTMYp0t0qtxy1QPdZP3d3r70DJ1FEyb4sH8/SoFum/wAmobq6kTa38IcbxjoM8/zqQ6FmLcBzTg4pt0D9lO3hlOeKq/eOT9DmiQItPOqtgflTftiYrMm1qzg1WOxkurdbyZS8du0gEki9yF6ke9ZvxG8f6b8LPAuqeItWkki0zSITcTtGhdgoPZRyx54A60RhKUlGK1exM6kYRc5OyW/kdC16NnHao5LhmJrzsftFaOq38klrqaR2v2ZoD5Qb7fHcY8uSLB5XORk45U+1eU+MP23Ne0PxN4gsY/C4jTw3OxuGYtI0lupwSAMc8NzyBgDvx20ctxFVtRj9+nb/ADRxV80w1JXlL7k33/yf3H0ytwzAUrPwvPv0r5a8HftQePPEtnHf3Wn/AGG40+4LXWmNFhrmOT5Y1UjJ3Kckg4OF9xXqf7N3irxV4mt9c/4Si1uLe4F15tuJIDGqI6htgz12ltmf9iniMtq0YuU2tPMjD5nTryUYJ691/X9I9OaUMozu6VzfxJ+Lfh/4S2EV34i1KDTYJiFV5W2hz7V0U960bRqsKsn8bE9K8x/az/Zsi/ac+HFvpP2r+z77T72K/tLjaG2SRsGwR/dJABHpXm6XO6cpKLcdWeiaPrtn4l0qK8s5o54ZgCrKc57/AOBqwev49K5j4ceCbjwZbx27JHDbxwrFsQ/LkDHA9OBXUEDb7jpSfkUvMgkXGT2qu6fM3NW3HGf0qGUFlpD9ClcR8n6VVkXH9MVelBKH/aGOlVZcZ/XNMRUmOF+nNQE/NVqQq3X1qu/3mbrTQELHY3t3qF1y9TFuT221XcE44/LvQBHKeT9arSjHPoPzqeQZ9PyqvMm0Hn/69ICrcHC1Unk+b6mrkiZ/wNVpFBPTp0qxMp3DYPtmqczHd9Bz781euFyPr7VVuE+YD3596pEGXcBl7fe5wO9VJRvXBPHP4Vo3Y3/4+lUrlRj0569au+hNjJv4T5efyNNtZ+F3ewxnrVq7AIx13DGPX/P9ayllaG5ZWP8A+unET0NC6GFzg9Ouf8+lZ8k/luR/Kron88cd6qOFZs7V/IGr9SfQ/QBEAK/TpUgj2L0pqce/+f8A61WBHu+nTp0rI9RISNM9/wDCnhcn8acgwR7fpTkj3H3B/KpuMZ5ec/Tj3pVj5qZUyPrTvLzz60rlcpHGvXt0/Co73SbfUoGSeFZFYYwwzVtY9vIHFORMYqJRUlyy1RpGTi+aOjPMPGv7Otnqu6bTybeZvmwOh/CvKfE3w71PwpM32q3Zogf9Yoyp96+qCnPNQXWmQ6hEyTRrIp7EZ4r8X408C+Hs95q+Hj9XrP7UFo3/AHo7P1Vn5n6dw34rZtltqWJftqfaT95ekt/vufIXlc0GLmvfPG37O1jrIaawJtrg8gD7pP0ryfxV8NdV8IzMLq3kaNT/AKxRkf8A1q/kjjPwd4j4dbq1KftaK+3C7Vv7y3j+XmfvnDvH+U5wlCjU5an8ktH8uj+T+RzOzPtXI/EX4XW/jC386ELDexj5WAxv9jXbFMjimNHkntX5hh8VUo1FUpuzPvsLjKuHqKrSdmj5i1nQ7jQ71ra6jaKZDyCOvvVEph/519FeOPh/Z+NbAxzKEmAPlyr95a8Q8V+ELrwpqJt7pDyfkf8Ahcf57V9/lecU8VHlekuq/wAj9OyfPqWNjyvSfVfqjkPFPhmDxPolxY3SK0dxGVINfJfi7wrP4M8QXWn3K/NbuQGI4dex/Gvsx0P93PfmvJ/2lvhp/b+hjVrWP/SrEEyALzKnp+HX8K/T+Cs8eFxP1aq/cn+D6P57P5H0lGST12Pnd1Ibd/n/AD/jRjjH8Q5+tSGPzPulc+o/z700Jtx97awr9m5jr5Te+FFj9t+IukRqG/4+Uz/n8K+r1jLbvxr5o/Z80/7Z8VtN/wCmZMhx2wOK+nhHt+tfkviBWvjacO0fzb/yOatoyNICzhV/i7Aete/fDbwj/wAIj4Ut7dlxcTDzpzj+I9vwHH515v8ABjwcPEXihbiVP9FsP3hyOGb+Ef1r3BIvX/8AXX4lxJj7tYaPTV/ofn3FuYXksJDpq/0X6/cQiKum+GnwxuviLq3lruhsoSDc3GMhB6D1Y9h+NP8Ahx8N7z4h6z9ngHl20WDPORxGvt6k9hX0T4e8PWfhbRo7GxhWG3hHH95z3YnuTX6Z4P8AhHV4jrLM8yTjg4P0dRr7K/ur7Uvktbtfzt4i+IcMlpPBYJqWJkvVQT6vz/lXzelk4dG0G18N6ZBY2MKwW1uuFUd/Uk9yepNWGiz+FWGBJ/pTZIuOPqK/vHD4elh6UaFGKjGKSSSsklokl0SP5NrValWpKrVblKTu29W29233K5GDzTTFgdfapymff8KRk4/KtjErNHg5/AVHJHlePTrVmWPH9ar3JOxvpxQBBJjBqCS6WMcsPoTTXTP5+tQNAC9BmPmnTOdw/AUx75U7N1z0ppixTHjGTn60xag160nRcDvz0/SoHmYipViyMc+px2qNoiwxyM1RJDJOzDq1QvucN824g1Zmh2JnFRsnzetMnlKkkfPtTSm7juBVh4s1CY8n/IoFYjRcn8ayNU8Y6bpaSSTXCLHErSO5ICqijLNk9gO/atq4i3wsvsVzXi3xa/Z/vPiF4s0u+/tKazXTba4spIUtRL58NwuyYBs/KWAXkgjMa+hzMdXqTUckvdR2+nfGDQdZ1iOys9Qtp7maAXCLHKrF4z0YY6jvxXUFVvIODlZFwD615B4T/Z4vtF8QwapLqDNcfbnv54YbVYIJZSsqKVBJZPlmfcASGOOmK9c0uzNnp0cLHcyjkinK3QmlzP4kXtLk+02EbP8Ae27Wz3I61U8vazLydpxVnSh5dxcRnno6/Q9f1H602/Tyrn5Rw4z9SKk0PCfiR+wt4f8AiT8WF8VX2ueIDJNPBNd2zXG7eISxjjhl4kt48sdyxsA46969Y8VeA9J8aeEbjQ9Wsor7SbuMQzW0pJV0GMA9+wrYc/TimiTMjdNopqpJNNPbYz9jT1Vvi3/rscDov7NPg/QbSwt4dNma303T10uCKS6kaNbdW3ouCeSp5DHkdjW9pfww8PaZLJNDo+nrNLGIpJGiDNIo6Bick/jW+X3Efexmgbh/DjPv1rSWIqy+KTfzZNPC0YfDFL5EaWEMTblhjUkf3B0FSkfN7UFWxjI/KjYx+bdz/kVizYHXjFDsFXt+HagAZ+vPWgoAMdqhkjWk+eo5ScfdqRjtHbApk0yx53bcep7UgIps9qryHBwTViWRY03Myj6t1rF1bxrpWj3jW91fW8MwGSHcA459/Y/kfSgZbbnj0qrcR89+w5rkbv8AaO8G2oj3a5Zs02DGquGZ8kAYA+oHtXI+NP2zfDPgs7bqK+ZmJ8sJEWDgEAdPXchB/wBtadmTzwS1Z6vKuOwqu3DD9D69q8z0X4t6h8T/AAPfXmlhrG8sbpYhGyH94vmhW/AryD0O4Go/iJ4r8b6dLZx6Tp8d1DcWu95Mcqx6Z+hxkehz7V0U8O52s0ZTxEYq9mekzuOvH1/z71kav4lsNEi8y4u4IRnbhnHX0+vFeBJ8O/iz4r0i6/4m0mmSPIWhBOcKANvP55yOeDTNV/Y48SeMPD1nb6r4luFuIW3SNuJEmHLLx+P/AI7XWsDRi/3lVfLU5HjKsl+7pP56HpPiP9pLwv4fuvJmvkaQ4AVTkk4zjH0/nWHeftf+DYLqOE34aRztxkDHufzx9aytD/Ym0Wy2PqN3cXsqDblnLZwSep9zn8BW7Yfsp+DNPuvOXS0aX5SCR0IOR/n3p8uAjpdsXNjpapRXrqd1YajHqmnw3MTbo5lDKcfp+FMk5B9KdZ2Mel2UdvCGWOPhcnJ696bOQv8A9evOla+h6KvbUqzNnOfT0qnM+cc4NWLohh19qqXT429TnPTvQSQStgMfT0qjcZye3X/P8qtXCsecHk8ZqrNBLJ0B/AcVS30EU5vkrG1E7HVvlWtybTJJD6e1Z99o/mxM24cfrVLuTIitGDpk/qP8+9LIqlu/T1xVO2n8ttnQr+FTs5/vfnV76kn6DRLkc1MkeF/wpqJhs/zqZVrNnqDkU49NtSKMf0pqpjt+VSR8fh+n+c1BoKOvPanqnK+nT6f5xQI/mFOVcZ/rQAKnf+VOVNrD5e1PRTj8Py4p4j2joKClEjEeWOTx9Kd5ftzUiIMd/ShI9q/496B2IynzD9KjutNhvoWjmjWRMY+YA1aEeB+nNBjyPxzSlFNWY02ndHmvjf8AZ10/XvMmsT9kuDk4H3W+oryPxf8AC7VvBkzfardpIV/5axjK/j6V9UCP881DdWkd4myWNZFbswr8c418D+Hc/wCavCHsKz+3CyTf96Oz/B+Z+kcO+KGb5ZalWftqa6S3XpLf77o+OWTrWX4n8KWviewa3uo1ZW+63dT7Gvpvxv8As7aZ4j8yaz/0O4OTlB8rH3FeQeMfhNrHg2VvtFu00A/5axrkY+nWv5I4w8GeJeG5PEKHtqMft07u3+KO8fxXmfv3DHiNlWZyj7Cp7Or/ACy0d/J7P5O/kfKfjv4eXfgu9O5WktGPySgfzrmLqzW6gaKRQyMCpBFfUeqaPb6xZtb3EayxyAgqR0rxX4k/Ci48JStcWwaaxY8Efej+vtXzmU54qzVKtpP8/wDgn79kfEccRajX0n36P/gnw/8AGT4dt4B8YzRqv+hXR82Bjn5Rzkfh/UVyGAF9j19q+r/jJ8Ol8feEJoVVftUAMkDHswBH9f1r5aurWS2laORGWRCQynqGHBBr+luFc8+v4RKb9+Gj8+z+f5n6FhZqpHzR337L+nmX4i+Z18m3ck+mQR3r6OSAySKqj5m+UCvC/wBkqx83xBqVxt4SHbnr3H+NfVPwY8G/8JD4lWaRd1vZfvGz/E3YV+a+IGOjTx86ktoxX+f6nlZtioYaMqs9or+kek/DTwgvhLwrDCy/v5sSzE+p7fgK7/wB8PLz4g60trbL5cSnM0zD5Yx/j7U/wJ4DvPHutpa2qHbn97Kfuxj619I+EfBln4F0SOys0CrxvfHzSN6muPwn8KsRxXi/7UzJOOEi9Xs6j/lj5fzS6bLXb+SPEjxIjlUZU6DUsTU18op/af8A7auvXTeHwz4Us/B2jx2NjH5cSdWP3pG7sauGLGff09Ks7Pm3bcde9NK729/av71weEo4WjDDYeKjCKSSSsklskj+R8RiKuIqyr15OUpO7b1bb6srCPcOe1NaLbx6VZdORTCMD8c810mJW24Pt060vl8dt1TeTuFNMeT9amQWKsqbVx+tU7w4Vv8APtWlLFis/UIcZ/WqM5GfswPTjFfPXi7xZ440vxr4y1CDxhcWMXhvxjpugnTJdMtptMtNK1K3tI7e9KhFndorm7MjMZwpFpMuADkfRcCbo2H904rkfF/wH8H+PfGFrr2teH7HUNVsxCI7iUuNwhkMkO9AwSTy3LMm8NsLEjGTVwkluZSi3scrofxD1z4p/sk6T4y0q3a18Rax4ZtPEMNlatvDXXkpcm0Qnlkd1aHJ5KvnrXJ614i+KsutXzWdlqmpRaPqpnhigtYrGDWraR5jFbeZPGrRBEhiDuomGbsHflCE96is0srSOGGNIoYkCRxou1Y1AwAoHAAHAA9Ka6fLRzW6ClG588+Ivg58VPGepQmXWpLFNEht4InGtGH+1LuOOWJ79THFJ5IJispRE6EEzXYIB2s3oXwY+ENz8Ib/AMRxLe28mi6lefarC1SPMtsxaTe8krDfIzIYF+cuQYCd537V9BePJXHGD2PfmkkG38vzpObasTGmk7leRfmI3ZJ/z0qGZcH61Ydfm/zzTHTev09qEU0VDGSfTvUezLH8xVp12ioSu36+xouSV1XJ+opsq4FTlc//AF6ZM6wozMcKBkk9qkCMICPemsvoa5PxB8c/Dvhu4ure41C3W4sRG01vv3TJ5jKqZRct8zOoHH8a+oyeGvjJpninXNRsbbc0+kyCK6UqVMbEZGM43cYORxyKCPaRva51G829/A38JPlt+PT9cVa1WDfbCT+KNgfw6GqtzF51uxX+IblP6itCCVbuzVu0qZ69OKCzNEPHT36UpTHQcU+JSo+bGV4P4da8f1u61q6+JOls2pXMNvfa7eaPdFLoxf2PthaSyZYvuSLJs+fcCT5oIIAxVRjcxqVORLTf+v6+/ZHrki8dO9NQc+/WuF8STX3xH+BYvLX7SbySOO5KWE5he7EcgLxowIOJFVgMEZ3CvJ9S8BfGLxDqfmaXqmqab4WliuYLWxu5VXUIkBYxec+S25vlUFSXAznnqctyZVmnom9Ln0hcTLbIzyMsaxjJZmwAPU+lc54k+MvhfwjqL2mpa5ptnPHb/anEk6gJHnG414pov7Ifivxh4ottd8ReJLqO1uI1WTRJbyS6js41ZXWLcceaCVG4uM9fU11Wt/sQ+G/EzGG/urufT2lMxtAqBd2FAG4jdtGwfLnB5zkHFJxXUPaTavFfedRL+0r4RkuVhs9QbUZ5J/s8SWyF/Of5idp6Nja2cHjaar3/AO0HZy+FfEV/pljdX9x4b2/arUjy5FYqrFee4DAfUH0q3of7N3hXQ/D9vpv2E3Nvb8p5rncrbdpYEcgkdSOuT6muk0PwBpfhq8vprW1VW1IJ9oDDPmbVCjP0AAqXYPf6/wBf0zxDXv2uNev/AAauqaD4dkvJJrhVitfLcy+Sxx5h4/u5YY6jHIzzNFJ8VfGum20jNb2Pn2onMfk7fKlIB8t+c8FsZHURH+8K98hs7e1A8uGGNQuBtQDApXbj+VK66FKm3uz5s8W/CD4lQ+EFurXVZr7Vbdi4s3n8tXYOGX5sdCEUEHj96/oK2PiJ+yPbfGprO81q+uLVmtglxFCcMzfNnn0+dx9HPoK9zZ/m7fXNRSMoJ7/1o5g9jF7/ANWPHbf9i7wXFPazT2bXU1rnazE9csc/XLvz/tewx1ifB/w/apHnT45fJIKNINxUjgfp+eB7V18isxbarVFLbTSDlVH40czK5YrZGTZaFZ6XGy2trBArAAhEABx0p8ke3I/L2q79hkX+Ic1HJZbhyS3NIepnShc54qtNLvzjk+lac1tHnd+Wai8tUUcAfh0piMiXL9AeueagktpGH3R07961ph8u7v8AyqvNx8vNFgMl7OTHP1qB7BWHzMa0pQGyfxzVSUfNxVAUn0+MA/xdhVaSJQT/AFq9IMr9B+dVZypLcc+lNEtFOZcD5ev8qryjKn3ParE53L2+lVpW3q3+NWSUbj8M96o3Jwh44PX9avTv97+9mqE4z/P/AD/nvVIlnO3yG1vs+ucH1qZbkBRnPTtzTvEVtiNXU/d4NU7aVfK+YEt7Gp9ST9HEGfz/AM/1qRFOP/rU1Rk1NGhx361metEdGuW5757VMq/L0x2qNR/kdqkjXDcgUFDgNw/3jkU5YvWlWIxnP4VKo5ySKCkhsaFj9amEZZR34oROfpUijb0/E0FDdnbp6Y7UFcfd71Isfyf4d6eU3+vpQVykSJu/rTsYU1IkWQeKd5fFTcEiPbkHv6UnlA/h3qYoSv09ulKU3D0ouUV2j2/w/wCetQ3FhHcIY5Y1kVuqsM1dMfy0wp/9f6Ut1Zh5nm/jj9nfSfE2+azX7FdNzlOFJ9xXjXjz4Mav4WRlurX7VatkGSNdyke4r6tMOR+uKjuLRLiMpJGskbcEMMg1+RcaeC3DnEF6/s/YV39unZXf96O0vuT8z9C4c8Ss3ypqnKXtaa+zLdekt1+K8j80/id8HW04yX2mR74PvPCOdnrj/Cvjv9pT4YNoeuLq9un+i3h2zgD7j9ifr0/D3r9sfH37Ouj+LkeS3X7FcyDlkHDfUV8iftYfsKalcaJqD29j9qjmRt/kjIbryB2PuK/EI8A8S8I4xVqkfrGH2c4K75f78N1be6uu7P648OPG7KcynDC4qp7Oo9Ep6fK+z8uvdHxP+yRpW/T9SkVTvZljHv0/z/kV97fs+/B+6vrC20+1izNN+8nkx9wH1r55/wCCe/7Nuqa94lvNLe2kH2C8/esy8Lgn9Twfzr9Pvh/8PbP4faIlrbKpmYZlkxy5+vpXRlvhzX4vzydbEXjg4STk9nNpK0Y/q+nTXbn8dPEyhk3/AAn4RqVeSTS6K60cvzS6vyI/BPgCz8B6HHZ2qjdjMkpHzSH1rVaPJx69qtsuFyR2/Oo2h3Z4/wAa/rrAYLD4LDwwuFgoU4K0UlZJI/hHF4qtia0sRiJOU5O7b3bKnlY/DrgUnk4yPerTR46/n6Uw/LzXXc5eUrGHC/401494/WrBGR+OKCmF/wAelIdim0GTRsz0qw0ef/r0wj5v6+tIXKVnhzg/lVO9iBXpx1rTaP14+h6iql3DlT/nNMmSMOH5bll7NxTzHkkdaSdDDchvQ1M3Dc5IHXmrMl2K0i5PPvxUDJ8/59O9eE/8LH8ceDtU1XxBq/iqxutF8JeJbXwxrmjNpUcYEE88QXUFnBDqRBf202zBULCykscufSPjb/wk1nY+Hr7wtOPtFjrkDXtm67odVtpEkhMDtgmMGSSFvNHEezeQyqym+R3sRzXVzqtuz/CkeHI3beD618/eDIfi5LeaJc/8VBHot5rV5qU9tcQwfbYbW8u7a6itZ1kkXakMMl/bHY5aHZCVV/l25fjH4C+NLqDw/oc114g1C41rS4tK1XWl1W6mfTxJYXFhfPsP+juC1x9uQyFWDxmNQfkVH7PzI5n2Pb/H3xN0v4c29o2pR6pL9uEzwx6fp097IyQxmWRtsSsQFjBb3CnGelZN7+0B4Pgumgt9ZTVLvzIoorXTbeS8uLlpSu3yUjUmUDeu4puCZG7bWNZ/su6fr/wm0vwv4oWxvbPTtZm1UWtqJUtdsqTxyW4+YFY2S6nG1NipvARQEGZND/ZK8M6JqFzdG41q6urqOPzJjPHbTfaENuVu1lgjjlSbNrCx2uE3eY2wGR90+71D3+hm+KP2t/DWkeD7LWbG31LUodUMKWqrA0W+WWTTRFG+QXQtHqltNjYzCJZTjcu08zqX7Wd5ceIrCGLTLfQbOOawv7pNVLyXj6ZJ5Ed67xxgrbyWslzlvMc4WzmO0qQa9E8Jfsy+CvBttGkWh2t9Jbpc28c1+PtUggmMmYmL5DgRSmHcwLmJERmYKK6zSvDdj4dghh0+xs9PitYhbwJbQJCsMQOQihQMKCSdo45ovFEcs3uzhPgL8RNa+IPhu+XxHYLYazpN2bO7MFs8NnK4RWbyC7MzorFk3NtJ2glF6V2t/a/arZ4z8qyKRn0q1cPsKlj93gEnpVeW+t4dy+bHnI6HJqfQrlstTyXx18Bbvxp4uW6muLdbBLB7ZrU6ek26ZpIpPtG9m2kg29uMOjcQ4yM1J4A/Zut/A+p2d5DcXUlza2Zst0zptZWEQZiqqOSsEQAztURgADkn06fVrcL8gkbtwuP54qvLrbMm5YfpuOP5VXMzL2ML3LUMPk26L12qFqTRiyxyw94XOPoeR/X8qzZNTuJQwHlqM+hNP0K8kTW1EjlluEZMYxyOR+m6pLurl26jMN6wP3WAcfyNYHin4aaL4xufO1KxWaTYI2dJXiaRBkhGKEblyTw2RzXVX1q1x5bJt3L2J6j/ADioTp8rf3F9e9BUop6NFO00+HT7KOCGKOGC3UIkaLtVFHAAHpilZc/nV4WGB80hP0HWm/2dHznccerVNw5WUs8nPHNRiQEcc/hmtE2yx5IVffjrSso7f/ro3AzhHIzDbG3fr3pWt5GH3VX8autzTScj9aCeUp/YCwz5n5CnDTlzyzN65P41Y6/n+lGMn8c1JViqtpCP4RSPEFz8vf0qaQcfkajPB570AVpu1QyDd0qd+Py9KqPeQxzFGlTzP7pbk0AQynPPbrmq83zVHrPiGx0WDzLq6ht0wTl3C59a5fVPjN4csEYnUoZPmIyhyOASTn0AVifoaCZSS3OgkOF6VCe/p3Fcr4c+LcHjG+eOzt5lt3QmKZxje3zZGPUFWB98etZNr4m1eLx3PBKVax2AqQOp7j8OP1qvIz51udxORg5/nVWTk/49al3+dEreoqFzlf8ACqKK0nyt/Kqsx3t61YmbcT39qqzNhvfHOaAK8rYPrn0qnL9atSnA/D1qpMdnf347UC9SpMS7VTlGF/DNW7lgB74zyetZ11eIhPzLj09KpMgZMc9MfSqUzfIR75Bz9KS71mKLcN2evNZt5rOA21c/jVXEx99F58TD1HHOa5aecW8zKRnB4rVuNVmfceFxyP8AP+elZF2jNNz8tTfUR+macnn1qZMCokGCP61LGNv9M1J6qJUXj5etPi+70HbOaTGD+pJqZFwR1oLiOK//AFyKfEPWnKnr+tORaChUXacehqULx/npSIv44p6qMfU4PvQWlYAhx9TTwmB/KljG7nGfapQn6VAyNEG4e1Pxg/zp4/8A1Uu35vxwKRXKMVOPalRMD8u9SKuWo8nn+VAcpGU9u1MMW4jjpU+3B9qCn+J56UBylcR45oMRz/nrU+3bQY8Z+tAcpX8s7s/Sori1W4RldVZWHIPINWnjwfw9OtBTI/zzQHKYGh+BdK8M311dWNjbWtxenM7ooBkI7k1pmH9f1qyyfX60mzI/zxUwhGCtBWXkVVqVKkueo233bvsVGixz2ppUZarOz/IqNox+PT61RmVZEwajeHI/l61ZlT/GmMmw/hTJ5SsIM9OlJImF781aaPJ9v50xoeePXjikHKV2Tnj17Ux4uP0NWGTnp9PamtFz04oJsyq0eT9ahnhGauMmP5VHLDu+b69qAOf1K27Y+X6VHGpkjX3GDWjqcHyf54rwf4s/tYzfCH9rP4a/DS60WN9P+JFrfvaaybg/6Pd2qCT7OY8YO9SMHd+BrehRnVbjBapN/JK7/A5as4w1l6Ho8/wx0GW61qaTTYZn8Q+U2pByWW5MYxGSCcAjA5GDwPStZYVjiVY12xxgBVXgKAMAD6Vnz6hdS/8ALXbu/uoBVW4MjL880rd8Fz/IVGvVi5ktka0zpF99lT6sADVObV7VCf3ytjsuW/lWb9nj/uqT24prbUXnjtnPWglyuXJNeiMnyxzvn/ZC/wA6rya7IzfLDGq9iz5/pXPa98SvDfhPUbmy1TxBoOn31nYS6rPa3F/FHcRWcSlpbgxlt/lKqsS+NoAJzxWd8LfjV4Q+N+mXl54P8SaV4jt7CVYLtrKbcbd2QOodThl3IQykgBlORkVp7OVuazsR7TW19TqZNWupQ37yOPuNqdPzzVWaWd1/eTzenDbc9PTFTsN27rzxUZXd/hWYFNrVWPK59z81OMYVOnbJx2qV/X+VMX5j9e9AEMsPzYGOlRhcHGPy71YkXJOfrUIAPzZB65I7mgnlGhMIf9qo5JWtE85RuaE+Z9cdf61OV2r+hpFXH8uaCeh0ylXG5cMpG4EH6Gkxtf8AHvVLw1cGXSERm+a3JiOewHT9MVexjt/9c0jdaq4xhueozkH+tcVpv7Tfw913xRfaLp/jLw/qWq6XeNYajb2V4lw+lzKkzsLnYT5AH2eZS0m1Q6bMhiFPO+MP21vhn4a0azmtPGHhzXL3WnubXRbXT9RjnGq3kGxTarKm6ON2lmt4gZCoMlxEuSXUFJESqxXU9WA2/n3qNgTmvmuy/wCCnvg25tdOlbR/El9HeRG6nuNNt1mttPheW2jt2lZ2Ry0pvrDiNHC/bIyTs+au2/Yr/a70/wDbQ+Ek3iqx0a+8PtbXZtJrK6mSV1zFHMjhlwdrRyqfmVSCGGMAE17NpXZnHEU5SUYvV/1/X/APXSnPcbupqBpFMu3I3/e255A+lZHxMnvYPBl02m295cXylTAltjeHDAgnJHy5GD7E15hf/Cvxxrmvw3st1Is1rC0G+bUCgdn5MiCMfdXAwj/3mGcVKjcJVLOyVz2C/v47G3aRmG0eh71xuk/HfRdb1uOytZPNkmTcpCnbx/DnGN3t1qb4c/DW98G6Hfafd6gt5C9x51rwd0QIG4Fjy2WyfYHHas0fAe1HiQamgkhmWc3G1ZcRljnqo/3j+dGgXno0d5FOtzGHTlTyK8t+LfxD8ReAvE8n2K3bU4bqILaWsSciTqS3tgN9TgV6hZWn9n2scW7dt9e9JNErupZUZlzglRlfoakqSb02PFtA8c+PfEmnG4uNLe1uJFykCJ+7xtwfmPOdxHUDhT6gU2w+EWv65JY6lqV5LHqEE7yMDL0RmbA47geWfTKehr2aRfkJFVZjhz/nNV6E8ndnm+n/AAfGu+BLfS/EDtcyQFlLH5tycbRz6Yxz1FZ+i/s0eH9El+YTXFukflxxSNkINoB/PBz67jXp0sqD7zqOM4zVGW+jX1PsKOYOSJm6d4WsNEgjjt7aONYWJTA6EnJ/Mkn8ajuNGt2m8wp83WrU2oNv+WPjHfiqs95Mx6qvfpRd7h5AwG3Hb0qrOwXB3dzUdzI7dZG4xxVGVcjuenXvRcCWW6jUfeBPtzVC51JcZVSfYUSfe46YqvK2V/D86oCG51JyW2pj61n3l7NLnMgx7CrV0dnzfU1Ruejf0OMCghlC8LSrhnaqMyLv554zzV24kx1/GqNy+frigRVmwRVG56lenbOatSybd3X29/8AOaqTPx7AcGgllaQ4VvpVOVd79AfrVidwvplv/wBdViWY9G4460AfphDyP0qeMZP09O9QxfM2fxFTKvz5/Cg9YsKuP8akjPy/yz3qOE54qRF3L1+tBaJQQxz2qWMcNUKjC+nsKmC9PQ9aBomQYP0p+3Cj/a/XvTEG09Md+tSL9wfTGPWoZoOjGSOvUVKiZX/63+fSmqML/n6U/wC8Of8AIpFRHKuD7A+lOC49m7U0Lz+PrUgHGBQUAH+f5Up4pcc/r9KAOD1oAbsIPfOfXrRszUh6f/WpqJzzz6570AN2cnP48Ubc/UU8cn/PFJtw3fPegCMrigDnPGOlSGPcc0gXn7v5UARGPI/xpnl5B/p3qwRwKQxbjz360AVSmVPH6VGY/XHTOKtPFgfl1phT8KCeUrSR49sHvzURTnvVp4sN+HamLFk/px2oFZlcxf8A1qaUII9uelWNu4UjxbV/GgRWMeVz/nFR7ck/r/8AXq0VwKjkTB/zzQBXePctQyR7c1caLj1qN49wH1oJ5TJv4ep/Wviv/gsZos/hT4L+DfilYq32/wCD3jLTvEDFB87WjSiC4Qe211J7YTPavt67g3xt8vtzXlX7U/wgg+OX7P3jbwdcLmLxNot3p+4jJVniYIfqGwfwrty2uqOJhOW19fR6P8DhxtNypNLff5rVGV8UviVH4A+C3iLxpZ2ravDo+iXGtW9vE3N6scDTIoPP3gAM4PWvmn4RftceO9J+JVjZeMNa0HxLpupavpekXSWOkfY1s31O2WW0uLKZZHFxAJiYXWUB8DzA3BSvRP8AgmH8T5fjL+wj4EuNS3Sapo9k/h3VYpQCVntGNu6uD3KqufrXSeDP2KfAXgPxrp2tWFrrBXQ5TcaRpdxq9xPpOjylWXzLe1dzHGwV3VcDCB22hc118tHDurh60byTav6afL+uxze/PlnB6HI/tgeMdW8F+PvCsl14y8VeBfA8mmak9xqeg6al6/8Aa6NbNZxXAaGY+S8X2vam0CSRVQsCUBwtcu/FHiP4A65b6pp/iRpI/iT4f1LSTf2zrdPpdzrWk6kqleSPswnntmXJ8sWhBOFzX09hkf5TtZs85qBgsIDbgqg9Scev+Nc9PFqMYrl2d/ud+1/Ldl+zfNe58/8AjH9nDW4/2hfEWtWPhj4d+I9D8datpup3+pa6GOpeHxBaJp95FbosTeas1khEWJY/KluJywdW2m9+y/8As1+KPg9rrap4s8VaZ4gvrXwppHgqz/s+xktRNZaa1yYLm6eSRjNdOLkhmARFAIUHcSPapdRt1U5mj3dwpyf0qq+swr91ZWP+7j+eKmWLqSh7N7WS+7+uhPs4qXMTNHt/lUbD/CqsmrPj5YR/wJs/pj+tQvf3Eg+8i/7qf45rlNLl2Rdy/QE1BKixcsQv1OKozSSMMNLK3tux/LFVzboOdvzepGaBXLkmo26/8tl9gvzVXfWoVPyrKx+gUfrUbJlenbpUJhHXHPrSYrsmbV3PyrCo9SWPH4Yqu17cPx5iqP8AZUc/nmmiNgT82fTjH+f/AK1OEYX09aLkmp4FvZItXureSR2+0xiZSx7r8rY/Ar+VdNIPl+p/OuHtL0afqllc/dEUwVz6K3yN+Wc/hXeTREHHpQzSntY+ZdS/4Jx6H4h8f+Otc1HWL6aTXtcXVPD8LHzbbw9DJeafql9CsBwpN1qNpNJI2SGjuCgC/OW5n4Nf8EmPCvhjTNDvPGGtar4i8VeHbm2GnalaGGyFraWccVra24CRLu3W1tZ+bI2Zi8C4lwMt9SeMfiD4f+Hdm1x4i1/Q9At1G7zNRv4rVQPXMjCvN5v26/hbLdtBo/iK58YXKkgReGNJvNbLH0DW0Tpnjuwrop0a81+7i2vJM56zw8X+9kk/N/obXhH9lT4d+BHkOm+EtHgMqPG2+MzfIwiDJ85Py4t7ddvQC3iA4RcdjovhfTfDMdwum6fY6at1M1xMtrbpCJpWOWdgoGWPdjye5rzCT9pTxX4hX/im/gz4+u1b7k+uXFlocA9yJJmmA/7ZE+1Ryal8dPEx+W1+FvguFsH95Ne6/cKPcKttHn8SKbwtT7ckvWS/JXf4EqvRX8OLfpF/m0l+J68UwPpUbDK/hXE/DTwr4y8OXd5ceKPHX/CVNdKqx28WiQada2ZBJJjClpCTkA73boMY5z1bhnHzSPjOOuP5VzVIqMrJ381f9Un+BvGbcbtNeTt+jZOxVR8xULn1qFr2FFxuzj0yajMKZ9T6nmmS/IO/4VBQs+oqRtVJD9Riqcl/I64VFXPfOamlGTVeV/mP17UCuQ3NxM5+aQjn+EYrPuF3jlmOeeTV6Vu+Oeaqzjj3oEVfK2Hjj61DJknB71PK+wdfy7VAx+Yn8eaBFVztz+tV5jkt19BVhmB74qrckjP8vemBVujx7VyPxf8AF154C+HOraxp9mL660+LzVgJ+8M8n8Ov0zXWOmT7H9Ko6pbR3dvJDNGssMymORGGVZSMEH6jNID46vv+CjVz488ARx6Ro9xpviKdxEVCmVEchQeV4O1mcHn/AJYSD0rb/Z3+OPxC8bfGiNfEOj3trot9bFUV4CqwnJ25PXOwxk9eQ/TBr6F0n4beH/DcQWz0XToVRy64hDHJ75OT61pSYjT5VGOeAOK2Uop6Iw5J7ykVrjrzj8aoXXU9TgetWrmZQPvf/Xqhcy5XC7m3HHSpNCrdOKozlWy3tnrV2e2nlHyxY4+XPeqU+mzH7zhfTHagRnzSAq2fwqjcyKvfp6HrWpNoag/MzN0qN9MhiH3T64oJMG4nXn06niq5Kd9v410E1uqrtCr17iqM2nx+Z938hmmFj9JkfJ3Y/KrEbc9eM1GFAH4U9Bu/l1pHrEqDC7u/c1Knv0qKL5unfj0/z2qRPkoKiWIGx2561KF2nP8ATrVZW259jip4jwO9BpEnRmHNSKCT+mahHDLmrEfGP6GsyiRTinxjJqNOG9+9SLyf1oLjsSAbR/sj1p6jBpsbYH0/SnYwPw/KgYAZXFOwT9aUctn3pQMH2oAaFyfx7U5V4/GkzkelL0NADSM/lSkc9KBwP5+9Lnn/ADzQA3HGO/1pcc/j6Uu7j+lAXj8+tACEZXP4daaUx04FPAwfwoPNAEZUgVGyYH+easYznpUbLkeuKAK7pu600xZ/Ec1ZaPd9SKYy4bn/APXQBX8vYcc/gKHTPT7vrUojyf60hXIHT0x60AV2j3EjH59qjMef7xGelWWXHamNFmgVisU3HmmPFxjv39qsvFgdO/cVGyZ/nQS9ChdxctgdaxtUg2lsfw+1dDOm4fwnFZepwZUjP4UGU4nwf+xFqD/Av9sH9oX4StH5dsutx+NtIVzhWt79R5u0Y6CYNX1DLq1zKeDGv+6uT+tfMf7Xdt/wpH/gqJ8FvHSL5enePtNvPA+pS9FMn+vtQf8AgQfGfT619M+Xhv6Zr2My9+UK/wDPFP5r3X+Kv8zx8PeKdP8AlbX+RXeaaZvmmkI+u3+VZ+r3tno2nzXl9cW9ra2sbTSzTyBUiQdXZmOAo7k8VqOnLe9fM3xP/Y71P4k/teal4hF1Hpnh2+0y1u5NQhjLag90kNzZyWUcvmDyoJIpYpHUIwZoxyp5rjw9OE5NTlypK/8AwDSpJpXSufQ+ozwaLYzXV5NDZ2tuhkmmncRxQoOSzM2Aqjnk8V5n4m/a78EeDtb1a31XUvsNjosMk91qDbZLcqLa1ukaIIWeZHhutweNWH+jzZxtBPz2f+Cfvjj4s+JvEFj4s1SDQ7XULSKW/wBetLue4vdYnlsbYNbhS3lm2g1C0F0FYKQZCq4DEj0rwp/wTc8MWHhG30vWNSvbxRaPaTx6ehs7eRWGpxnaHaWRR5OrXEXMjNhYznKiuz6thaf8Spd9kv1MfaVHtE0r/wD4KG/D2HxrpPh+xj8SatrGsW8skVrBpbxXFvMk1zbrazRTFJYpnuLSWLDJtRjGZGjV1Y9d+zN+0PYftLfDZtes7C40e8tbtrLUNMuWY3GnTeXHKqSBkRgzQyxOMqOJBjIwTYk/ZW8Bz+M18SXGgx3Wvf2j/axvpZ5TJJdYgzIwDBXBe2hl2MColUyBQ7Eno/BvgLw/8MtKm0/w7ouj+H7GSdrl7bTrSO1ikkbG6QqgALEAAnrhQOgGOetLDclqSd/MqCqp3m0arR8dflx3qGXd3Aw2Tx/n/wDVVpNzttWORlHcKcGnHTLhzkQ7f95h/SuM29Cjs4/2aa6+36dKvjRpc/NJGvHZc0q6KgHzPI4PvjH5UrBqZW3acn86RnVuhOT2FbH9k26EMIVznqef51IE2H5cDnsMUBymDNYSXMTR+RJtkUqSRtxnI712nhy7kv8AQ7WaXC3HlhZOeki8N/48DWSwx/LpVzwtdYnvbVv+WZWZfowwf/Hl/WlcqOjOF0L9kn4XeD9bk1DT/h74Oj1CSVpWvJNKiuLksxLH97IGfqT3x24rvIz9lgWKLEcSDARflRR2AAq5qKfOG9Rg1TKbVbn73X/P+etaVKs6mtSTfq7kxowp6QSXorDWO4dPcVEzjOeOvevkz4uftY/GTwJ8afjFpGh+H9F8Q6b8PdHl1qGOXR5obe0smsILqzuGuUuTJdTSyR6pb/Zo4UJazV1cDIbmPij8ff2grbxx420nUbbUtD8N+H/EllHa6n4Q8PiS/wBQ0q4ulsomtJr9HspTKby0uCPM3x/ZLtH2LgiORsiVaKdj7Z5kPygsR6dqaJPMjDKylWzgg5HBwf1BH1r4w+H37N/7QXxK+MGl698RL+3sfDrSaH4hv9GTxHO0CajFHB9qt4o4mPkovn6gPLU+UXtrFsykPIPY/wBhv9kG5/Yy+H2seGT4iTxBp11qH2uzYwSQyoojSLfLukdfNdUQuYwiFgWxudjScdNxRqSbty6HtRGaiI3kc/nUpXK/zqNzt59TUmhDIMHd0z+lV5OP59KsPwPx5FV7mT5u3r0xQIrzdD+lVZBkH9anknRTgkdOlQSlm+7G7fQUCPmG/wDiB8Uvg/8Atxz6VqC22sfCHxkqNptzKv8ApGj3vl5aAMv/ACzdldhv4HYjGD9GsxZS23t2p9/YR3S7bqANyMb1B6U2RsfninpZJExi1cqzYCdaqznanzc9qtTjjvVW4XcNvWkUUZZTVWYlh/8AWq1dBQvzduDVC7vYbcndIvpgc0AQGJrpjhtir1aqqfYr4skdzHcOp5AkBP6VW8T+Zf8AgjUltWZZTGw44OM8/pXDT30kGpStZaZ/Z+m6TZxyx6gX5u5CR8nufXPf2zW8YJ6nDiMY6c1G2m/Xz8uiXXTZHoUlvb28bSMsaooLFu1YK+PtDm1G1tYtSs2nvyRBGsg3SYxwB+I/OvD/ABD4B+K0nirUbfRbua40G7RpoxdzgQlZOQinqNoVBj0aT1FZ/wAPv2KvEnhfXrPWrnxFbLfW863BTYWG7aSRn3Zs8dNq/SlGL6m3tG9keleOf2ovBvgm6vLe81ZPtVjkzRqhyhBA/PkfmK8l8Uf8FCdJS4mGiaTcalFGmQxO3LbgvT05zn0B6YNejX/7L+i+LbnULzxJb293d6jIXk8kbVx854/77J/L0FXPDf7PvgvwLbrHYaHYx+WmwF1DYABAHPoCR+NCUUtWD9o3pY539nr443/xt0m+vrzSn0uON8Qo4IYjAPf2Za9B3YPHp0qJf7P0eHy7eKGFB1WNAo/SqNxrYGfLjdqJW6DjdLVlm4baTnp0znpVaRNzfdXjjntVO41SZ+AFUdfwqn/acr/8vAH0NSPmP08CkH6fyqSM7jjHtTRy3404DDduuelB6xJ1b36c9DUg4b2qFDzTgcn1OKDRE6nB45qWN9y/hUA6/h3qWM4b+mKALKZP51OjDH4VVTIPNWFfjjvWZoicLgfhUoOWP8qrqxQ9qmRjj39KCokyjDU5Tj+lRg9ulSZoKFz/APW56U88np3phNL0H60AOzmgdP8ADvQp+v50LwcUAGOaWgDI9aMcn60ALj/OKMYP86XPFJ396AExx+NLtz+fBoPBpSKAE6evpTSMU8c0mc8Z9elADSM+hqN1y3pU2M03Z+h55pXHYhEff+lBTnt61M6hM98+lGzH5UriK5XZTSmPm9/TrU7L7/kKY6Y4/vcUX0AryJj+tRMu5uAPYVaaPcPl69eKY0Xzeg74ovYCnNFuXp26etZ+oQfKc7feth0yKo3UX7v8elURJHxb/wAFm/AFzqf7HN14q02JpNY+GerWfiu0ZfvILaVWlx9Yi4/GvWPBHi+18f8AgfR9dtHV7XWLGG8iYdGWRA39a7741fD+1+Jfwy8ReHbyNZrXWtOnspVbowkjK/1/CvmL/gk1r39ufsd6XoF/tfWvh7fXfhW93csrWszRqT9VAI9q9b+Jl9+tOX4SX+cfxPHnHlxLX8y/Ff8AAse4kbj8oLd+BTRZTSj5YXO71+UV1H2dRgBdvHbjP+f61C8fP6V5uhtyHPjQ7hxz5K/jkmnf2DlPmlb6KuKzdZ+Lul6LqV5Z3Ed6t1ZyyLKscBm8mJI43a4fb92ICVcnr14ODXHS/tMT23hOxv7jw5PbSTRme4Mt0nkpBG8kU0qlNzfLKgUJt3ESKexxXKyfdR6HJo9uo5Vn9NxJqSG0hjX5I41+gAzVi2vItQs4bi3fzYbiNZY2AxuVhkHn1B/WmmL34qR2IWGF4Iw3eo5c+/fpUzptfafr9ajkTaMcUAyFlzUbirGAf/1VG6bhx+poJK7LkfSo5OWNWNqr977v86jfBbp/9egBg5P8qLBvset20nTzWMLY/wBrp/48FH40jKf8KjvI2e2ZY2/eY3R/7w5H64qHoB0V4oMTfXIxWceQfX0rTs7pdQsYriPhZowwx7gGs+RPJmI688Ui590VxZwx30lysMS3UqJG8wQeZIqFiilupVS8hA6AuxHU5Urkn8uadNuVlVV3Mx454+v0qSLTs43yudx6KAuT1470EFYfKDUbTKhK7s+3Wrz6bDG3zR7mzjLHdTTGAvyL6DCigLMpncw+WORv+A4FRSQSv/CqjnGTk07xZ4o03wNoN1qmtahZ6RpdigkuLy8mWCGBSQoLOxAGSQBk8kgdxXnN7+1h4auojDoK33i/Ur2O4m0u00GI6gNRSKG2kWQywhkhidry1j8yUqqtMNxADEBEml8TPQWsm/ilb6KAKjfS4Qu5l8z/AHiTXjD/ALb+n67pXhWTRtEm+1eKrixiWDVbyO1+xpdJp8ys5j8zd/o+opINuQfImBI2VwXwl/bL+JvxF8VeH31HwXDYab/bLaHrum2NtPdX1lLJ5e1pWwY7cQEy+YHkBKxbwv7xYxXs5GUq9NaH1F5UafdRVHTAGMVFO5Iqy393vVabJP8AnmpNbladVZMNznqDWDfSfY5WjVHk7rj0rbkXDdTWTqTB7w4/hXafWmIzp7idx/qkUcfeOTWa5mvWb99tjBIBUda1pjtf/Z9Kzbd9luq904OT0NNCMu/0xg3mb3l7bHbg/So08qSPMar6HAwRWlccj2Wsm5zb3x2thZBuwPXof6UeQuhG8zW025fu9GX1rndU8G6FqN150sc23cHaDzGERPqV6dq37hhnPtxVC7LEqqDzHJ6dOKqMmnoZ1KcJ6TSfqOuNbjB2rGx/DArPvNYmK/KqLu/Eipp9MuHxudIz2wM1Xm0ZXX55pGz74FBWpm3V7M3Mlx7gDisu7dZyWVZJPU810E1jBbp91Rg5LNUMkQg+VVVQp9KAsc3LbzMPlhVV5wSetQzaRK5wzqvPO2tyY5POKqypxyMd6CeUxzoEYGGd29cnrTF0uCMYCjH0z/StG4Py/wCFVZVy3Q/h2/Sgeh+ln3WycU5Oefeo43y3c1ID83OO1B6o/Hp+FOU7QfTpTFbcpH4delOEmRQUiYH/AHR6/SnI/c/rUYbI7n6U6Pk+vp9aCiwrbE6fhU0bZ/vDtVUccgDj2qVPujP51MioluKTcOoH0qZWz3HtiqaMR93ip0b9Kkonib69MH3qVT3/AC9zUCHn+lSodwHWguOxKpAPb0Apw4bv7HNRgc/WpV6UDFVeBRjj6UDgj60o57UAL3+vIoxg0YwaM8UAO6eo+g6UEfz/ACoB/wAmjFBXoJn8+9KDx1+lK3P3aXrSDqN27T6bfWjbz6U7r/WgnmlcoZj9KVlxSg/NQfmqQEIFNPWnYBoIwTz+JNADSOf0pjrmnleQe/cU3GRQAxl69eKiZMtip2Tt2HY0xkyvegmxXaPetVrqL09OR61dKBv8/nUMwwP8KaJOe1KE4Zu/Wvin9l+D/hSP/BRL41+Af9Tp/iyO18ZabHn5S7gwz7R9UBP+9X3DqcIdc18T/twRN8Gv24fgf8SFHl2eoXk/hPU3A4ZLhQ0efo6KOf73Fezlfv8AtMP/ADxdvWPvL8rfM8nHR5XCp2f4P/g2PqCTg/jUbL+g6VYlTa349QKjkj+bt0ry0zY4O7+Bmj6lf391qFxqWoXGoMN0j3BiZYgpTyQU2kxlSQVOcjrmtCw+GXh7R7m7mtdF06KW/O64PkBvOO7d82evzHP1rpnViOPxqtMNnLHbuxjPer5nsZ8qInRVwowuOntUJO0+vPrU23CtuX5R1PpXO3PxG0n/AIR681C3uYbtLNpI9iSDdJIjmPYvu0g2g9CSKQGwU4x7d6hkXB9ccfyrgtV/ab8MwLdJZNf6reWscUjW9pDksshiyQSQAEE0ZcnAAPfBx2+kanB4g0e1vrWSOa3vIlmidWDKysMg5GQevYmgnfYcR7Ypu3Ax0qYHalQvy3qfyoJI2iw+D61G8e3kd/0qRly3r/SmsNv50ARMQv8Ah6Ux24/kac/zH+VNKe1LlJL/AITnzYTW5+9azMB/ut8w/mR+FWbxMSbvUZ/pWXpE32LXVX+G6jMWP9pcsv8A47vrYvQSm7n5SD/n9Kg1WqKlucXhyOfLOB+Iz/SvIvH91o1ppfibWNc8Mv401z+2JdCsbCSyN3FZuVQ2Vvu2utrHMskEjTEAbrkEn7i161MzIwZfvKSf971FYuu+DI9d1c6npurap4d1cxLbz3FiYt1zGpJVJopkkjcLuba+3eu5grhWYHow9RQev9fceRm2DniKaULNq+jSe6tdJ2Ta6XdtWee/Fm78XeEvB2saL4U1DXGbRdS064ku9PtI9Y1i10i4ZhMlvHcBxcTwtFKwV1eRrfAVZJtm7zfUvg58WvicdP1C41LxVbxanqs5ngvPEH9kyaRp95PY3B/0W23xTCKxa905oJGaRJo1mifdIZ1+j/C/huz8E2Uy/bri+vL6Y3V5e3kitcXku1UDNtCqoCKqKqKqqqAADnN2XU4yD5YZ/TA/xqakk5XRthcPKNFQqab6XvZXbS+SstNNNOh82/CT9mbx5ov7L+teBNUs/B+nL4sieGaO0vrhIvDjiyt7Y3dtG0coeaW6hkvtm9EWWXdud3kY9h4W/Yy8N2cMd/r15rmseKLieS91DVItRfT5Lqea7ubyddtp5K+TJNdSb4toSQRw71LRqR6497IynbGq+7Nn9BVZ5ppD80mOeijGOffNRzM39jDrqYWgfA/wX4X1iPUtO8J+HbPUI0ljS7Swj8+OOSWSaSNXI3LGZJZW2AhQZGwBk10F1qEcZw0w6YwW5x9Kp3DxucMxc+7Z/SoZgQMRxPj/AHNufzxUXZastiSbVUJ+7I/bgYB/Oqs+qSnoqr6ZOeKkNpPKORHHz1J3GoZdKYjLzPz1CjGKAKM800n3pfvcYAxVN2CjC/Uc1qPZwxH7vv8ANzzVW8sYmb7oUr0I4xQBmyDj9frWc7CO/kX++oYex6GrtzMLQsJGVdp5OcZHrWbDJ9su5JhuWPAVMjt60AF0efbpWLroKWbTJ/rIDvHPUd/8+1bFzhvTnj8ao3m2SNlxwwIPuKexO5mLqUN6nyttdfvI3BH4VUe8+yWWoXEe2SS3jLquc5IXOP0pRBHPF5c0ayPCdpJHPFRIV0mXcq4jbhwB+uKdidTyyHxlJaahodq/iLUJfFuvQteLZKN9uqKhcqy44UAFd2fvDtmuD+O37XPi7wz4oh0jw/4ZjurfUbBbu3vH3s0xHEqKAMZyCvOMYzz29h1j4dXkd1JLoWoadawzRyIjz2glmsg+SwicYO0nnB4zWpo2j2nhPQ7OxV1ZbGMxxyOBv9S31OTnFdFTkav/AF1/4H4nm4SlXhJxlp+Pbu3q9W3p00umfJ3hnwl8XPizoctpJPrmk6ZdQu6NI/leZIWDAt3HJyAOgjx/FX0x8PLXU7DwJpdtrCqNRtYFim2y+ZvK8A7u+QBnPetm41qEEqvmO3bA4FZ95q8pX93Go3dCzVnzK1kjujHld2yeY5/4F196rXB2K2cDnqT0qncajMclpdn0GKzJZF3/AHnlIPqW3VJXMXbu9gjbmQben1qqdZhH8Lt7kdahNrI6fJBj3PGaryaZcl/vIvsBmgLs/T5Uw3+Ap2/ApqMGXp9Pzpx/H+poPWHR8MfzqRUwfw4qPqcf1604HLZ3cD26/wCc0FJkydP/AK1PQ/LUUZ4P9Kk3fP8A4UiiRSQM/wAqepyR7Coh+PHtTlb5uf07mluBYhPGRk9xUsbYHeoI1x+VSI2R/jUmhZRsL71Kjc8emaqiXPv9KkSTd1oKTLann09xTw2Krxtx1Hy+lSLJ/kUFEwbNOzk/hUSSc8H9aej4/wD10AOB+X/GnZwT0pueP5U7dg0AKOn4+nSlzk0BsN/KgDjt1qblCkZPX86AcCkBoxj8vSkyhw5/AUEfrSY470rHn+dIBQM/y+lJ/D1689aN+D/LijOB8vagAYcfSggEZ/yKO3f29qMccc8UAJj5f6U3G2nAZNN60AIUx7djUZXP6VJjA/8Ar9KaeAev0oEyIrkc+uMVFINw4qwwyc/5/wA9aiYZ/Oggyr+H5W/lXyz/AMFWfhtP45/Y88RXdhGz6t4Xkh12xKj5lltnWXj67RX1deLw1cb8SfDUfi3wlqemTIGi1C1kgZfUMpH9RXbgsR7GvCt/K0zjxlPmpyS36evQ4b4H/EGH4sfBrwv4kt2Voda0yG5DL3LIM/rXSsOfoa+av+CV+ty6f8DdY8DXch+3fDnXbrRtjH5lhEhaHj08srivpVjnpirx+HVHEzpLZN29On4HPRlzQUjkPjGL5PBcklhff2e1vKkk8gZlLxA5ZdyAsuR3AJFeZXur+JPib4cuLdR4gtY5olh09rdFaOV0JLXDTsqupyFKnAJ9K92lX1x7kjrULL5asF49gKxi0kEou9zw3X/gV4p8U+LJJLjWr5tH8s2sKS3rLPBA6tv3HaTJnzGUglcgLkkDFamnfs8TC2u459Yh08Xs6tLFpGnpbwvGvkHZtbftYvAjlhgglwODXq7jNQSjnuPX2o530M/Zrc4vRfgT4b0IXHk2s7JcRmOaI3LiGXIA3lAQu/aqKGxuwijNdFpul2ug6db2djbw2tnaoIYYYlCpEg4AA9MVclfB61Ex7984z70nJvcEkthjDB/w71GeU3N16fjUV/rVpp/nfaLy2tTBF58hllEflxkkbzk8LnIz0zT450mhWRGRo5AGVlOVYHpg9wR6UgELcfjUTkke3epCN5pjcHigCNhgHkN6YHSmZYc/jx3pWyF/TOe1RSP8pPr7UEu5HfSGBFuF5a1YTLx6dR+K5H0NdLK6uPlbKsNw9x61zkrb15/XvWl4YuPO0KNG5e2Jgb/gP3f/AB3aamRVN9AJMROeKhmVZB8yq31HSrGoJsmb/a561VaJbi4SPIxguw9QMY/U/pQBCqqPmhjbHqiY/Wk8m4cfPGkTHqN+7+lZGq+Ltb1PxJqGm+HdP0m4TR2SK8u9Ru5II/PeNJvIRY43ZiIpImZzhV8xQA5DBcfWf2gNH8H/AA/1XXfFEc2it4fltbe9t4A2oM73UscNo1qYl3XMdxJLGkTKgLMzIyo6SKtOnJLmOSOMpSn7NN9Vs0m1uk7WdtfufZnYNYsTlpmxyMIoH881H/Z0JHzLv5x8x3D8q+evEP7elv4svvD/APwgml3eo6Pc+JNIsrzXb8Q2+m3ljdHTnn+zkyGZJo4NX0+cieGMCL7Uchraby+O8O/ttfEb442nkeG9K8P6ZcQ6GNT1FdGSTxBeWErS6fI9iPMEKR6rDaS6uGspoWb7RpsY6ThBPK2bSqRR9biNYPuqq8dFGKyPF/jLTvBItX1S5W0W8u7eyQkE7ZLiVYYd3dVeV0jDH5d7qMgmvA/g740+L2n/ABy1rxN4ig8YeIPhzfaYr6ZaHw9bWEheMWkKyfY2m+2W08k8d7IYJEKGC7id3jaLyo+T0X/gm3HeeIvDviCLWptBms9HfTzHdQSXOq2TRzXstldCb7QYzchri2mnSQTRG5tBIhy2+jl7ilUdvdR6jq/7dXgGHWI4dJ1CbxFYraJfTX2lWk95bvE7zQqsLRRsss/nxxIYcq5F1CU3l1Vut8L/AB48K+MvAn/CTQ6zptrob3d5aQ3l1eQxw3H2a4ngeWN9xVom+zyOjA4aMbuOccH8Of2B/B3w4nmmOp+KtYmk1VtWjkutQ8so+LTCv5Kp5uG0/T5C8m52lsopC27du9E0f4SeFfCdpbxaZ4b0OzhtXuJLdI7OMLAZ5nnm2DHyh5ZZHKrgZdsDmjQmPP1NuY4dl9/xqtdKN3vS3d5FAf8AWKp9MjIqhd6su/5VkbPttB/OpNCtrKrLJEWHZsnHbiqH3eRipp5jNKWZRuxxjsKrzHn9MCgRVuufTmqdy3HrVi5kJP8AInpVO6Gcd+n5UxamTdSeRqH+zMuTz1Ycfy/lVa5fzD7Y/OpfEEmy0aRfvW7iQY7gdfzFVxcR3lussbBlkGQRz/n/AD9KESULlFRi3Cepz+VVGHmDMUMj7u4XH6mtGG3Fxfqr/djXfj1PTmuOm+JWuak+oX2m6Pp82h2Ny1qsl1ffZ5711OxvKBXZ9/KruI3HIq4xu9DKtWjTV5fgm9t9rm5NZXMsecLGT3JzULaO0gzJMzN2CjH+e9cF8Q/2s9G+Ht/ZLeWN81nqFkbmOSMDzGkVmUwbD/y0DA5yRgc9Kn+Bvx+j+Nep+ILYaXNpEmizIIo55B508TDhin8JVgVIyQD35osNShJJp7nYNo9vCN3l7jzyec0vk4Py4Xj+Grsy8c9v8/4VVlHX8+lBoVWz1zxjj9KhIyesYHbJqxIvmH8c1HIu1vm3H6Ggmx+kAOBwPy+lC/uz3ozgd/Y07O4nj247Cg9YcWz279/8+1IpySe9C4UH1/lTw2B/hQVuOUsn+6RxTgfvZpitx74p8bfL+nWgaH78/wD1utKvD/Xmo0GOnSng7h+HSgZOj4745qRZPl/HIquhwP0Ge9SCT/PvUWK5iYMwx+dSBii1Ar9uP8P84p4fge1IosJPjnufSpVkxVZWx8v4VIr/AF60BctRvz39xUgbHP5GqqPgfXrUyv8ALz/Og0uWA+4UA5/xFRI4P09aeG280ATD/PtQp4/zzTM7Qv8An/PSnLwOntSGh46e1HUdqaD/AI04HOP84pMoM56Y+tOUZam7v6U4lcfXpUjAcj+dA5FGePYcUBsHj1/OgBeo/pik7/yFHG6gDn6UAAyv5YppG78qdnOe9JtBHWgBhOe/tihuD79aC2Dn+Zpp+779qAGMc8Y/D0phOC2M5pznPr+NNkPNBmVbpMrj9ax9Ti/T2rauDx9P0rJ1NN2fpVx2ImfE/wAMEb4Jf8FOfHXh9sw6d8RNJi1m1Unhpofkkx77fLz9K+pHX/6/FfMf/BRC1k+F/wAcvhL8SoFKppWsDTL1lH34LnEeD/wIofwr6ajuI7mJZI2DRyAMp9QelevmV5wpYhfaik/WOn5WPIw3u81PsyOXnv8AhWPfeLtNstaj02S4AvpE3iIKzFV/vHAwo9ya15M5rgfiF8PLzXvGtjq1j5DCO2e2uI5pXVHVsEEhSNxBA615sV3NqjaWhf1b4maJb6XdXFvqVjdPbKW2xzBxnIAHy/UdK5+5+PFmxAtdNvr0KXDPuSGLEcXmSbWY84GeMAkg+lOX4B6a6WTTu3mWZhdfIHlgtGxK59RyQR3H41qN8KdBexks5tPhureaUTuk37wFxk5wfqar3epleZws/wAY/Efia1s/7KsdN09tTkk+yzTI91tRd4AkQFMMzeWeDgKxHJ5rG1c/EzW/EGnrFd3K6T9nCyTW9vHDJK0oRm8wF1ChAzpuUMQUUhcncPa4bGCwiCwwxRAdAq4pr5U8enQDrRzLoieWXVnj7fs6Tah5ckrWckjaeLGVr15rmZAfJlbbIHDjbcwJKuG/jfoTmvQvA2hXPhXwnYabeX0mqXFnGI3umXaZOuOMk4AwBkk4AyScmtokAdvoKhfpRKTY1Gw7ccHtk9agJ2n07Zp7ttHpUPVjuz81SUNkJ3H+RqNznnv2pzn5+PzpmO/86CHuBfA/+tU2gXPk6rNDn5biNZhj+8vyt+m38qpyMFH9KYLn7Hd2txn5YpQDn+63yn+YP4UAtze1P7qt/dOKppIILhZMBRyrH6//AFwK0Z1WRWHX0rNmClT0wTg1Jcjzz4x+EJrqDXdOmufFem6F4skSeXVPDiNPeWE/2ZbSWKWFVdmt5YEjw6IxSTexMZEThl78L9E+NmleJdH1bw7ND4G1PR7DQraxuIpLGWZLWW4mWVE+WSARPLF5THZIHiLjACE+gx3clum1NrpjgMSCPx/+tTJbyUdBGh/76/wrZ1ny8p5ccvgq/tr9b2t66X7at2te9ruySOV8LfAbwr4U0eOyXS49SVG8ySfVHa/muZPKmhMsjyltzmG4miJ4/dyeXwgVR1LmO3aWT93G0zmSRsBfMc9Wb1J9TzVWUySNh5pGzyQG2/yqFIk37tm5umSN2fxrHmPQ06FiXVYeis0h/wBlSf16VVuNTZ/9XDj/AH2x/LNOPD5/L3qtP0qQGXF3OxzuVe/yr/jVG4+f77SSAj+JuKsT/d/w9aoztjH59aCSGUbJPlAGPTjFV5j82Bx7VNPKdwGOn6VXnbnj7v8AKgZWlO1qrTs2fxzU8vze1QSuQrHHvimQVZ+g/WqNxO2WBPOO1WppN5P+f89vyqnc/TGScmmMzbttz7W57Z9c9aw47FlMiwzNFJG5Rhjcreh2nvgjkYreuUYjjoayrwfZdUVuQlxHtz/tLz/IkfhSEQWn2iyu1kmmEysNuQgULk8H868x+JXw9W11izj1Cz8TX2g2Wqf2xaro6mZZJC5lNvcw5yVEnzK4GOdpI7+qTpkc4IPrVVbiaCLbG6leihxnA/z9a0p1OV3OXFYWNaPK/wCvJ91seewfBLT/AIo6KLnxfpJW4fU7rULW2MrK1qkwUGNypHUKCR2z2Oa67SfAmi+GLxrqx0+ztLmRSjzpGBIykgkFup5AJz35q1dTzSD/AFvlr6IMY/Gs+do2OWZpWHGMl6TqGlOmoRS38y1d6lBE2FlVm9F+Y1RudX2jEULMTzz8ufWkFtMzfu7dgp7thBSHR7iX78kaDrhRk4pGl2V59TuHGT5cXuoJ/nVM3OGO+6kVs9BJt/StRtAiRNzmSU5zy2Meuf0pqWMUa7VjhwPX/Jpkn6Rp6+1P3gNUcLce/WnFiG47Hrmg9ge3PT9KVfl9vpUYfB5/HAoD8D370ASj5V6bvalzj7tRq2T/AIf5/wA8VIy/Tnv1FA+hIrZp4+XGT/PimAbmpwbcP50FjlbIpwf8eKbn+f4ULJsH9e9LUCRGwKcr/LTUOX/SnL19R/Wl1AmV8VIO304qAH+frTt3H+92qS0WQcjHbp0qRGyNvWq6Pgf3aer/ADUDLKPlvp3FSLJwKqq/zYz1PWpFkw2eenQnpQVzFkNk+vrxT925v51VWbkc/jUqvx3Hf60FE5bK/TtSq/y+vvUKTZ6cdsU9XP8A+s0gJT92l6U3fjj8qUDH/wBeoLQ7dgUcCmZx1yPanb8f7NAxx65o6Cmlt2T6Um7I/WgBScfL1o3YFDHJFNLUAG//AD6Uh+Y+tNL4X9eKbuyPp60CuJIMn6elQytndjpUjnjp+dQyP971oIGzHd+PoKzr8bl9xV9mz/u9qp3y5+oqokyPnP8A4KMfDFvih+yp4ps4VzeWlv8AbLYj7yyR/MCPfIBqz+yn8SF+Ln7OvhHX9ytNeWEfm8/ddVCsD+IxXrHjXR49e0C/s5FVku4WjYeuQR/hXyd/wTb1ZvC+leOvAE7Yk8Ja7OLdDx+4kO9SPb5sfhXrU/3mAlHrCSfylo/xSPJqe7iPVfl/SPppxu78dKrTnYD+tSu3+H1FV5/mH8681G0iCb/vrPrVaVikn4/nXC+IPijrlpod9qVtp+mtZ2szQoj3BWaRgRweoGcjjHAz1rk/GP7SmqWmtQ6bY6ZHHeTLsdWVpTCxGQ4IwCMHOMdutacrMJVI7HsTttOajd8Y+gryPXNI8YwXjtY32sXsk08F8isUihOV2yRNtwVAPIA9D7CvVoJXkt1aRdrlQWUHhT3FDjYUZXCRwoHzd+BURbk08tkjiomkxnPGe5qShJuV69OmKhZj7fWnSv29ahZ9xxQS2DNtz06YqMy5745pzFe//wBeo9rMCFVs5x0oJGu31HeobiD7RA0Z6MuDg9OMcVMLORxtJVfc+lP/ALNKt8z++BQFmaOj3xv9Kt5G++y7X/3hwf1FQXIwzdvTmm6Mi2ctxbjdjIlXPbPB/UfrT9Qfncvy9j7UFdCux+Xv6ZqNzuGP50rPz19+KilP8ulSSNK7QF3Z68moZWwOc9ccinGQtlh659qhdsg5455qQAtu9AMYqCRuMH8sYpZJN54P3cZGaheTFAEc2QmcnFVZuRxwOtTSvvX9M1XmOP8AZ56DtTJKk5+fP9aglfB/xFTs25//AK9VpwQcUg3K8pw27P5VVnlz/I96tSce3bpVO4ba2O59qCSqxyPp+nSqtwfmY+n54q1cH5s/n71Tm46/y6/55oApznLfoKy9cDG23IP3kTeYvPUjqP6fjWtKfkP51TuFw3fr+eKAKAk83DKeHwwPrmq0zsG2IfmkJAJ/z2/wqvZrPpjzQqr3EEcnCrgPGp5GB3XB9eCO/SpIdQWe8hxBcKu/BZo9oGeP8KZPMYvjDxv4X+H91bw67qlvZ3F2C0aTFnZlHViADtUepwK3NOubXUrCC6sZLe4tJ08yKa3cPHKp5DKw4IPHIOK8+8eXmueEfGPi+bw7ptvqnirWNOgl0iOa5W3aaGNGjlWJm+VmikZJWjJUMJByDiuc8RfCyTx1JqHhOO4QNpVxper6jHb3D2kE08oljvYv3RBQSJmUKOPMweMk1v7P3brf+vy79Tz6eMm67hJaXa2ejV7a3s7pN2SVk1v19A8XfFrwv4Ghum1bxBpNm1nALqaFrhWmSIkKH8sZcgsyjIHU+9Z/w7+Nnh34t31/DoNxcX8Gn4/00W7izuTxnyZsbX25AIHIyOxzXgfhv/gm5ef2lFp/iLXtNvPC7FjLFaWardkRb1tlEzKGX5JX3HBBMcYO7ANey/Cf9l7wz8Fbm3utJGqSX0MDWzTT3bbJdxG6QxLiLzCAoLKoOABU8qWrZ288n9m3zO7deDx/9eoxGEHzA06Z1gjPmNGq84LHH+elUZtWtY5NvmqT3IUnP5CpL6H6QW3zfL688jrUj4BqO34HTmpCuX+9waD1kHl889acBg/pQq/d9DTivAPWgLDVp23n/PNO6J7U5TuHX16d6B2Grx25IqRTx+FITg/40vQ0FoVCQOvIxk4pyqQB/n2pFOf689KfjH4dBQAo4pwGw/XnNNTg04cmgCReV5pykimDp/nmnD738uKzKRKpx/F+HpQGyPw7f570xTkLTl+fn8aCiVTuzTycKT19aiU8/wBKd0/2f6elAEyN+h60+OTc38vQVATkZ/8A1U+OXIXnNBSZNG/P64qVZMZFVI5Dnse575qVTuHqPX1oKLCy4pyyZPpz1qAPk5/Gnq/H60WAmB2+lOViB9O9QmTA/lnijzMVPKxkm/jrQX6/5xTC+4e/8qQPk49OKkfMSM+OvX+dMLYP9KjeXHtxSF8n+nrQK44yY55prSDP/wBembzx1zTWPzZ/SmIe75P68VDOQB/UUNNjPPvkdqjeUKef8/SiwDXOw/XqR2qrdN6/zqWRstk8Hpmq9w24H27ZqzNu5l6mOtfG0at8GP8AgpNdR/6nT/Hul5GeFaaI5H47WP5V9lag3HNfH/8AwUh0eTwrqngfx9bqyzeG9Xi89x/zyc7X/Q16eVvmqSov7aa+e6/FI83GLaa6P8/+DY+kZTg/eqvI/wDOotM1ZNX0u1uo2V47qJZUZehDDNOkcGvO1Tsyt9Uc1efDXR7jWDfNbM02dxUyfuy3rt6Zq9FpdtbSKyW8KsOhCD5f0rReCSTorcng4qP+ypmGWUL/AFquZk8q7FQvlcflzUZbYfxzWiujDOWYnrxThYQoPu7uO9Fw5WZLDcDw3pTTayyj5Yzj1rYG1RnaPwqNm3Kf8anmDlM1dJkf7xVfpSnSo0bDMzc46Yq4x5b+p5FRSL83ei4cqREltCmNqj8jTD8uf5jtUkh2n29MVG7ZP4Y9RQtiSGVm3f7POfr/AJ/pUQOT9O9SySZz/Oq8jEP/AIGqAazeRe28ny/NmJvoen6gVavR5kDdPl5FUr1N9uwH3l+ZfqOf5irMM4urdZF+7IM/WkmSikZSV/zzUUxyPr+lOlJRzjt1qCRy4+nXFBIrHK1DIQD+tKrk5+91zxTJJMN65qWTsRSgdOnb6fSq8jbamlfdn+7UMo+nrSBXKzsW7VEfmPzdh6VLIcde/X+VQzN6/wD16AfcrzMBJ/PPrVd2yx+mBUs69fr+FVmkwcH3/HrQSRy7scY4PPuKqypwf61NKcPz396jm/rQBRnTB/QHP61WnjwTu4x29KuTHC9AFXpVWVNy/jjAPSgChcDL4/p1qpKc/wB7Hf2q9PBjOOOKpS7kbv8AXHSgDNu/9G1WNunnoYmz6jJH/s1RyBpI8SKuOmAfap9Yha4s32/61CJE+qnI/PkfjTIXWWGNl5EgDAj0I/z+VMDJ8TaFpfi/SP7P1ywj1C3jkEiM6ZKMuQHUqQySAEjcpB56jOKj8L6BofgPTHs9F0/7PDLJ5smwMzTORgM8jkszYGMsScADpWpNFx97HGc+1V44J707oVXa3R36n8P8/wAqtSdrGfsoc/tOVc3e2v3lW61GY8JHEi9Mud36D/E9qpXc9w4/ezvn0A2j/P41sSaEZgxkuH5xkRjaM/Xk1EdDhgb/AFatwMOx3fzoKs2c6qwyy4RWmbrkKX/Wpv7OuJeVthj/AGmA/wAa3Db+RG391eTn+Ed8k/nXJ+Jvjr4J8G6gtpq3jDw7p100SzCKa9jDFGGVb73Q9RS5ktw5Wfplbcge4Bq1GNq5/rVPTTvij9TjtVzzNwx29Kp7nrR2DGMdOozTgdxzu+YfpRty3+f8+lIJdoH14/WkVsxccenv6Uq9P6UnQ4/2sfWhT5gz6cf0oDS49kweOP6U/ORn3/WowP3e71/z/WnZy23vjj2oKHA4PH1oHAIH6dqQNkM1LFKT74oAkU598dqftx+eelRrz/KljfcM5Pr0qQJu/wDD+H+e1KPX8KYo5/OlIwPwpDHg4K54p6nK/rUWc4/2untTlHy5/DFMdyQnHbt3pVPX6VEGy2Px/WlyQ3tipKJc4OOw9e1ORsfnioQ/yjHpT2OF4oAl3Z7n61KXOOO/pVRTk/1/OpPM5oKuWFbpx3xTy2V/wqqnK/hmnmTAz74zQO5OsmD1pTJn+ZH+f88VXEnPsadhs/560DJvM3Hr34/rSeZ/9aod+3P49/TFI8mCfYVLiBM0mKZ5uC3FQPcFQKb5hPPbpijlFcmaam+eM+oqBZtzfzpry7Rj8M4p8qFzErSZ5H696bJN+R9+tQyy7W2n14qMtnNMke8nPNV5JcjnFI820/71Qu5INAmyveHINeYftGfBy1+Ovw3vfDt3N9njvBjzduWTHp6GvS7v5V+v+NYupth+laU6kqc1OG6OapFSVmc/8PPAf/CDeCdL0lrqS+bT4Fg81/vSBRjmto20cT8KvqDinRvuj/3RXE/GzxZqng7Q1vNPkt1RT+8WRckrkA4PY46e9S25Sv1ZnpFWOwLDHHy8dBVed/8A659qq2c8l54dhfzG82WAHfjnJXr+teISeIdU0vxC2kLqE/8ApUrvJOjMr4H8P3iD39KFFvYmdSx7bJqNuU8zzo1UkgEt1I69a5rxD8ZfDPh+28ybVrNtzFFEbhyx+nf2/wAa8p1Hw1qWqa7DazXFtN9uLwiaUuzxKOSV6Dd055Fa/h79ny38QeRc6teNNdaexitHt1EXkoMHqACScck5ODVeze7MfbX0R0mj/Hq11jU9Ot5NPvLOPUHdFnmP7sOGwF4B5PBGcde5ruHblq5u1+GOh2d5FdfYUkuLd/Mjd/mZGxjIz0PvW8mfzI/+tUyt0NI36g7dee1RudvPHqcn6UMxdtvTnFQyNklfQ1JQO+QKjaQHmiQ7+P8APSoy2Gz79KCHuBk+bHvUMn3vf9aHk3O3p259qrtJvG05Oef60EscWwR+lN0qXYskLf8ALF8D2B5H8/0qN3OFPc1Gk32fVFH8MyHgf7PP9aBEl6MS7sD5qqlto7/nVq+5hz2zzVMNlTjcMe/SqJY1uB8pHNMc44/nR5m78KiMgJ/3vapAVzz6L71E7ZOf8mpG4PPfrUMhxu+lBJFMM+n1qtM2eOfp61ZYZb+dQSjAP5UFFRxlT+VVpU2n3qy8gJYAYUdqrXCBJf8Ae6/59aBWK9wuW/2Vz3qu4zk8/wCf/wBVXLiPKn/PtVctz9OtAinN0/nxUMy87e2OeO1W5EBO31wPxqtKct/jQIqTr5i/Q+9Urlctt7gYHqKvXbeUGzn5cc/X/wDVVO6XA/pnjmgem5SkTB9Ow9D/AJ/z1rKhZbC5a0k3AZJgYj7wP8P1HTHpgjPNbU0W4449PSqN7ax3CNHKiyRuOVYcdaA3KeoIyxMv97A4PTsf61zvxYur668QaTodrrUnhmxmtbrUb/UovKEqQwGJTGjSAqhJmUsxBwqmtq40KAxfM9y6Y+6ZmIH05qr4v8K3HjTTLWa2ltINW053jia5g+0WtyGUxy280eRvglU4YZBBCMMlBnSna5y4qMnTaj5dbaX1V9N0cDpfxe1DRPCGtXWm3E3jm3t7XUH0aS6VbS6vrqx8zzbR3jQRyBgpMcyICdrhlJAY+M/FH9qTx1rfxJ0ePw615a6hp+nzTX1hoely61HdxSfvLWYo6qJLeYNZkOm2RVluhnKHHv8A4B+HOpWOsaSLjSfDfhnQfCP2iHTtL0a6luI2nkDK7MzxR7UAeQhQCSZCSRgZ9BhjW1to4YlWOFflREG1VHYYHFaVIpS95fl+l0c+BlOpQvfS+j18r762vda9D44sP2fvi78TbvzPEy3E1qtm0DprWvvGgmu2bzri0+zfOFjhEafZ7hdoaSYAlRhr4/4JuDUpZZtQ8RW0MzOcR6RpwsrRVHGViYvtZjl2AO3czYAFfVOqalFpvDLIST/CByf84rObXJGPyRIq+7mpU0vhVjqdGL+PX1P/2Q==;fontStyle=1" vertex="1" parent="1">
          <mxGeometry x="524" y="658" width="120" height="80.08" as="geometry" />
        </mxCell>
        <mxCell id="473zDxLhcldlXg5GOI97-30" value="" style="shape=image;imageAspect=0;aspect=fixed;verticalLabelPosition=bottom;verticalAlign=top;fontSize=16;fontColor=#000000;image=data:image/jpeg,/9j/4AAQSkZJRgABAQEAeAB4AAD/4QAiRXhpZgAATU0AKgAAAAgAAQESAAMAAAABAAEAAAAAAAD/2wBDAAIBAQIBAQICAgICAgICAwUDAwMDAwYEBAMFBwYHBwcGBwcICQsJCAgKCAcHCg0KCgsMDAwMBwkODw0MDgsMDAz/2wBDAQICAgMDAwYDAwYMCAcIDAwMDAwMDAwMDAwMDAwMDAwMDAwMDAwMDAwMDAwMDAwMDAwMDAwMDAwMDAwMDAwMDAz/wAARCACHAQADASIAAhEBAxEB/8QAHwAAAQUBAQEBAQEAAAAAAAAAAAECAwQFBgcICQoL/8QAtRAAAgEDAwIEAwUFBAQAAAF9AQIDAAQRBRIhMUEGE1FhByJxFDKBkaEII0KxwRVS0fAkM2JyggkKFhcYGRolJicoKSo0NTY3ODk6Q0RFRkdISUpTVFVWV1hZWmNkZWZnaGlqc3R1dnd4eXqDhIWGh4iJipKTlJWWl5iZmqKjpKWmp6ipqrKztLW2t7i5usLDxMXGx8jJytLT1NXW19jZ2uHi4+Tl5ufo6erx8vP09fb3+Pn6/8QAHwEAAwEBAQEBAQEBAQAAAAAAAAECAwQFBgcICQoL/8QAtREAAgECBAQDBAcFBAQAAQJ3AAECAxEEBSExBhJBUQdhcRMiMoEIFEKRobHBCSMzUvAVYnLRChYkNOEl8RcYGRomJygpKjU2Nzg5OkNERUZHSElKU1RVVldYWVpjZGVmZ2hpanN0dXZ3eHl6goOEhYaHiImKkpOUlZaXmJmaoqOkpaanqKmqsrO0tba3uLm6wsPExcbHyMnK0tPU1dbX2Nna4uPk5ebn6Onq8vP09fb3+Pn6/9oADAMBAAIRAxEAPwD9/KKKKACiignAoAKKYZgo+bgeua86+OX7YXwo/Zjijb4jfEzwH4FaZDJFHr2vWunyTAf3EldWf/gINAHo+TnpS18u6D/wWv8A2SfEmrCzt/2h/hPHMx2hrrxBBaxE/wDXSUqn/j1fRHgX4jeH/ij4Zt9a8M65o/iPRrvPkX+l3sd3bTY67ZIyVb8DQBtA5oqMOC3HrUlABRRRQAUUUUAFFFFABRRRQAUUUUAFFFFABRRRQAUUUUAFFFFABRRRQAUUUUAFFFFAATgVwX7SX7Sfg39kz4La98QPH+tQ+H/CvhuES3l3IrOxLMEjjjRQWklkdlREUFndlUAk13cjbUJ9q/FP/gqF+1n4o/bd/bB1rwvZ+JI/h18FP2YfF9sDq9lp0Op694r8WxW7kxWkVx/o6/ZFklAeVSkD4mbzXeCJQa3O1/ay/wCCgvxw/ak1HS/Cukr43+D8HjJ1h8P/AA88IvBD8TNcidS6zarqcoe18OW/lATP5SzXEMaszsAQpf8Askf8EAfg78EPEN54y+LGnw/Fzx/qtw15JY6ndS3+h6SWORFif95fuvQ3F2Dv27hBEeByH/BHfUNPtv22/jBeaX/wluqtdeCdMuJ9V8XeIP7e1dbmbU7szFbjyoVSO58pHeJV2lrOM7iBX0T+0R8TfjB8UPjNdfCv4J3Hh7wfNoenW2qeLPiB4i006tDpTXJY22m2FmxCXF48URmkeX93FEyDh3Qn53NMZU9r7GL5Ut2e1gcNDk9rNX8j0LxP+xp8DfGehvpeo/Av4PXWmsmwQt4QsF2L0G1liUofQoVIOOelfM3i/wD4JEN+zP4un+JH7H/i7Vvgp8RLb9+/h59RmvvCPirGCba8t52d0EmNocuyocbUjO11+wPhlpXiLQvh/o9n4u1qx8SeJrW2WLUtWsdO/s631CYZzKtvvfydwwSgbAYnAA+UX/ElrqGpeG9RtdJ1RdF1a5s5obLUfsi3n9nzMhVLjyXIWXYxVwjnaxUBsgmvnaeOr053Urnr1MDSlH4Q/wCCXv8AwUk0v/goJ8MNXjv9Fn8D/FX4f3f9jeO/B12wNxoF+pZSUPV7eRkfY/P3HUnchz9SA5FfjTov7LHxC/4J0f8ABUf4VfHs/FHxL8UPDXxM1q0+GnjaTX4II9UjTUcQWEsksCJHPCt2tmAxjR4tkceWRxs/ZKKTcBxj696+8wuIjWpqcHdHydek6c+VklFFFdBiFFFFABRRRQAUUUUAFFFFABRRRQAUUUUAFFFFABRRRQAUUUUAFFFFAATgU3dTj0rm/in8TdG+Dnw38QeLPEd7Hpnh7wxptxqup3kn3bW2giaWVz9ERjjrxQB8z/8ABWn/AIKraP8A8E3vhdp9rpemR+MPi143L2ng7wuHOLuUYD3Vxt+ZbWHcC5GGc4RSuXkj/Cf4D/FDx98UdA+IU6+CfiD8UvEMPjzXvFPi7U/BfhmXUNNgnvhatJOzwgKu97eYrGoJCICABiuw8Q/HLxB+2V8cfFX7QHjNZ4db8eStb+GdOmk3DwvoMbsLW2TgANj52YABmdn4Mjivpr/gnz+zLbftNf8ABOv9nmy8E+KvF3gPVvh5qviaHxHqXhrWpbK40vxEpujBLcQKwjuMySWch81HYxC3iysckgb5+OfQlWnGFuWFl8+p+hZxwPWy3KcJjMQn7SveXlGNtE/N7nWf8EIfE2h+Pbr4weIdJvY719Uj8P8Akyqu0tZrHqHltz0Pnm7UjGQU9wa/QpFaZlVRyxCge+f8/wD6uK8J/ZH/AGAfBn7IPjfxt4s0B9WHiL4lSi91yF70NpdpK08108VjAsaCG3FxczlFbcwVsbs5r3YDK183j60a2IlVjsziwVJ06Si90fKOjf8ABTv4Y/Ef9uPwn4H+H/iDVfFd54ijvPDXiLQE0XUbe58MXdkZriLUnFxAiLA3+kwTnduz9jZQQrkemfEL483Xwb/a28H+H/ElxHa+B/ilp40TQbx0VYdP8S2zzTGzkkxwb60kXyQxOX05lQbpOfYLm+8mKeaaT5fLzI7HkIoLcnGdo6+x5rzP9qHwh8L/AI6fsqatD8RNa0OH4W+JNMt75tfuNSTT7a1jcCe1v4LmRgsUiMUlikHdV4ZSQXGUZzj7tl1/zFKMoRfveh8Z/wDBSD9qPxh4o8E/F7UtB+Fvxa0Dwr4L0nQrmbUPF2jjSdP/ALf0bxXaT2b6cxlY3KXaTTJJLGpAFtatkgtj9N/+Cen7ffg3/gox+zvp3xB8INJaFnax1rR7l1N54f1FFUy2c4wDuXcGVsAOjI2BuwPyz+P3x48bfEb/AIIiXzfEO5/tnVfE3jSw8H6B4ikspbCbxhpcOs27W2sSQOAUe5tbWeXjAZQsn/LQg+GfsI/teTf8E1v28NC8fSXbWnwx+Jt3b+GviHbM5W3tzIxFpqzDoDbyMS7Yz5bXGBukyPdy/HQo1Y4aWnNe3y/zOr/VPE47Ka+b0dVRa5l5NXv8j+jUNmlqGGRieexxkCpq+lR8CFFFFMAooooAKKKKACiimh8mgB1FFND5oAdRRRQAUUUUAFFFFABRRRQAUUUUAB6V+cn/AAc1fGC88K/sE6L8OdLuWh1H40+L9P8AC03lkiQWKs11csOfu/uI429VmI71+jZ6V+QP/BzlqEh/aT/ZJ0/cfskj+LtQZC2FaWC100RH6gykj8a5cdUdPDTmuiZ7XDeDhis1w+HqbSnFP71ofDdwlvbusFqqx2doi29uoHCRIAqjHToAMDHGK5PUfH3xO/ZUTxl40+DXxA1rwPquq2L3GtWENtDe2WsNDGSJjDMros4XP71V39QCu5ienxzxk8cD1PHauJ8e/HPS/B+r/wBj2drc+JfEkoITR9OTzpcf9Nm5WNeQDu55+7ivyfK5Yl4lLDpybeqWqs+5/c3HeHyaplE45vKMKcU+Vt25Xaya2fbRH7f/ALFkej3H7GvwjvtB1rXPEWm654XstUXVda1OTUtQv5rpBcTyzzyEs0hmmkyOFQfIoVVVV6/4eePtK+JnhmLWNHujdWLzz2kgK7JLae3meC4glU8pLFNHJG6NyrIe3NfmX/wRk/4KY+Hf2a/hG3wH+Ouo2Pw9uNFup9U8F6rqEg/sl7G5leeawkulykRhleV1aVlUpIULLsUP75+0d+2n8M/2SfEb/F7wP8UPhj4j0vxncRx+KvB9t4ssn/4SWWKNUXU9NlR2ji1KOERxuszRw3cSxK8kcscbt9Rjsvq067pyjZvufxZhcVSqU1KjJSS0uuvn89zq/wBsv9pHxh8Nfi2nh/w/8Rvhl8JNami87w/b/Ey3M3hXx1agR+Y6XyCGazvoJS8cltum3RNbyhSJCY/lX4F/spfEJGurbw34R/YRXx1ayWx8E30HiXUvEtnpwWRnupLe0u7m6aExxAPGbeFdoToAoA+lH/4KX/safti/CRbfxZ46+GGpaDcMs8uhePbaGzltpQpGTb3a48xQWG+EsOTtYjJr5Z+M/wDwVt/ZU/Ydt75f2WfhZ4H8QfELUoXs4Ne0nw0un6VbAklt115a3N4qsATDAPLfbgyggA7Yf2qjyRhr6aet9CKsVKXMpXXbW7+Ri/8ABQfxBrmm/F/wj8JfEHxE1j4peLfBzN43+IPiC7RLe3/te5tmttM0+1tEPl2kNvaS3EwhQf8ALyHbLu2PDfib4Jh+JPw71rQZlVl1SzkiAI4WTG5Dzno6g/gPpXkfh74pa38M9Wu/GXiLW28eeHfiJenU9W8Swwlbm31OXHmtMh52FjwpAwAAoU5Q+6aRqVvqdtb3lpNHPa3KrNBLE4ZZVOCrKe4IrxuIMLisJioTqrTRprZ9T+l/B2vlOP4cq4LDz5qkuZVIu11fRadl0Z+4H/BE39o+7/au/wCCXXwd8XanM9xrK6MNF1OSRi0st1p8r2Mkj553ObfzD6l6+rK/M/8A4NYNSkn/AGAPHemksbXw/wDFPW9Ps1P3Ui8qzlwvtulc/Umv0wr9Joz5oKXdI/kjHUfY4mpRX2ZNfc7BXyT+1z/wVa0/9k//AIKDfA34B3Hgu91q8+NrMsGsx6kkEWk7ZDH80RjYydM8MtfWx5Ffj5/wWLOP+DjL9gn/AH5//Slq0OU/YM03fmvkn/grd/wVf0f/AIJffC7wu1v4T1b4i/E34laqNC8EeDtNYrca5d7o1clgrsEQzQrhEd3knhQL87Onyh8Xf+Cl/wDwUQ/YV+GcPxc+OX7P/wAEdY+FGl+XN4m0zwZq9yviLw/byuqCR3kup4JPLZ1DeSkidSWjTMigH6yiXI/+vQJM9jXxz/wUK/4Kjx/s/wD/AASC1f8Aak+E9vo3i61bTNF1nRItUWQW91b3+oWVuVlWN1kSRY7psruBSRMMOCp+bvhj/wAFUv22P2/v2e/Dfj79mP4GfCu68Ox6Favqut+Nry5tbfxLrX2aM6ha6RbfaIJFgtrvz7cT3EhjkZGCv8jmgD9V9+R+lfCP7B3/AAU/8fftQf8ABWP9pj4E+INI8IWfhH4M+T/Yt3p9rcx6ldb5FU/aXed424J+5GnNN/4Idf8ABYDV/wDgp34P+IXhz4heC4fh78ZPg7qiaT4r0e38xLZmcyoJI45SZYWWa3uIpIHaQxmNSXPmbV+cf+CQsi2//Bxj+3tJIyxoot2ZicBR5yEkn2oA/X4SZr5Jvf23/jXaf8FbrL4Ir+z/AK9J8FLjQTfyfFDzJPsMdx9naYfOEMOPOX7L9nZ1n3Hzv9XgN5P+y3/wVq+Jf/BR7/goN4j8J/APwr4Puv2cfhvdJY+JfiTrSXM/9sXSnMlvpSxSxpIzr8qO25UQeexYPDDL1j/8FQvGA/4LuL+yr/wj/hv/AIQ1vBn/AAkv9r4m/tMTeVv8vO/ytmR/czjvQB9xB80CTJr80/8Agpj/AMF0/En/AAT0/wCCqvw5+Cf/AAg9n4r8H+NPBn9ueXYWtzceItR1WZtVt7HTrRY2KZuLy0soQWjbb57knGCvlP7Y/wDwVs/4KFf8E9vCVj8W/in+zr8FW+Df26Eavp2iaxc3et+H4ZnCQwXV6lw8CyF3WP7RHbSQmQquAXTIB+whpN3FfLX7Vn/BWP4f/szf8Exl/agW01LxB4V1bQtP1fQdNjdLe81WTUFj+yW7ElhEd0q+afnMSxykLIUCN8m+Dv2zv+CpPxZ+EelfE7w38Af2c4fDPiGCLV9N8K32pXi+JZLCUCSJXka8jt1leJlbDhGUsA8SsGQAH6rCUE/55p1Q20nnW8bFWXeA205yuRnnNTUAFFFFABRRRQAHpX5M/wDB0j4ImsoP2aviIqt9k8OeML7w1cP/AAxDVbRcMfb/AEIjPqRX6zHpXy//AMFhv2Nbj9uz/gnv8QfAWmQrJ4oNouseGz0YanZsLiBFYkBfNKNAWPRZ2PPSscRSVSnKm+qaPQynG/U8bSxX8kk/uep/PP8AHHWPEGp/Ejwt4N03WF8NWPiaGczagkZa5kaPBaCM/wAJKkYOQf3mM87WNJvdL+C9lcaF4X0pbN45Cl1eXf7y4u5AcM7n+LJyeuBngAcVgfEnxLJ8Wv2ctH8dWKmPXfCtxFqsqbcSQXELBbmJgORgjcQecKoPGK2/iG8Vx4pa8t2X7LqUMN7Ef7ySIMY/EVXAdOlDCTp8qVWDs31PovH3EYzEZzTxNSrKWHrQU6avor7pLy6+Zn/8JRq0XifTdetdY1bT9e0O4F3pmqWV29reaZMOBJDJGQ0bY4O3AIJByCRXb2Pxu8W/tA/HmTWviBqWieJNZs/C50+zvBoFjYTzwC7UzfaBbxRxzPukjG8oCVYcda85jiku9Y0u0h2q2pX0VoZGU4jDk/N+GKoa7qt74Vhj1zTblLS+0SOWQNJCZ0kjMZDxlAylt3ykcjlFPavZ4hy2WMwdSFP47aPzPhvDviOnk2e4XG4lc1KMryW+m2x6B4y8Gr8NNe07xP4HtrjQfE01/b2Zj0WJXl1RHlQGCLT2gmhuZ/4kQIpDDd82MVrX/jrWPhv8TNZ1L4uSeJtC8b6/OJdNv/GmlT6Zqt9pWxfI8oyrHFHAp3osMCRrGIzlFbKD2T9mr9krQ/i/+zbY+MtN8cR678V7iCHUNJ8W6fdqY/Beqxlbi3htoo8LCIpVVZty75gr7jtIA+lvi3+2XYfHT4J/Bz4n69ps3hW3t7vWvE/iMy65PqLWGq2GlR6NqttFbSE/YY4buSKOK3iOyUzLIqBpWL/I0eE631WFHFVX73VdPLufq2YeMWBjnVXM8lwUEqfSUbNu1uay0V/mz8stA8ZWvh9PFmqWc1rfeH7/AFHULhkYb7S+ti7b8joylg2O4zkGvTf2fPDz/D34F+HLa+Zomt9PF3cljjyvMJmYHH90Pj8Py85+Il9J8Y/ibcb9MtNKuPiLr7Xd5Y2qLHFaW/Ekq/LgFhBGFdwPnd2c5L16d8XNK1z4gQ6J8P8Awjbi58afFHU4fDWhW5OzMtw6xvI3dY0RjucjCZz2rm4vi5zw2Vw1cbX/ACR9L4MVY0cPmvGGLXJGV0ktrvXT56H7Df8ABsV8PJ/CP/BKrRfEFzG0dx8RvE+s+J2Unor3bWyHHoY7VG/4FX6GGuB/Zl+B+kfsxfs/eC/hzoIY6T4H0W00S0do9jzJBCkfmMB/E5Usx7sx613zdK+gpx5YqPY/EcRWdarKq95Nv73cbv5r8ff+CsR/4Tf/AIOY/wBhvw/pqvdaxpenz6vdWyKS0VqJbuTzDjtttLg+wjNfoZ/wUL+DPxm+N/wFh034D/E2z+E/xCsdWt7+DWbyxW+tpYUWRZLeSFkkRlcSA/NG4yi8ZwR85/8ABM//AIIra5+zN+1H4k/aI+PHxSn+OHx98TWz2EerPp62lhoFuwCstrH2cxqEDIsKRxu8axgFmajE+M/+C6fh74keKv8Ag45/Zb03wJ470v4a6zqHghrbwr4k1zSotV0zT9WafV1cC3mSSN55M2kSkoSsksDDBUEe4fFr/gmF/wAFHvjr8K/EvgnxX+2d8PdW8L+MNKudF1exPw80+H7VaXMTQzR747RXUsjkbkZWXOQQQCPqz/grR/wST8K/8FV/hd4bstQ8S614B8deANQbVvCHi7SEEl3odywXflNyl4maOByqSRuHt4isi7SD816X/wAE0P8Agop4t0ZvCXij9u7SdN8ITW5spNT0XwPaf280ITaCtwI4ZklOB++W48wEltzHqAed/wDBSH9i7XP+CeH/AAaU+Mfg34i1+z8Uav4LFgk2p2aSJDcJP4xtrqMKH+YBI50TB4GzjjFfoN/wSS0230//AIJXfs1x28MNvG3wu8NSskSBVLvpds7tgd2ZmYnqSSTya5n9vD/gms37Xv8AwSu1D9mex8bahpX2nSND0ePxPrEH9p3brpt3ZT+dOoeLzZZVtPmYMvzSFsdj7P8Asi/BCT9mL9lD4Y/DWbUV1iX4e+E9K8MvfrB5C3zWVnDbGYR7m2bzGW27mxnGT1oA/ML/AII7W8dn/wAHGH7escUaRJugkIUbQWNwrMfqSSSepJJ718Gftk/CT47fGf8Aby/4KOaR8DL2TzUntLnxjo9grprPiLQVY/arSzlGeSTG8sIUPPEjxqxybe4/av8AY2/4JVXn7Kn/AAUn+P3x+m8cWuuW/wAbtmzQ00k276RskVhmfzmEvAxwidc0fsbf8EqLv9lT/gpP8ffj9N44tdct/jZs2aJHpJt30jZIr8z+cwlyBjhE6/hQAv8AwQm+PPwI+Nn/AATs8Fx/ADTYfDnhrw7biw1Tw68ok1DRdRxunW7fAMssjkyCYgCUNuAXlF+TH5/4PHk/7JRx/wCA5r3TQv8AgiTq37M3/BS3U/2gv2e/iZY/DfRfGiA+Nfh7e6E17ofiByzNKY2jniNsWLeYhEbmGbzGG6KRreu+/wCHV963/BaBf2tP+E3t/si+FP8AhGT4Y/slvM/1WzzvtXnY6nO3yunGaAPkX9tbTrfU/wDg8a/ZNhuLeG4jX4X3cwWVA6q6QeKXRgD3V1VgRyCARzg19gf8F/rOK8/4I2ftBCaOOVU8Lu4V1DAMs0RU4PGQwBB7EDFQ/Gj/AIJW3Xxb/wCC0Xwj/a0Txtb2Nr8MfCk/hl/DB0sySagZYtWj84XPmgRgHUwdvltnyTz83Hsn/BQn9lab9uH9i74ifCW31yLw3L480ptMXVHtDdrZZZW3mLem/wC7jG4daAPjr9hj9hrwp/wUe/4Nu/hL8JPGdxeWOleIvCVq8WoWgQ3em3ENyZoJ4i4IyrIoYcboy6ZAbI+cPFnxp/bi/wCDcH4baP8A8Jy3hX9pz9lrwvNBpEerwo+n694bsiRDbRyNy0IMjoqeb9siXbHCJot8Yr7iP/BLv4heCv8Aglb8PPgL8O/jjqXw+8efDT7HLp3jfTNNdRdPbSu/ly2on5hlD7HRndCM7kcZQ/O/xH/4Is/thft3eFovh/8AtN/thWetfCOW8t7vVNH8G+ELPTr7XfJkDpHJOsESxgHDjes0ayRxN5TMqsoB+nHwY+LOi/Hv4Q+E/Hnhuaa58O+NNGs9e0uaWIxSS2l1Ck8LMh5UlHUkHkZx611FYfw3+HOi/CH4e6D4T8N2EOk+HfDGnW+k6XYw58uytYI1iiiXJJ2qiKoySeOSa3KACiiigAooooADyKjkj/dk+g7VIelN+bFAH4Q/8F1/+Cd15+xf8bfEnxu8L6Tc3PwV+LE7r45tLdd6+EtYuf3Zv9g5FtdO/wA55CzSMM/vIVH5/wDhC/OrfBbwJdMwkkj0prF2B3Am2laLr9APzFf1neKPCWmeM/DmoaTrGn2Oq6Xq1rJZXtleW6z295BIpWSKSNgVeN1JVlYEEEggiv5Pbm003wjea74P054Yx4P8WeINMWzBzJbQRahIkWV5IBVTyepQ9Tmu3J6FOnXnOOjktfNmHEmZYnFYChhaj5o0W+Xuk916FTR08XH4q+G4tH8Fa94it7rVbS1tTZWx8y7upJhFHDGW+V2kkaNVOVG447g19I+Df+CNP7X3jqGK4t/gTcaLb3HKya54q0q0Zee8SzSSr9CteAeFfiA3wg8c+GvGALR/8Ib4g0vxGxAGcWN9Bd8+uBD+nWv6yY9u0FeVboR0IxXdj8ROjO0Xo9TxMtwmHrw5px1Wm5/Onpn/AAbzftleCddk8Q+D9I8E+C9exlrnR/HkltJOM52SItuIpF9mIBOOTivlf9p34e/tEfBP4p+OPD/xOsrX+0/DM/8AwlGu6fBfWn2M3F1Dblr0JbMFZ5VsIJHCBQZLdGZQ6gV/Wq6cN9K/nj/4ODtCltv+Ci3iyOMzCHXPA9hNNGrEJI63erwZI6cLGg/P8eDD1HUrLnfdnqYmEaVG8Eui17HnH7MP/BJH4ufGb9oPSbTxV4x0f4d6Tq3wuj+I1lqvhzSbrxJeX2i3EqAxWVsiiR70M0SyKhLqJYggl37T9naN/wAEfPhn4K/Yr8SfFr4E+IPiVov7R3wstrrxToXiXWPGNvqmtvc20Lu1he2ljNJYRwXMYkhMRUyFJdspI3xnkf2I/wDgpr4L8KfDb9kHxRcf8JNrz/Cv4VeJvBfjj+wPDV/rDaHEf7L+yfajb28qIGXSxIAxIVWywVTX034B/wCCyfwH+HfwE8R+M5viNqE3hiXTTPZ2WvR6RY3OrBlJRLKxtrWC5nkk+4oZCg3gnaMkcDhGU/ate8+vU9aNerGgsKpv2a2jf3U3u7ban27+xt+0bpv7X37K3w9+KGkxxwWXjrQbPWFgV9/2R5YVaSAnuY5C8ZPqhr0418rf8ETv2fNe/Za/4JYfBnwT4ps7jTPEFjoz319Y3AKy6dJeXM179mcEAh4hcCNh2ZCK+qas5xpTI/xoCYNOooADTdmKdRQA3y8DilCY/wDr0tFACbaNtLRQA3ZxRsp1FADdnPenYzRRQABcUmzmlooAKKKKACiiigAooooADyKTbxS0UANdd6Y9vzr4X/b3/wCDff4C/tua1qniuDT734ZfEvUp3vpPFHhVhbteXTZJkurU/uJy7Hc7gJM/P70ZJr7qpCuaabWqDfRn87f7Q3/BuB+1N8LNA8QW+iap8NPil4aXTrrFxDczaZqksIifK/ZWTZ5jKMKolkG5sFu9ftb/AMExf2gI/wBqL/gnv8GvHi3Qu5/EXhHTpb1wcgXqQLDdL/wG4jlX6jseK92ePP4HP1r8sP2Nf+CiHwX/AOCPfxH+K37MPxi8ZL4Di8K+OtQ1nwE13p13Jp0vh3VTHqNuizxxMkfkzXNzGxcquVOCecXOpKfxO5nTowp/ArH6oPyv14r8fv8AgsV+w34a/a2/aV+L13qdrqE3irwl8FrjVfCxtr6W3jS/ivtUkRpY0IWYEmNQsmVAc/KSa+5H/wCC0n7Jq6N9ub9or4P/AGY8fL4mtml9f9WG3/pXwb8df2ltJ/4Kof8ABUXwT4L/AGZvjpcaPb694P1rTPHmtaB4aGrf2bp8ZhmgBkuIxDGJpfNiWaJztZlB3b1Bz80axt1P0Q/4Jc+FvBfhj/gnl8GF+Huk2uieEdS8I2GrWlnbsWVXvIVupmYkks7zTSM5Ykl2bmu38Lfsb/CPwN40XxJovws+HGj+Io38xdVsfDVlb3qtnO4TJGHBz3zmrv7MH7Pmhfso/s8+C/hr4Zkv5tB8C6PbaLYy30gkupooY1QPKyhVLtjcdqquScKBgDvKBDVTZ/M+9OoooAKKKKACiiigAooooAKKKKACiiigAooooAKKKKACiiigAooooAKKKKACiiigAooooADyKwfHHwt8N/E7Tls/E3h/Q/EVnG29YNTsIruJW9QsikA1ugHPX9KWgDyU/sC/As3Jm/4Uv8JvOJyX/wCEQ0/cfx8qu78B/Cvwz8LNPks/C/h3QfDdpM4kkh0vT4rOORsYyVjVQT7kVv0UABooooAKKKKACiiigAooooAKKKKACiiigAooooAKKKKACiiigAooooAKKKKACiiigAooooAKKKKACiiigAooooAKKKKACiiigAooooAKKKKACiiigAooooAKKKKACiiigAooooAKKKKACiiigAooooA//9k=;" vertex="1" parent="1">
          <mxGeometry x="630" y="125.10000000000002" width="106" height="55.9" as="geometry" />
        </mxCell>
      </root>
    </mxGraphModel>
  </diagram>
</mxfile>
